<svg xmlns="http://www.w3.org/2000/svg" viewBox="0 0 462 187" class="customers__logo">
  <g fill="none">
    <path fill="#adadad" d="M389.15 0.65L384.43 13.85 461 13.85 461 0.65 389.15 0.65 389.15 0.65ZM332.63 13.87L327.98 0.64 256.89 0.65C256.87 0.65 256.91 13.86 256.91 13.88 256.9 13.89 332.66 13.85 332.63 13.87L332.63 13.87ZM231 13.87C222.32 5.95 212.14 1.77 200.42 0.64L102.13 0.64 102.13 13.87C102.13 13.88 231 13.87 231 13.87L231 13.87ZM1 13.85L90.53 13.85 90.53 0.65 1 0.65 1 13.85 1 13.85ZM375.66 38.62L461.01 38.62 461.01 25.48 380.29 25.48C380.32 25.49 375.66 38.62 375.66 38.62L375.66 38.62ZM256.88 38.64L341.43 38.64 336.8 25.48 256.88 25.48 256.88 38.64 256.88 38.64ZM102.15 38.62L244.74 38.62C244.74 33.53 242.73 29.82 241.03 25.48L102.15 25.48 102.15 38.62 102.15 38.62ZM1 38.62L90.53 38.62 90.53 25.48 1 25.48 1 38.62 1 38.62ZM435.7 50.27L371.62 50.25 366.94 63.45 435.71 63.42 435.71 50.27 435.7 50.27ZM282.09 63.45L350.21 63.45 345.54 50.25 282.09 50.25 282.09 63.45 282.09 63.45ZM245.87 50.25L204.94 50.25 204.94 63.46 243.98 63.46C245.31 59.49 245.87 54.77 245.87 50.25L245.87 50.25ZM64.43 50.31L25.95 50.31 25.95 63.45 64.43 63.45 64.43 50.31 64.43 50.31ZM128.06 50.25L128.06 63.45 166.47 63.45 166.47 50.25 128.06 50.25 128.06 50.25ZM435.68 87.72L435.68 74.58 363 74.58C362.99 74.55 358.69 86.84 358.67 86.83L354.19 74.58 282.08 74.58 282.08 87.72 319.92 87.72C319.93 87.7 319.92 77.71 319.92 77.71L323.4 87.7 394.51 87.72 398 77.71C398 77.71 398.02 87.7 398.02 87.72L435.68 87.72 435.68 87.72ZM238.33 74.57C238.33 74.57 238.33 74.57 238.33 74.58L238.33 74.58 238.33 74.57 238.33 74.57ZM128.05 87.72C128.05 87.74 227.39 87.72 227.39 87.72 231.54 84.33 235.91 78.98 238.33 74.58L128.06 74.58C128.06 74.6 128.05 87.7 128.05 87.72L128.05 87.72ZM25.95 87.72L64.43 87.72 64.43 74.58 25.95 74.58 25.95 87.72 25.95 87.72ZM435.68 99.35L398.02 99.35 398.02 112.49 435.68 112.49 435.68 99.35 435.68 99.35ZM282.09 99.35L282.09 112.49C282.07 112.48 319.94 112.49 319.94 112.49 319.94 112.48 319.98 99.35 319.93 99.35L282.09 99.35 282.09 99.35ZM332.19 112.51L385.83 112.49C386.01 112.48 390.25 99.33 390.42 99.35L327.48 99.35C327.47 99.33 332.15 112.49 332.19 112.51L332.19 112.51ZM239.02 112.49C235.81 107.77 231.72 103.12 227.2 99.35L128.05 99.35 128.05 112.49C128.05 112.49 239.2 112.48 239.02 112.49L239.02 112.49ZM64.43 99.35L26.02 99.35C26.02 99.35 26.03 112.49 26.02 112.49 26.01 112.49 64.41 112.49 64.43 112.49L64.43 99.35 64.43 99.35ZM398.02 137.26L435.67 137.26 435.67 124.12 398.02 124.12 398.02 137.26 398.02 137.26ZM282.08 137.26L319.92 137.26 319.92 124.12 282.08 124.12 282.08 137.26 282.08 137.26ZM340.82 137.27C340.82 137.27 377.02 137.38 377.03 137.33 377.04 137.27 381.67 124.12 381.75 124.13L336.15 124.13C336.06 124.12 340.82 137.27 340.82 137.27L340.82 137.27ZM167.04 137.27C167.08 137.27 167.04 124.12 167.04 124.12L128.06 124.12 128.06 137.26C128.05 137.25 167 137.27 167.04 137.27L167.04 137.27ZM205.64 124.12L205.64 137.32 246.95 137.32C246.57 132.79 246.39 128.08 244.5 124.12L205.64 124.12 205.64 124.12ZM26.02 137.26L64.43 137.26 64.43 124.12 26.02 124.12 26.02 137.26 26.02 137.26ZM398.02 161.53L461.01 161.53 461.01 148.39 398.02 148.39 398.02 161.53 398.02 161.53ZM256.88 161.53L319.93 161.53 319.93 148.39 256.88 148.39 256.88 161.53 256.88 161.53ZM349.32 161.53L368.55 161.53 373 148.39 344.71 148.39 349.32 161.53 349.32 161.53ZM90.46 148.39C90.5 148.39 0.89 148.38 1 148.38L1 161.52 90.46 161.52C90.5 161.55 90.42 148.39 90.46 148.39L90.46 148.39ZM102.15 161.52L239.15 161.52 240.33 161.53C243.5 158.01 244.36 152.72 245.3 148.39L102.15 148.39 102.15 161.52 102.15 161.52ZM358.06 186.33L359.83 186.33 364.44 173.16 353.56 173.16 358.06 186.33 358.06 186.33ZM398.02 186.36L461.01 186.36 461.01 173.16 398.02 173.16 398.02 186.36 398.02 186.36ZM102.13 186.33L102.15 186.34 198.35 186.37C211.17 186.18 223.08 181.5 231.76 173.21 231.39 173.21 102.14 173.19 102.14 173.19L102.14 186.33 102.13 186.33ZM256.88 186.36L319.93 186.36 319.93 173.16 256.88 173.16 256.88 186.36 256.88 186.36ZM1 173.18C1.02 173.18 0.98 186.33 1 186.36 1.03 186.39 90.5 186.34 90.46 186.34 90.42 186.34 90.46 173.23 90.46 173.23 90.42 173.26 0.97 173.18 1 173.18L1 173.18Z"></path>
  </g>
</svg>