  <svg xmlns="http://www.w3.org/2000/svg" viewBox="0 0 220 159.99" class="customers__logo">

  <path fill="#adadad" d="M81.17 78.43c0 5.63-0.59 8.44-4.67 8.44 -4.26 0-4.94-2.56-4.94-7.67V34.25H38.45v52.8c0 9.18 2.21 16.75 7.4 22.69 5.18 5.94 11.59 8.91 19.59 8.91 5.41 0 10.84-1.66 16.49-4.99 -3.11 11.77-10.09 17.66-20.57 17.66 -3.28 0-6.41-0.92-11.59-2.76 0 0-4.9-1.55-11.31-5.28 0 8.11 0 27.43 0 27.43s6.38 3.99 11.31 5.85c6.04 2.3 11.99 3.45 17.97 3.45 13.65 0 25.06-5.23 34.67-15.68 8.06-8.78 11.87-20.33 11.87-34.62V34.25H81.17V78.43zM156.23 0.4c-39.29 3.54-36.62 45.55-36.62 45.55s0 65.79 0 73.47c21.36 0 32.04-10.25 32.04-24.45 0-6.4 0-9.6 0-9.6h15.76V53.42H151.65v-4.28c0-4.99 1.32-8.84 3.54-11.54 2.17-2.64 5.34-3.98 9.29-4.04 2.64 0.03 7.48 0.9 8.46 4.7l0.07 0.3V71.88c0 12.23 2.31 22.05 7.26 29.46 3.91 5.8 9.02 10.39 15.5 13.78 6.48 3.39 13.29 5.07 20.6 5.07 0.81 0 2.27-0.02 3.63-0.08V86.27c-6.77 0-9.68-1.25-11.83-3.84 -2.16-2.58-3.2-7.7-3.2-14.09h11.53V34.25h-10.92c-2.06-12.78-9.73-32.04-38.2-34.18 0 0-3.37-0.13-6.01-0.03C159.3 0.11 156.23 0.4 156.23 0.4zM44.3 116.77l0.02 0.05c-3.68 2.26-8.01 3.82-11.21 4.65v0.17l-0.11-0.16c-1.96 0.43-3.9 0.67-5.77 0.67 -8.07 0-14.54-3-19.76-8.99C2.24 107.16 0 99.54 0 90.27V2.21h33.11v88.06c0 9.27 2.21 16.89 7.44 22.89C41.73 114.52 42.98 115.71 44.3 116.77z"></path>
</svg>