<?xml version="1.0" encoding="UTF-8"?>
<svg width="1444px" height="511px" viewBox="0 0 1444 511" version="1.1" xmlns="http://www.w3.org/2000/svg" xmlns:xlink="http://www.w3.org/1999/xlink">
    <!-- Generator: Sketch 43.2 (39069) - http://www.bohemiancoding.com/sketch -->
    <title>Combined Shape</title>
    <desc>Created with Sketch.</desc>
    <defs></defs>
    <g id="Subpages" stroke="none" stroke-width="1" fill="none" fill-rule="evenodd">
        <path d="M1125.90886,510 L1126.00923,510.561211 L982.213127,510.561211 L982.139601,510 L742.344514,510 L742.073629,510.561211 L634.664259,510.561211 L341.757911,510.561211 L341.856699,510 L113.376735,510 L113.278539,510.561211 L1,510.561211 L1,510 L0,510 L0,0 L1444,0 L1444,510 L1332.29759,510 L1332.20021,510.561211 L1181.2143,510.561211 L1181.31168,510 L1125.90886,510 Z M1125.90886,510 L1034.69871,0 L856.391534,0 L768.981102,164.646538 C796.619355,176.191607 816.041949,203.480003 816.041949,235.304789 C816.041949,277.57774 781.772951,311.846738 739.5,311.846738 C723.987424,311.846738 709.55267,307.232031 697.493642,299.30052 L649.472987,389.752361 L513.594258,389.752361 L581.897409,0 L431.630477,0 L423.657101,45.2963224 C384.924129,11.4416397 325.45116,0 264.983432,0 L52.8841747,0 L1,294.751203 L1,510 L113.376735,510 L143.475722,337.97714 L226.158483,337.97714 C291.871943,337.97714 341.237478,326.069602 377.628211,306.784013 L341.856699,510 L742.344514,510 L792.402267,406.291668 L968.552497,406.291668 L982.139601,510 L1125.90886,510 Z M1181.31168,510 L1332.29759,510 L1362.39739,336.538939 L1444,216.045619 L1444,-1.77635684e-15 L1427.10564,0 L1322.85346,173.303172 C1315.66366,185.527877 1308.47385,199.909883 1303.44099,215.010989 L1302.00303,215.010989 C1302.72201,199.909883 1300.56507,185.527877 1297.68914,173.303172 L1254.55031,0 L1102.84542,0 L1211.41148,336.538939 L1181.31168,510 Z M213.935814,237.303098 L161.450235,237.303098 L185.176593,104.269543 L237.662172,104.269543 C267.140373,104.269543 307.403283,110.022346 307.403283,159.640266 C307.403283,199.190782 282.238965,237.303098 213.935814,237.303098 Z M841.292943,305.617626 L894.497502,194.876181 C908.158132,166.831269 920.380801,142.381859 933.322451,104.269543 L934.760412,104.269543 C934.760412,142.381859 937.636334,174.022272 940.512256,194.876181 L954.891867,305.617626 L841.292943,305.617626 Z M739.987553,305.658569 C778.573605,305.658569 809.85378,274.378393 809.85378,235.792341 C809.85378,197.206289 778.573605,165.926113 739.987553,165.926113 C701.4015,165.926113 670.121325,197.206289 670.121325,235.792341 C670.121325,274.378393 701.4015,305.658569 739.987553,305.658569 Z M786.350866,236.100897 L709.080252,274.736204 L709.080252,197.46559 L786.350866,236.100897 Z" id="Combined-Shape" fill="#FFFFFF"></path>
    </g>
</svg>