<?xml version="1.0" encoding="UTF-8"?>
<svg width="1443px" height="511px" viewBox="0 0 1443 511" version="1.1" xmlns="http://www.w3.org/2000/svg" xmlns:xlink="http://www.w3.org/1999/xlink">
    <!-- Generator: Sketch 43.2 (39069) - http://www.bohemiancoding.com/sketch -->
    <title>Combined Shape</title>
    <desc>Created with Sketch.</desc>
    <defs></defs>
    <g id="Subpages" stroke="none" stroke-width="1" fill="none" fill-rule="evenodd">
        <path d="M-4.609646e-13,294.751203 L51.8841747,5.68434189e-14 L263.983432,5.68434189e-14 C324.45116,5.68434189e-14 383.924129,11.4416397 422.657101,45.2963224 L430.630477,5.68434189e-14 L580.897409,5.68434189e-14 L512.594258,389.752361 L648.472987,389.752361 L696.493642,299.30052 C708.55267,307.232031 722.987424,311.846738 738.5,311.846738 C780.772951,311.846738 815.041949,277.57774 815.041949,235.304789 C815.041949,203.480003 795.619355,176.191607 767.981102,164.646538 L855.391534,5.68434189e-14 L1033.69871,5.68434189e-14 L1125.00923,510.561211 L981.213127,510.561211 L967.552497,406.291668 L791.402267,406.291668 L741.073629,510.561211 L633.664259,510.561211 L340.757911,510.561211 L376.628202,306.784017 C340.237478,326.069602 290.871943,337.97714 225.158483,337.97714 L142.475722,337.97714 L112.278539,510.561211 L-4.52970994e-13,510.561211 L-4.54747351e-13,294.751203 Z M1443,-1.77635684e-15 L1443,216.045619 L1361.39739,336.538939 L1331.20021,510.561211 L1180.2143,510.561211 L1210.41148,336.538939 L1101.84542,5.68434189e-14 L1253.55031,5.68434189e-14 L1296.68914,173.303172 C1299.56507,185.527877 1301.72201,199.909883 1301.00303,215.010989 L1302.44099,215.010989 C1307.47385,199.909883 1314.66366,185.527877 1321.85346,173.303172 L1426.10564,5.68434189e-14 L1443,5.68434189e-14 Z M212.935814,237.303098 C281.238965,237.303098 306.403283,199.190782 306.403283,159.640266 C306.403283,110.022346 266.140373,104.269543 236.662172,104.269543 L184.176593,104.269543 L160.450235,237.303098 L212.935814,237.303098 Z M840.292943,305.617626 L953.891867,305.617626 L939.512256,194.876181 C936.636334,174.022272 933.760412,142.381859 933.760412,104.269543 L932.322451,104.269543 C919.380801,142.381859 907.158132,166.831269 893.497502,194.876181 L840.292943,305.617626 Z M738.987553,305.658569 C700.4015,305.658569 669.121325,274.378393 669.121325,235.792341 C669.121325,197.206289 700.4015,165.926113 738.987553,165.926113 C777.573605,165.926113 808.85378,197.206289 808.85378,235.792341 C808.85378,274.378393 777.573605,305.658569 738.987553,305.658569 Z M785.350866,236.100897 L708.080252,197.46559 L708.080252,274.736204 L785.350866,236.100897 Z" id="Combined-Shape" fill="#FFFFFF"></path>
    </g>
</svg>