<svg xmlns="http://www.w3.org/2000/svg" viewBox="0 0 460 375" class="customers__logo">
  <g fill="none">
    <path d="M459.98 45.14C443.06 52.65 424.87 57.72 405.78 60 425.26 48.32 440.23 29.83 447.27 7.79 429.04 18.6 408.84 26.46 387.35 30.69 370.14 12.35 345.61 0.89 318.47 0.89 266.36 0.89 224.1 43.14 224.1 95.25 224.1 102.65 224.93 109.85 226.54 116.76 148.11 112.82 78.58 75.26 32.04 18.16 23.92 32.1 19.26 48.31 19.26 65.6 19.26 98.34 35.92 127.22 61.24 144.15 45.77 143.66 31.22 139.41 18.5 132.35 18.49 132.75 18.49 133.14 18.49 133.54 18.49 179.26 51.02 217.4 94.19 226.07 86.27 228.23 77.94 229.38 69.33 229.38 63.25 229.38 57.34 228.79 51.58 227.69 63.59 265.18 98.44 292.46 139.73 293.22 107.43 318.53 66.75 333.62 22.53 333.62 14.91 333.62 7.4 333.17 0.02 332.3 41.78 359.08 91.39 374.7 144.68 374.7 318.25 374.7 413.17 230.91 413.17 106.2 413.17 102.11 413.08 98.04 412.9 93.99 431.33 80.68 447.33 64.06 459.98 45.14L459.98 45.14Z" fill="#adadad"></path>
  </g>
</svg>