<svg width="361px" height="74px" viewBox="0 0 361 74" version="1.1" xmlns="http://www.w3.org/2000/svg" xmlns:xlink="http://www.w3.org/1999/xlink" class="customers__logo">
    <title>Wirecard</title>
    <desc>Created with Sketch.</desc>
    <defs></defs>
    <g id="Page-1" stroke="none" stroke-width="1" fill="none" fill-rule="evenodd">
        <g id="Artboard" fill="#adadad">
            <g id="wirecard">
                <path d="M79.4,6.6 L79.4,12.6 L85.2,12.6 L91,12.6 L91,6.6 L91,0.6 L85.2,0.6 L79.4,0.6 L79.4,6.6 M349.267,0.867 C349.12,1.013 349,6.722 349,13.552 L349,25.97 L347.9,24.698 C339.664,15.175 321.326,17.268 313.714,28.6 C313.068,29.562 313.041,29.397 313.021,24.318 L313,19.036 L311.553,18.765 C305.896,17.704 298.923,20.891 294.937,26.36 L293.8,27.92 L293.8,24.049 L293.8,20.178 L288.1,20.289 L282.4,20.4 L282.297,46.1 L282.194,71.8 L288.197,71.8 L294.2,71.8 L294.208,59.3 C294.212,52.425 294.39,45.599 294.602,44.131 C295.965,34.706 301.769,29.504 309.943,30.379 L312.588,30.662 L312.009,31.783 C306.93,41.604 309.353,59.412 316.78,66.851 C325.13,75.213 341.335,75.528 348.437,67.465 L349.375,66.4 L349.387,69.1 L349.4,71.8 L355.2,71.8 L361,71.8 L361,36.2 L361,0.6 L355.267,0.6 C352.113,0.6 349.413,0.72 349.267,0.867 M119.705,19.377 C115.518,20.715 111.337,24.096 109.66,27.499 C109.03,28.777 109.018,28.722 109.009,24.5 L109,20.2 L103.4,20.2 L97.8,20.2 L97.8,46 L97.8,71.8 L103.558,71.8 L109.317,71.8 L109.502,57.7 C109.707,42.047 109.896,40.655 112.366,36.6 C115.143,32.039 119.512,29.894 125.078,30.358 L128.2,30.619 L128.2,24.856 C128.2,19.218 128.181,19.088 127.3,18.852 C125.597,18.396 121.996,18.644 119.705,19.377 M145.539,19.038 C128.486,21.887 119.552,43.915 128.47,61.12 C137.933,79.376 170.244,76.07 173.63,56.5 L173.889,55 L168.313,55 L162.737,55 L161.788,57.026 C156.502,68.312 138.43,64.338 137.115,51.601 L136.888,49.4 L155.744,49.4 L174.6,49.4 L174.593,45.3 C174.564,28.075 161.597,16.355 145.539,19.038 M198,18.858 C188.599,20.373 179.398,27.795 178.401,34.669 C178.327,35.181 177.961,36.95 177.587,38.6 C174.579,51.878 179.727,65.742 189.429,70.493 C205.175,78.204 223.391,69.827 225.249,54.021 L225.513,51.778 L219.58,51.889 L213.647,52 L212.989,54.2 C210.516,62.468 203.635,65.792 196.383,62.221 C185.09,56.662 186.146,33.071 197.861,29.18 C204.346,27.026 211.402,30.264 212.978,36.117 L213.431,37.8 L219.415,37.8 L225.4,37.8 L225.4,36.436 C225.4,25.605 211.495,16.685 198,18.858 M247.616,19.018 C237.675,20.58 231.633,25.465 230.002,33.259 C229.267,36.771 228.974,36.6 235.741,36.6 L241.634,36.6 L242.137,34.719 C244.453,26.06 262.592,26.421 262.599,35.126 C262.602,39.138 261.439,39.703 249.722,41.386 C232.688,43.833 227.8,47.531 227.8,57.97 C227.8,71.896 246.003,78.288 260.573,69.477 L263.135,67.929 L263.994,69.554 C265.755,72.884 270.859,74.069 277.3,72.644 L279.8,72.091 L279.8,67.738 L279.8,63.385 L277.778,63.457 C274.238,63.582 274.429,64.517 274.2,45.886 L274,29.6 L272.919,27.551 C269.446,20.967 258.565,17.297 247.616,19.018 M0.59,20.5 C0.584,20.665 4.139,32.272 8.49,46.294 L16.4,71.789 L22.606,71.794 L28.812,71.8 L33.397,53.412 C35.919,43.299 38.1,35.244 38.244,35.512 C38.388,35.78 40.535,44.055 43.015,53.9 L47.525,71.8 L53.562,71.795 L59.6,71.79 L67.5,46.679 C71.845,32.868 75.4,21.255 75.4,20.873 C75.4,20.24 74.878,20.188 69.513,20.289 L63.626,20.4 L58.616,38.7 C55.86,48.765 53.51,57 53.392,57 C53.275,57 51.188,48.765 48.755,38.7 L44.331,20.4 L38.366,20.293 L32.4,20.186 L27.85,38.293 C25.348,48.252 23.187,56.614 23.048,56.876 C22.909,57.138 20.824,49.848 18.414,40.676 C16.004,31.504 13.787,23.145 13.486,22.1 L12.94,20.2 L6.77,20.2 C3.376,20.2 0.595,20.335 0.59,20.5 M79.4,46 L79.4,71.8 L85.2,71.8 L91,71.8 L91,46 L91,20.2 L85.2,20.2 L79.4,20.2 L79.4,46 M155.311,29.819 C159.007,31.666 161.649,35.265 162.417,39.5 L162.689,41 L149.793,41 L136.898,41 L137.157,39.378 C138.492,31.028 147.86,26.095 155.311,29.819 M339.943,29.242 C352.003,33.352 352.278,58.121 340.314,62.598 C330.324,66.336 321.592,58.669 321.64,46.2 C321.689,33.544 329.991,25.851 339.943,29.242 M262.198,51.1 C262.197,53.355 262.007,55.88 261.776,56.711 C259.351,65.442 239.901,65.731 240.028,57.034 C240.101,52.054 243.164,50.215 253.771,48.781 C256.505,48.411 259.385,47.872 260.171,47.583 C260.957,47.293 261.735,47.044 261.9,47.028 C262.065,47.013 262.199,48.845 262.198,51.1" id="path0"></path>
                <path d="M79.4,6.8 L79.4,12.6 L85.2,12.6 L91,12.6 L91,6.8 L91,1 L85.2,1 L79.4,1 L79.4,6.8 M349.267,1.267 C349.12,1.413 349,7.018 349,13.721 L349,25.909 L346.981,24.021 C338.252,15.856 321.577,17.729 314.756,27.64 L313.2,29.9 L313.089,24.45 L312.977,19 L309.404,19 C303.62,19 298.269,21.748 295.143,26.322 L293.83,28.245 L293.715,24.322 L293.6,20.4 L288,20.4 L282.4,20.4 L282.297,46.1 L282.194,71.8 L288.162,71.8 L294.131,71.8 L294.292,57.5 C294.443,44.098 294.508,43.033 295.331,40.539 C297.676,33.427 302.77,29.763 309.526,30.329 C312.904,30.612 312.788,30.495 311.851,32.68 C307.252,43.409 309.614,59.522 316.846,66.754 C325.406,75.315 342.18,75.491 348.7,67.089 L349.8,65.671 L349.8,68.736 L349.8,71.8 L355.4,71.8 L361,71.8 L361,36.4 L361,1 L355.267,1 C352.113,1 349.413,1.12 349.267,1.267 M118.925,19.77 C115.297,21.189 110.437,25.389 109.53,27.89 C109.304,28.512 109.137,27.471 109,24.6 L108.8,20.4 L103.3,20.289 L97.8,20.177 L97.8,45.989 L97.8,71.8 L103.558,71.8 L109.317,71.8 L109.502,57.7 C109.707,42.047 109.896,40.655 112.366,36.6 C115.143,32.039 119.512,29.894 125.078,30.358 L128.2,30.619 L128.2,24.809 L128.2,19 L124.5,19.019 C121.898,19.032 120.244,19.255 118.925,19.77 M143.658,19.634 C127.83,23.465 120.016,44.81 128.47,61.12 C137.894,79.3 169.776,76.178 173.608,56.7 L173.864,55.4 L168.332,55.401 L162.8,55.402 L161.646,57.61 C155.99,68.434 138.783,64.397 137.067,51.843 L136.732,49.4 L155.666,49.4 L174.6,49.4 L174.593,45.5 C174.561,27.567 160.266,15.613 143.658,19.634 M194.681,19.809 C182.369,23.034 175.406,35.084 177.003,50.4 C178.503,64.792 187.611,73.147 201.8,73.147 C214.624,73.147 223.694,65.84 225.228,54.274 L225.503,52.2 L219.639,52.2 C215.297,52.2 213.735,52.33 213.62,52.7 C213.535,52.975 213.17,54.19 212.809,55.4 C210.748,62.301 203.424,65.59 196.709,62.631 C185.123,57.524 185.961,33.132 197.859,29.18 C204.79,26.878 213.318,31.226 213.391,37.1 C213.399,37.735 213.956,37.8 219.4,37.8 L225.4,37.8 L225.4,36.642 C225.4,24.596 209.553,15.913 194.681,19.809 M245.2,19.645 C236.85,21.374 230.782,27.208 229.957,34.3 L229.69,36.6 L235.662,36.6 L241.634,36.6 L242.137,34.719 C244.604,25.497 264.368,26.815 262.861,36.101 C262.339,39.318 260.457,40.106 249.784,41.578 C233.746,43.789 228.825,47.138 227.961,56.432 C226.595,71.125 245.422,78.639 260.603,69.459 L263.194,67.892 L264.003,69.334 C266.077,73.03 270.487,74.054 277.713,72.517 L279.826,72.067 L279.713,67.833 L279.6,63.6 L277.8,63.723 C274.229,63.968 274.428,64.929 274.2,46.333 C273.973,27.803 274.004,27.983 270.391,24.37 C265.773,19.752 254.706,17.676 245.2,19.645 M0.59,20.5 C0.584,20.665 4.139,32.272 8.49,46.294 L16.4,71.789 L22.606,71.794 L28.812,71.8 L33.397,53.412 C35.919,43.299 38.1,35.244 38.244,35.512 C38.388,35.78 40.535,44.055 43.015,53.9 L47.525,71.8 L53.562,71.795 L59.6,71.79 L67.5,46.679 C71.845,32.868 75.4,21.26 75.4,20.884 C75.4,20.27 74.806,20.2 69.615,20.2 L63.831,20.2 L63.278,22.1 C62.973,23.145 60.671,31.515 58.162,40.699 C55.653,49.884 53.507,57.399 53.393,57.399 C53.279,57.4 51.33,49.705 49.061,40.3 C46.793,30.895 44.763,22.52 44.55,21.689 L44.163,20.179 L38.322,20.289 L32.48,20.4 L27.797,38.91 C25.221,49.09 23.041,57.492 22.952,57.581 C22.864,57.67 20.918,50.6 18.63,41.871 C16.341,33.142 14.117,24.695 13.688,23.1 L12.908,20.2 L6.754,20.2 C3.369,20.2 0.595,20.335 0.59,20.5 M79.4,46 L79.4,71.8 L85.2,71.8 L91,71.8 L91,46 L91,20.2 L85.2,20.2 L79.4,20.2 L79.4,46 M155.311,29.819 C159.09,31.707 161.749,35.397 162.432,39.7 L162.702,41.4 L149.797,41.4 L136.891,41.4 L137.136,39.617 C138.296,31.154 147.766,26.048 155.311,29.819 M341.204,29.738 C352.358,35.015 352.081,57.571 340.8,62.663 C334.045,65.713 325.744,62.043 323.038,54.81 C317.186,39.169 328.406,23.683 341.204,29.738 M262.191,51.7 C262.184,55.451 262.029,56.738 261.422,58.075 C257.852,65.937 239.945,65.247 240.02,57.25 C240.069,52.053 243.023,50.234 253.771,48.781 C256.505,48.411 259.385,47.872 260.171,47.583 C260.957,47.293 261.735,47.044 261.9,47.028 C262.065,47.013 262.196,49.115 262.191,51.7" id="path1"></path>
                <path d="M79.4,6.8 L79.4,12.6 L85.2,12.6 L91,12.6 L91,6.8 L91,1 L85.2,1 L79.4,1 L79.4,6.8 M349.267,1.267 C349.12,1.413 349,7.018 349,13.721 L349,25.909 L346.981,24.021 C338.252,15.856 321.577,17.729 314.756,27.64 L313.2,29.9 L313.089,24.45 L312.977,19 L309.404,19 C303.62,19 298.269,21.748 295.143,26.322 L293.83,28.245 L293.715,24.322 L293.6,20.4 L288,20.4 L282.4,20.4 L282.297,46.1 L282.194,71.8 L288.162,71.8 L294.131,71.8 L294.292,57.5 C294.443,44.098 294.508,43.033 295.331,40.539 C297.676,33.427 302.77,29.763 309.526,30.329 C312.904,30.612 312.788,30.495 311.851,32.68 C307.252,43.409 309.614,59.522 316.846,66.754 C325.406,75.315 342.18,75.491 348.7,67.089 L349.8,65.671 L349.8,68.736 L349.8,71.8 L355.4,71.8 L361,71.8 L361,36.4 L361,1 L355.267,1 C352.113,1 349.413,1.12 349.267,1.267 M118.925,19.77 C115.297,21.189 110.437,25.389 109.53,27.89 C109.304,28.512 109.137,27.471 109,24.6 L108.8,20.4 L103.3,20.289 L97.8,20.177 L97.8,45.989 L97.8,71.8 L103.558,71.8 L109.317,71.8 L109.502,57.7 C109.707,42.047 109.896,40.655 112.366,36.6 C115.143,32.039 119.512,29.894 125.078,30.358 L128.2,30.619 L128.2,24.809 L128.2,19 L124.5,19.019 C121.898,19.032 120.244,19.255 118.925,19.77 M143.658,19.634 C127.83,23.465 120.016,44.81 128.47,61.12 C137.894,79.3 169.776,76.178 173.608,56.7 L173.864,55.4 L168.332,55.401 L162.8,55.402 L161.646,57.61 C155.99,68.434 138.783,64.397 137.067,51.843 L136.732,49.4 L155.666,49.4 L174.6,49.4 L174.593,45.5 C174.561,27.567 160.266,15.613 143.658,19.634 M194.681,19.809 C182.369,23.034 175.406,35.084 177.003,50.4 C178.503,64.792 187.611,73.147 201.8,73.147 C214.624,73.147 223.694,65.84 225.228,54.274 L225.503,52.2 L219.639,52.2 C215.297,52.2 213.735,52.33 213.62,52.7 C213.535,52.975 213.17,54.19 212.809,55.4 C210.748,62.301 203.424,65.59 196.709,62.631 C185.123,57.524 185.961,33.132 197.859,29.18 C204.79,26.878 213.318,31.226 213.391,37.1 C213.399,37.735 213.956,37.8 219.4,37.8 L225.4,37.8 L225.4,36.642 C225.4,24.596 209.553,15.913 194.681,19.809 M245.2,19.645 C236.85,21.374 230.782,27.208 229.957,34.3 L229.69,36.6 L235.662,36.6 L241.634,36.6 L242.137,34.719 C244.604,25.497 264.368,26.815 262.861,36.101 C262.339,39.318 260.457,40.106 249.784,41.578 C233.746,43.789 228.825,47.138 227.961,56.432 C226.595,71.125 245.422,78.639 260.603,69.459 L263.194,67.892 L264.003,69.334 C266.077,73.03 270.487,74.054 277.713,72.517 L279.826,72.067 L279.713,67.833 L279.6,63.6 L277.8,63.723 C274.229,63.968 274.428,64.929 274.2,46.333 C273.973,27.803 274.004,27.983 270.391,24.37 C265.773,19.752 254.706,17.676 245.2,19.645 M0.59,20.5 C0.584,20.665 4.139,32.272 8.49,46.294 L16.4,71.789 L22.606,71.794 L28.812,71.8 L33.397,53.412 C35.919,43.299 38.1,35.244 38.244,35.512 C38.388,35.78 40.535,44.055 43.015,53.9 L47.525,71.8 L53.562,71.795 L59.6,71.79 L67.5,46.679 C71.845,32.868 75.4,21.26 75.4,20.884 C75.4,20.27 74.806,20.2 69.615,20.2 L63.831,20.2 L63.278,22.1 C62.973,23.145 60.671,31.515 58.162,40.699 C55.653,49.884 53.507,57.399 53.393,57.399 C53.279,57.4 51.33,49.705 49.061,40.3 C46.793,30.895 44.763,22.52 44.55,21.689 L44.163,20.179 L38.322,20.289 L32.48,20.4 L27.797,38.91 C25.221,49.09 23.041,57.492 22.952,57.581 C22.864,57.67 20.918,50.6 18.63,41.871 C16.341,33.142 14.117,24.695 13.688,23.1 L12.908,20.2 L6.754,20.2 C3.369,20.2 0.595,20.335 0.59,20.5 M79.4,46 L79.4,71.8 L85.2,71.8 L91,71.8 L91,46 L91,20.2 L85.2,20.2 L79.4,20.2 L79.4,46 M155.311,29.819 C159.09,31.707 161.749,35.397 162.432,39.7 L162.702,41.4 L149.797,41.4 L136.891,41.4 L137.136,39.617 C138.296,31.154 147.766,26.048 155.311,29.819 M341.204,29.738 C352.358,35.015 352.081,57.571 340.8,62.663 C334.045,65.713 325.744,62.043 323.038,54.81 C317.186,39.169 328.406,23.683 341.204,29.738 M262.191,51.7 C262.184,55.451 262.029,56.738 261.422,58.075 C257.852,65.937 239.945,65.247 240.02,57.25 C240.069,52.053 243.023,50.234 253.771,48.781 C256.505,48.411 259.385,47.872 260.171,47.583 C260.957,47.293 261.735,47.044 261.9,47.028 C262.065,47.013 262.196,49.115 262.191,51.7" id="path2"></path>
                <path d="M79.4,6.8 L79.4,12.6 L85.2,12.6 L91,12.6 L91,6.8 L91,1 L85.2,1 L79.4,1 L79.4,6.8 M349.267,1.267 C349.12,1.413 349,7.018 349,13.721 L349,25.909 L346.981,24.021 C338.252,15.856 321.577,17.729 314.756,27.64 L313.2,29.9 L313.089,24.45 L312.977,19 L309.404,19 C303.62,19 298.269,21.748 295.143,26.322 L293.83,28.245 L293.715,24.322 L293.6,20.4 L288,20.4 L282.4,20.4 L282.297,46.1 L282.194,71.8 L288.162,71.8 L294.131,71.8 L294.292,57.5 C294.443,44.098 294.508,43.033 295.331,40.539 C297.676,33.427 302.77,29.763 309.526,30.329 C312.904,30.612 312.788,30.495 311.851,32.68 C307.252,43.409 309.614,59.522 316.846,66.754 C325.406,75.315 342.18,75.491 348.7,67.089 L349.8,65.671 L349.8,68.736 L349.8,71.8 L355.4,71.8 L361,71.8 L361,36.4 L361,1 L355.267,1 C352.113,1 349.413,1.12 349.267,1.267 M118.925,19.77 C115.297,21.189 110.437,25.389 109.53,27.89 C109.304,28.512 109.137,27.471 109,24.6 L108.8,20.4 L103.3,20.289 L97.8,20.177 L97.8,45.989 L97.8,71.8 L103.558,71.8 L109.317,71.8 L109.502,57.7 C109.707,42.047 109.896,40.655 112.366,36.6 C115.143,32.039 119.512,29.894 125.078,30.358 L128.2,30.619 L128.2,24.809 L128.2,19 L124.5,19.019 C121.898,19.032 120.244,19.255 118.925,19.77 M143.658,19.634 C127.83,23.465 120.016,44.81 128.47,61.12 C137.894,79.3 169.776,76.178 173.608,56.7 L173.864,55.4 L168.332,55.401 L162.8,55.402 L161.646,57.61 C155.99,68.434 138.783,64.397 137.067,51.843 L136.732,49.4 L155.666,49.4 L174.6,49.4 L174.593,45.5 C174.561,27.567 160.266,15.613 143.658,19.634 M194.681,19.809 C182.369,23.034 175.406,35.084 177.003,50.4 C178.503,64.792 187.611,73.147 201.8,73.147 C214.624,73.147 223.694,65.84 225.228,54.274 L225.503,52.2 L219.639,52.2 C215.297,52.2 213.735,52.33 213.62,52.7 C213.535,52.975 213.17,54.19 212.809,55.4 C210.748,62.301 203.424,65.59 196.709,62.631 C185.123,57.524 185.961,33.132 197.859,29.18 C204.79,26.878 213.318,31.226 213.391,37.1 C213.399,37.735 213.956,37.8 219.4,37.8 L225.4,37.8 L225.4,36.642 C225.4,24.596 209.553,15.913 194.681,19.809 M245.2,19.645 C236.85,21.374 230.782,27.208 229.957,34.3 L229.69,36.6 L235.662,36.6 L241.634,36.6 L242.137,34.719 C244.604,25.497 264.368,26.815 262.861,36.101 C262.339,39.318 260.457,40.106 249.784,41.578 C233.746,43.789 228.825,47.138 227.961,56.432 C226.595,71.125 245.422,78.639 260.603,69.459 L263.194,67.892 L264.003,69.334 C266.077,73.03 270.487,74.054 277.713,72.517 L279.826,72.067 L279.713,67.833 L279.6,63.6 L277.8,63.723 C274.229,63.968 274.428,64.929 274.2,46.333 C273.973,27.803 274.004,27.983 270.391,24.37 C265.773,19.752 254.706,17.676 245.2,19.645 M0.59,20.5 C0.584,20.665 4.139,32.272 8.49,46.294 L16.4,71.789 L22.606,71.794 L28.812,71.8 L33.397,53.412 C35.919,43.299 38.1,35.244 38.244,35.512 C38.388,35.78 40.535,44.055 43.015,53.9 L47.525,71.8 L53.562,71.795 L59.6,71.79 L67.5,46.679 C71.845,32.868 75.4,21.26 75.4,20.884 C75.4,20.27 74.806,20.2 69.615,20.2 L63.831,20.2 L63.278,22.1 C62.973,23.145 60.671,31.515 58.162,40.699 C55.653,49.884 53.507,57.399 53.393,57.399 C53.279,57.4 51.33,49.705 49.061,40.3 C46.793,30.895 44.763,22.52 44.55,21.689 L44.163,20.179 L38.322,20.289 L32.48,20.4 L27.797,38.91 C25.221,49.09 23.041,57.492 22.952,57.581 C22.864,57.67 20.918,50.6 18.63,41.871 C16.341,33.142 14.117,24.695 13.688,23.1 L12.908,20.2 L6.754,20.2 C3.369,20.2 0.595,20.335 0.59,20.5 M79.4,46 L79.4,71.8 L85.2,71.8 L91,71.8 L91,46 L91,20.2 L85.2,20.2 L79.4,20.2 L79.4,46 M155.311,29.819 C159.09,31.707 161.749,35.397 162.432,39.7 L162.702,41.4 L149.797,41.4 L136.891,41.4 L137.136,39.617 C138.296,31.154 147.766,26.048 155.311,29.819 M341.204,29.738 C352.358,35.015 352.081,57.571 340.8,62.663 C334.045,65.713 325.744,62.043 323.038,54.81 C317.186,39.169 328.406,23.683 341.204,29.738 M262.191,51.7 C262.184,55.451 262.029,56.738 261.422,58.075 C257.852,65.937 239.945,65.247 240.02,57.25 C240.069,52.053 243.023,50.234 253.771,48.781 C256.505,48.411 259.385,47.872 260.171,47.583 C260.957,47.293 261.735,47.044 261.9,47.028 C262.065,47.013 262.196,49.115 262.191,51.7" id="path3"></path>
                <path d="M79.4,6.8 L79.4,12.6 L85.2,12.6 L91,12.6 L91,6.8 L91,1 L85.2,1 L79.4,1 L79.4,6.8 M349.267,1.267 C349.12,1.413 349,7.018 349,13.721 L349,25.909 L346.981,24.021 C338.252,15.856 321.577,17.729 314.756,27.64 L313.2,29.9 L313.089,24.45 L312.977,19 L309.404,19 C303.62,19 298.269,21.748 295.143,26.322 L293.83,28.245 L293.715,24.322 L293.6,20.4 L288,20.4 L282.4,20.4 L282.297,46.1 L282.194,71.8 L288.162,71.8 L294.131,71.8 L294.292,57.5 C294.443,44.098 294.508,43.033 295.331,40.539 C297.676,33.427 302.77,29.763 309.526,30.329 C312.904,30.612 312.788,30.495 311.851,32.68 C307.252,43.409 309.614,59.522 316.846,66.754 C325.406,75.315 342.18,75.491 348.7,67.089 L349.8,65.671 L349.8,68.736 L349.8,71.8 L355.4,71.8 L361,71.8 L361,36.4 L361,1 L355.267,1 C352.113,1 349.413,1.12 349.267,1.267 M118.925,19.77 C115.297,21.189 110.437,25.389 109.53,27.89 C109.304,28.512 109.137,27.471 109,24.6 L108.8,20.4 L103.3,20.289 L97.8,20.177 L97.8,45.989 L97.8,71.8 L103.558,71.8 L109.317,71.8 L109.502,57.7 C109.707,42.047 109.896,40.655 112.366,36.6 C115.143,32.039 119.512,29.894 125.078,30.358 L128.2,30.619 L128.2,24.809 L128.2,19 L124.5,19.019 C121.898,19.032 120.244,19.255 118.925,19.77 M143.658,19.634 C127.83,23.465 120.016,44.81 128.47,61.12 C137.894,79.3 169.776,76.178 173.608,56.7 L173.864,55.4 L168.332,55.401 L162.8,55.402 L161.646,57.61 C155.99,68.434 138.783,64.397 137.067,51.843 L136.732,49.4 L155.666,49.4 L174.6,49.4 L174.593,45.5 C174.561,27.567 160.266,15.613 143.658,19.634 M194.681,19.809 C182.369,23.034 175.406,35.084 177.003,50.4 C178.503,64.792 187.611,73.147 201.8,73.147 C214.624,73.147 223.694,65.84 225.228,54.274 L225.503,52.2 L219.639,52.2 C215.297,52.2 213.735,52.33 213.62,52.7 C213.535,52.975 213.17,54.19 212.809,55.4 C210.748,62.301 203.424,65.59 196.709,62.631 C185.123,57.524 185.961,33.132 197.859,29.18 C204.79,26.878 213.318,31.226 213.391,37.1 C213.399,37.735 213.956,37.8 219.4,37.8 L225.4,37.8 L225.4,36.642 C225.4,24.596 209.553,15.913 194.681,19.809 M245.2,19.645 C236.85,21.374 230.782,27.208 229.957,34.3 L229.69,36.6 L235.662,36.6 L241.634,36.6 L242.137,34.719 C244.604,25.497 264.368,26.815 262.861,36.101 C262.339,39.318 260.457,40.106 249.784,41.578 C233.746,43.789 228.825,47.138 227.961,56.432 C226.595,71.125 245.422,78.639 260.603,69.459 L263.194,67.892 L264.003,69.334 C266.077,73.03 270.487,74.054 277.713,72.517 L279.826,72.067 L279.713,67.833 L279.6,63.6 L277.8,63.723 C274.229,63.968 274.428,64.929 274.2,46.333 C273.973,27.803 274.004,27.983 270.391,24.37 C265.773,19.752 254.706,17.676 245.2,19.645 M0.59,20.5 C0.584,20.665 4.139,32.272 8.49,46.294 L16.4,71.789 L22.606,71.794 L28.812,71.8 L33.397,53.412 C35.919,43.299 38.1,35.244 38.244,35.512 C38.388,35.78 40.535,44.055 43.015,53.9 L47.525,71.8 L53.562,71.795 L59.6,71.79 L67.5,46.679 C71.845,32.868 75.4,21.26 75.4,20.884 C75.4,20.27 74.806,20.2 69.615,20.2 L63.831,20.2 L63.278,22.1 C62.973,23.145 60.671,31.515 58.162,40.699 C55.653,49.884 53.507,57.399 53.393,57.399 C53.279,57.4 51.33,49.705 49.061,40.3 C46.793,30.895 44.763,22.52 44.55,21.689 L44.163,20.179 L38.322,20.289 L32.48,20.4 L27.797,38.91 C25.221,49.09 23.041,57.492 22.952,57.581 C22.864,57.67 20.918,50.6 18.63,41.871 C16.341,33.142 14.117,24.695 13.688,23.1 L12.908,20.2 L6.754,20.2 C3.369,20.2 0.595,20.335 0.59,20.5 M79.4,46 L79.4,71.8 L85.2,71.8 L91,71.8 L91,46 L91,20.2 L85.2,20.2 L79.4,20.2 L79.4,46 M155.311,29.819 C159.09,31.707 161.749,35.397 162.432,39.7 L162.702,41.4 L149.797,41.4 L136.891,41.4 L137.136,39.617 C138.296,31.154 147.766,26.048 155.311,29.819 M341.204,29.738 C352.358,35.015 352.081,57.571 340.8,62.663 C334.045,65.713 325.744,62.043 323.038,54.81 C317.186,39.169 328.406,23.683 341.204,29.738 M262.191,51.7 C262.184,55.451 262.029,56.738 261.422,58.075 C257.852,65.937 239.945,65.247 240.02,57.25 C240.069,52.053 243.023,50.234 253.771,48.781 C256.505,48.411 259.385,47.872 260.171,47.583 C260.957,47.293 261.735,47.044 261.9,47.028 C262.065,47.013 262.196,49.115 262.191,51.7" id="path4"></path>
            </g>
        </g>
    </g>
</svg>