<?xml version="1.0" standalone="no"?>
<!DOCTYPE svg PUBLIC "-//W3C//DTD SVG 20010904//EN"
 "http://www.w3.org/TR/2001/REC-SVG-20010904/DTD/svg10.dtd">
<svg version="1.0" xmlns="http://www.w3.org/2000/svg"
 width="700.000000pt" height="700.000000pt" viewBox="0 0 700.000000 700.000000"
 preserveAspectRatio="xMidYMid meet">
<metadata>
Created by potrace 1.11, written by Peter Selinger 2001-2013
</metadata>
<g transform="translate(0.000000,700.000000) scale(0.100000,-0.100000)"
fill="#000000" stroke="none">
<path d="M0 3500 l0 -3500 3500 0 3500 0 0 3500 0 3500 -3500 0 -3500 0 0
-3500z m3670 2619 c56 -25 86 -53 111 -101 73 -142 -16 -313 -174 -334 -63 -9
-127 11 -178 54 -53 46 -79 101 -79 172 0 168 168 278 320 209z m-2188 -1549
c81 -26 148 -123 148 -214 -1 -128 -102 -228 -230 -228 -174 0 -283 179 -202
332 55 105 164 147 284 110z m4200 0 c81 -26 148 -123 148 -214 -1 -128 -102
-228 -230 -228 -174 0 -283 179 -202 332 55 105 164 147 284 110z m-2014 -936
c148 -61 185 -258 71 -373 -92 -92 -241 -89 -331 6 -80 84 -77 232 8 317 62
62 171 84 252 50z m-1537 -1102 c178 -93 150 -361 -44 -417 -196 -57 -360 143
-267 325 58 113 194 153 311 92z m2937 12 c101 -42 158 -156 132 -263 -42
-177 -261 -237 -387 -105 -138 143 -35 384 163 384 30 0 71 -7 92 -16z m-1373
-1259 c75 -44 124 -144 111 -228 -36 -226 -342 -269 -437 -62 -24 52 -24 138
0 191 21 46 82 102 132 121 52 20 141 10 194 -22z"/>
</g>
</svg>
