<?xml version="1.0" encoding="UTF-8"?>
<svg width="1190px" height="1684px" viewBox="0 0 1190 1684" version="1.1" xmlns="http://www.w3.org/2000/svg" xmlns:xlink="http://www.w3.org/1999/xlink" style="background: #0C0E53;">
    <!-- Generator: Sketch 44 (41411) - http://www.bohemiancoding.com/sketch -->
    <title>A2 Copy 72</title>
    <desc>Created with Sketch.</desc>
    <defs></defs>
    <g id="Page-1" stroke="none" stroke-width="1" fill="none" fill-rule="evenodd">
        <g id="A2-Copy-72">
            <rect id="Rectangle-3-Copy" fill="#212121" style="mix-blend-mode: lighten;" x="847" y="84" width="264" height="264"></rect>
            <rect id="Rectangle-3-Copy-2" fill="#12566A" x="759" y="174" width="264" height="264"></rect>
            <rect id="Rectangle-3-Copy-3" fill="#177B77" x="669" y="264" width="264" height="264"></rect>
            <rect id="Rectangle-3-Copy-4" fill="#1A9F82" x="577" y="354" width="264" height="264"></rect>
            <rect id="Rectangle-3-Copy-5" fill="#1DC38E" x="487" y="444" width="264" height="264"></rect>
            <rect id="Rectangle-3-Copy-6" fill="#21E699" x="397" y="534" width="264" height="264"></rect>
            <rect id="Rectangle-3-Copy-7" fill="#24FFA2" x="308" y="622" width="264" height="264"></rect>
            <rect id="Rectangle-3-Copy-9" fill="#0F325F" transform="translate(-93.000000, 658.000000) scale(-1, 1) translate(93.000000, -658.000000) " x="-225" y="526" width="264" height="264"></rect>
            <rect id="Rectangle-3-Copy-10" fill="#12566A" transform="translate(-3.000000, 748.000000) scale(-1, 1) translate(3.000000, -748.000000) " x="-135" y="616" width="264" height="264"></rect>
            <rect id="Rectangle-3-Copy-11" fill="#177B77" transform="translate(87.000000, 838.000000) scale(-1, 1) translate(-87.000000, -838.000000) " x="-45" y="706" width="264" height="264"></rect>
            <rect id="Rectangle-3-Copy-12" fill="#1A9F82" transform="translate(176.000000, 928.000000) scale(-1, 1) translate(-176.000000, -928.000000) " x="44" y="796" width="264" height="264"></rect>
            <rect id="Rectangle-3-Copy-13" fill="#1DC38E" transform="translate(267.000000, 1018.000000) scale(-1, 1) translate(-267.000000, -1018.000000) " x="135" y="886" width="264" height="264"></rect>
            <rect id="Rectangle-3-Copy-14" fill="#21E699" transform="translate(357.000000, 1108.000000) scale(-1, 1) translate(-357.000000, -1108.000000) " x="225" y="976" width="264" height="264"></rect>
            <rect id="Rectangle-3-Copy-15" fill="#24FFA2" transform="translate(447.000000, 1198.000000) scale(-1, 1) translate(-447.000000, -1198.000000) " x="315" y="1066" width="264" height="264"></rect>
            <rect id="Rectangle-3-Copy-12" fill="#1A9F82" transform="translate(1238.000000, 395.000000) scale(-1, 1) rotate(-180.000000) translate(-1238.000000, -395.000000) " x="1106" y="263" width="264" height="264"></rect>
            <rect id="Rectangle-3-Copy-13" fill="#1DC38E" transform="translate(1155.000000, 305.000000) scale(-1, 1) rotate(-180.000000) translate(-1155.000000, -305.000000) " x="1023" y="173" width="264" height="264"></rect>
            <rect id="Rectangle-3-Copy-14" fill="#21E699" transform="translate(1065.000000, 215.000000) scale(-1, 1) rotate(-180.000000) translate(-1065.000000, -215.000000) " x="933" y="83" width="264" height="264"></rect>
            <rect id="Rectangle-3-Copy-15" fill="#24FFA2" transform="translate(975.000000, 132.000000) scale(-1, 1) rotate(-180.000000) translate(-975.000000, -132.000000) " x="843" y="0" width="264" height="264"></rect>
            <rect id="Rectangle-3-Copy-9" fill="#0F325F" transform="translate(620.000000, 1736.000000) scale(-1, 1) rotate(-270.000000) translate(-620.000000, -1736.000000) " x="488" y="1604" width="264" height="264"></rect>
            <rect id="Rectangle-3-Copy-10" fill="#12566A" transform="translate(710.000000, 1646.000000) scale(-1, 1) rotate(-270.000000) translate(-710.000000, -1646.000000) " x="578" y="1514" width="264" height="264"></rect>
            <rect id="Rectangle-3-Copy-11" fill="#177B77" transform="translate(800.000000, 1556.000000) scale(-1, 1) rotate(-270.000000) translate(-800.000000, -1556.000000) " x="668" y="1424" width="264" height="264"></rect>
            <rect id="Rectangle-3-Copy-12" fill="#1A9F82" transform="translate(882.000000, 1470.000000) scale(-1, 1) rotate(-270.000000) translate(-882.000000, -1470.000000) " x="750" y="1338" width="264" height="264"></rect>
            <rect id="Rectangle-3-Copy-13" fill="#1DC38E" transform="translate(972.000000, 1380.000000) scale(-1, 1) rotate(-270.000000) translate(-972.000000, -1380.000000) " x="840" y="1248" width="264" height="264"></rect>
            <rect id="Rectangle-3-Copy-14" fill="#21E699" transform="translate(1068.000000, 1290.000000) scale(-1, 1) rotate(-270.000000) translate(-1068.000000, -1290.000000) " x="936" y="1158" width="264" height="264"></rect>
            <rect id="Rectangle-3-Copy-15" fill="#24FFA2" transform="translate(1158.000000, 1200.000000) scale(-1, 1) rotate(-270.000000) translate(-1158.000000, -1200.000000) " x="1026" y="1068" width="264" height="264"></rect>
            <text id="24.07-–-22.00-–-EBER" transform="translate(87.500000, 1142.500000) rotate(-90.000000) translate(-87.500000, -1142.500000) " font-family="GTAmericaTrialExpanded-Black, GT America Trial" font-size="19" font-style="expanded" font-weight="700" line-spacing="64.8600025" fill="#24FFA2">
                <tspan x="-161" y="1129">24.07 – 22.00 – EBERSWALDER STR. 21</tspan>
            </text>
            <text id="HACKAPONG" transform="translate(640.000000, 77.500000) rotate(-360.000000) translate(-640.000000, -77.500000) " font-family="GTAmericaTrialExpanded-Black, GT America Trial" font-size="19" font-style="expanded" font-weight="700" line-spacing="64.8600025" fill="#24FFA2">
                <tspan x="556" y="64">HACKAPONG</tspan>
            </text>
            <text id="DR.-PONG" transform="translate(426.500000, 1602.500000) rotate(-360.000000) translate(-426.500000, -1602.500000) " font-family="GTAmericaTrialExpanded-Black, GT America Trial" font-size="19" font-style="expanded" font-weight="700" line-spacing="64.8600025" fill="#24FFA2">
                <tspan x="364" y="1589">DR. PONG</tspan>
            </text>
            <text id="FEAT.-LINZI-–-SPINDO" transform="translate(1105.500000, 797.500000) rotate(-90.000000) translate(-1105.500000, -797.500000) " font-family="GTAmericaTrialExpanded-Black, GT America Trial" font-size="19" font-style="expanded" font-weight="700" line-spacing="64.8600025" fill="#24FFA2">
                <tspan x="870" y="784">FEAT. LINZI – SPINDOCTOR – LITMAN</tspan>
            </text>
            <path d="M1105.5,547.380781 L1105.5,77.4863715" id="Line" stroke="#24FFA2" stroke-width="3" stroke-linecap="square"></path>
            <path d="M1105.5,1601.50182 L1105.5,1050.21606" id="Line-Copy-3" stroke="#24FFA2" stroke-width="3" stroke-linecap="square"></path>
            <path d="M87.5,866.895965 L87.5,77.4863715" id="Line-Copy" stroke="#24FFA2" stroke-width="3" stroke-linecap="square"></path>
            <path d="M87.5,1601.51117 L87.5,1422.5" id="Line-Copy-6" stroke="#24FFA2" stroke-width="3" stroke-linecap="square"></path>
            <path d="M534.612148,77.4863715 L87.5,77.4863715" id="Line-Copy" stroke="#24FFA2" stroke-width="3" stroke-linecap="square"></path>
            <path d="M346.693504,1602.48637 L87.5,1602.48637" id="Line-Copy-4" stroke="#24FFA2" stroke-width="3" stroke-linecap="square"></path>
            <path d="M1105.5147,77.4863715 L741.903679,77.4863715" id="Line-Copy-2" stroke="#24FFA2" stroke-width="3" stroke-linecap="square"></path>
            <path d="M1105.5147,1602.48637 L506.398759,1602.48637" id="Line-Copy-5" stroke="#24FFA2" stroke-width="3" stroke-linecap="square"></path>
        </g>
    </g>
</svg>