<?xml version="1.0" encoding="UTF-8"?>
<svg width="1190px" height="1684px" viewBox="0 0 1190 1684" version="1.1" xmlns="http://www.w3.org/2000/svg" xmlns:xlink="http://www.w3.org/1999/xlink" style="background: #0C0E53;">
    <!-- Generator: Sketch 44 (41411) - http://www.bohemiancoding.com/sketch -->
    <title>A2 Copy 73</title>
    <desc>Created with Sketch.</desc>
    <defs>
        <circle id="path-1" cx="222" cy="222" r="222"></circle>
    </defs>
    <g id="Page-1" stroke="none" stroke-width="1" fill="none" fill-rule="evenodd">
        <g id="A2-Copy-73">
            <text id="24.07-–-22.00" transform="translate(73.500000, 977.000000) rotate(-90.000000) translate(-73.500000, -977.000000) " font-family="GTAmericaTrialExpanded-Black, GT America Trial" font-size="19" font-style="expanded" font-weight="700" line-spacing="64.8600025" fill="#24FFA2">
                <tspan x="-12.5" y="963.5">24.07 – 22.00</tspan>
            </text>
            <text id="DR.-PONG" transform="translate(796.500000, 77.500000) rotate(-360.000000) translate(-796.500000, -77.500000) " font-family="GTAmericaTrialExpanded-Black, GT America Trial" font-size="19" font-style="expanded" font-weight="700" line-spacing="64.8600025" fill="#24FFA2">
                <tspan x="734" y="64">DR. PONG</tspan>
            </text>
            <text id="EBERSWALDER-STR.-21" transform="translate(734.000000, 1605.500000) rotate(-360.000000) translate(-734.000000, -1605.500000) " font-family="GTAmericaTrialExpanded-Black, GT America Trial" font-size="19" font-style="expanded" font-weight="700" line-spacing="64.8600025" fill="#24FFA2">
                <tspan x="584" y="1592">EBERSWALDER STR. 21</tspan>
            </text>
            <text id="FEAT.-LINZI-–-SPINDO" transform="translate(1113.000000, 995.000000) rotate(-90.000000) translate(-1113.000000, -995.000000) " font-family="GTAmericaTrialExpanded-Black, GT America Trial" font-size="19" font-style="expanded" font-weight="700" line-spacing="64.8600025" fill="#24FFA2">
                <tspan x="877.5" y="981.5">FEAT. LINZI – SPINDOCTOR – LITMAN</tspan>
            </text>
            <path d="M1114.5,738.833494 L1114.5,77.4863715" id="Line" stroke="#24FFA2" stroke-width="3" stroke-linecap="square"></path>
            <path d="M1113.5,1605.5 L1113.5,1251.45715" id="Line-Copy-3" stroke="#24FFA2" stroke-width="3" stroke-linecap="square"></path>
            <path d="M76.5,875.5 L76.5,77.4863715" id="Line-Copy" stroke="#24FFA2" stroke-width="3" stroke-linecap="square"></path>
            <path d="M76.5,1606.50258 L76.5,1081.11921" id="Line-Copy-6" stroke="#24FFA2" stroke-width="3" stroke-linecap="square"></path>
            <path d="M713.615267,77.4863715 L76.4802735,77.4863715" id="Line-Copy" stroke="#24FFA2" stroke-width="3" stroke-linecap="square"></path>
            <path d="M566.245554,1606.48637 L76.4810459,1606.48637" id="Line-Copy-4" stroke="#24FFA2" stroke-width="3" stroke-linecap="square"></path>
            <path d="M1113.52414,77.4863715 L875.02697,77.4863715" id="Line-Copy-2" stroke="#24FFA2" stroke-width="3" stroke-linecap="square"></path>
            <path d="M1113.50242,1606.48637 L901.438405,1606.48637" id="Line-Copy-5" stroke="#24FFA2" stroke-width="3" stroke-linecap="square"></path>
            <path d="M349.298604,811.764029 L264.472638,811.764029 L264.472638,509.679722 L206.479376,509.679722 L206.479376,811.764029 L121.65341,811.764029 L121.65341,119.307164 L206.479376,119.307164 L206.479376,423.122614 L264.472638,423.122614 L264.472638,119.307164 L349.298604,119.307164 L349.298604,811.764029 Z M610.989594,811.764029 L527.029199,811.764029 L514.911204,688.852935 L441.337662,688.852935 L430.085238,811.764029 L346.990415,811.764029 L426.622954,119.307164 L533.088197,119.307164 L610.989594,811.764029 Z M507.986636,603.161398 L478.557219,286.362383 L472.498221,357.339212 L449.127802,603.161398 L507.986636,603.161398 Z M836.326599,698.374217 C836.326599,735.305435 825.218548,765.311599 803.002112,788.39361 C780.785677,811.47562 753.808981,823.016453 722.071216,823.016453 C690.333451,823.016453 663.501016,811.47562 641.573106,788.39361 C619.645195,765.311599 608.681405,735.305435 608.681405,698.374217 L608.681405,232.696976 C608.681405,195.765759 619.789456,165.759595 642.005891,142.677584 C664.222327,119.595573 691.199022,108.05474 722.936787,108.05474 C754.674552,108.05474 781.506987,119.595573 803.434898,142.677584 C825.362808,165.759595 836.326599,195.765759 836.326599,232.696976 L836.326599,403.214479 L751.500633,403.214479 L751.500633,230.965834 C751.500633,209.037923 741.979446,198.074133 722.936787,198.074133 C703.317078,198.074133 693.50737,209.037923 693.50737,230.965834 L693.50737,700.97093 C693.50737,722.321791 703.317078,732.99706 722.936787,732.99706 C741.979446,732.99706 751.500633,722.321791 751.500633,700.97093 L751.500633,527.856714 L836.326599,527.856714 L836.326599,698.374217 Z M1085.89959,811.764029 L998.476914,811.764029 L932.693512,506.217437 L932.693512,811.764029 L847.867546,811.764029 L847.867546,119.307164 L932.693512,119.307164 L932.693512,391.962055 L995.880201,119.307164 L1080.70617,119.307164 L999.342485,436.971751 L1085.89959,811.764029 Z" id="HACK" fill="#24FFA2"></path>
            <path d="M350.280972,1140.6851 C350.280972,1177.61632 341.048306,1206.03562 322.582697,1225.94385 C304.117089,1245.85209 280.746903,1255.80605 252.47144,1255.80605 L207.461744,1255.80605 L207.461744,1560.48707 L122.635778,1560.48707 L122.635778,868.030209 L252.47144,868.030209 C280.746903,868.030209 304.117089,878.128437 322.582697,898.325197 C341.048306,918.521956 350.280972,947.085516 350.280972,984.016734 L350.280972,1140.6851 Z M265.455006,1133.76053 L265.455006,992.672445 C265.455006,966.705182 254.491215,953.721746 232.563305,953.721746 L207.461744,953.721746 L207.461744,1171.84566 L232.563305,1171.84566 C241.796109,1171.84566 249.586171,1168.23915 255.933724,1161.02602 C262.281277,1153.81289 265.455006,1144.72449 265.455006,1133.76053 Z M589.467114,1447.09726 C589.467114,1484.02848 578.359063,1514.03464 556.142627,1537.11665 C533.926192,1560.19867 506.949496,1571.7395 475.211731,1571.7395 C443.473966,1571.7395 416.641531,1560.19867 394.713621,1537.11665 C372.78571,1514.03464 361.82192,1484.02848 361.82192,1447.09726 L361.82192,981.420021 C361.82192,944.488803 372.929971,914.482639 395.146406,891.400628 C417.362842,868.318617 444.339537,856.777785 476.077302,856.777785 C507.815067,856.777785 534.647503,868.318617 556.575413,891.400628 C578.503323,914.482639 589.467114,944.488803 589.467114,981.420021 L589.467114,1447.09726 Z M504.641148,1449.69398 L504.641148,979.688878 C504.641148,957.760968 495.119961,946.797177 476.077302,946.797177 C456.457593,946.797177 446.647886,957.760968 446.647886,979.688878 L446.647886,1449.69398 C446.647886,1471.04484 456.457593,1481.72011 476.077302,1481.72011 C495.119961,1481.72011 504.641148,1471.04484 504.641148,1449.69398 Z M828.653256,1560.48707 L756.810856,1560.48707 L678.043888,1167.5178 L679.77503,1228.10778 L679.77503,1560.48707 L601.008062,1560.48707 L601.008062,868.030209 L681.506172,868.030209 L751.61743,1219.45207 L749.886287,1158.86209 L749.886287,868.030209 L828.653256,868.030209 L828.653256,1560.48707 Z M1067.8394,1560.48707 L1015.03956,1560.48707 L1006.38385,1543.17565 C988.495292,1562.21831 966.567711,1571.7395 940.600449,1571.7395 C910.016784,1571.7395 885.636776,1561.35275 867.459693,1540.57894 C849.282609,1519.80513 840.194204,1490.66453 840.194204,1453.15626 L840.194204,981.420021 C840.194204,944.488803 851.302255,914.482639 873.51869,891.400628 C895.735126,868.318617 922.711821,856.777785 954.449586,856.777785 C986.187351,856.777785 1013.01979,868.318617 1034.9477,891.400628 C1056.87561,914.482639 1067.8394,944.488803 1067.8394,981.420021 L1067.8394,1151.93752 L983.013432,1151.93752 L983.013432,979.688878 C983.013432,957.760968 973.492245,946.797177 954.449586,946.797177 C934.829877,946.797177 925.020169,957.760968 925.020169,979.688878 L925.020169,1449.69398 C925.020169,1471.04484 934.829877,1481.72011 954.449586,1481.72011 C973.492245,1481.72011 983.013432,1471.04484 983.013432,1449.69398 L983.013432,1289.56333 L950.121731,1289.56333 L950.121731,1206.4685 L1067.8394,1206.4685 L1067.8394,1560.48707 Z" id="PONG" fill="#24FFA2"></path>
            <g id="A" transform="translate(385.000000, 621.000000)">
                <mask id="mask-2" fill="white">
                    <use xlink:href="#path-1"></use>
                </mask>
                <use id="Mask" stroke="#24FFA2" stroke-width="32" fill="#24FFA2" xlink:href="#path-1"></use>
                <path d="M342.143662,428 L311.984507,341.215493 L138.415493,341.215493 L108.256338,428 L-37,428 L138.415493,-9 L312.6,-9 L487.4,428 L342.143662,428 Z M169.805634,251.353521 L280.594366,251.353521 L250.435211,164.569014 C239.356338,133.794366 231.35493,111.63662 225.815493,80.2464789 L224.584507,80.2464789 C219.660563,111.63662 211.659155,133.794366 199.964789,164.569014 L169.805634,251.353521 Z" fill="#0C0E53" mask="url(#mask-2)"></path>
            </g>
        </g>
    </g>
</svg>