<?xml version="1.0" encoding="UTF-8"?>
<svg width="1529px" height="1150px" viewBox="0 0 1529 1150" version="1.1" xmlns="http://www.w3.org/2000/svg" xmlns:xlink="http://www.w3.org/1999/xlink">
    <!-- Generator: Sketch 43.2 (39069) - http://www.bohemiancoding.com/sketch -->
    <title>Group 3</title>
    <desc>Created with Sketch.</desc>
    <defs></defs>
    <g id="V3" stroke="none" stroke-width="1" fill="none" fill-rule="evenodd">
        <g id="Group-3">
            <g id="Group-10-Copy">
                <g id="Group-9-Copy">
                    <rect id="Rectangle-27" fill="#FF2440" x="0" y="0" width="1529" height="1150"></rect>
                    <path d="M43,551.561211 L43,335.751203 L94.8841747,41 L306.983432,41 C367.45116,41 426.924129,52.4416397 465.657101,86.2963224 L473.630477,41 L623.897409,41 L555.594258,430.752361 L691.472987,430.752361 L898.391534,41 L1076.69871,41 L1168.00923,551.561211 L1024.21313,551.561211 L1010.5525,447.291668 L834.402267,447.291668 L784.073629,551.561211 L676.664259,551.561211 L383.757911,551.561211 L419.628202,347.784017 C383.237478,367.069602 333.871943,378.97714 268.158483,378.97714 L185.475722,378.97714 L155.278539,551.561211 L43,551.561211 Z M1486,41 L1486,257.045619 L1404.39739,377.538939 L1374.20021,551.561211 L1223.2143,551.561211 L1253.41148,377.538939 L1144.84542,41 L1296.55031,41 L1339.68914,214.303172 C1342.56507,226.527877 1344.72201,240.909883 1344.00303,256.010989 L1345.44099,256.010989 C1350.47385,240.909883 1357.66366,226.527877 1364.85346,214.303172 L1469.10564,41 L1486,41 Z M255.935814,278.303098 C324.238965,278.303098 349.403283,240.190782 349.403283,200.640266 C349.403283,151.022346 309.140373,145.269543 279.662172,145.269543 L227.176593,145.269543 L203.450235,278.303098 L255.935814,278.303098 Z M883.292943,346.617626 L996.891867,346.617626 L982.512256,235.876181 C979.636334,215.022272 976.760412,183.381859 976.760412,145.269543 L975.322451,145.269543 C962.380801,183.381859 950.158132,207.831269 936.497502,235.876181 L883.292943,346.617626 Z" id="Combined-Shape" fill="#FFFFFF"></path>
                    <path d="M156.376735,1103 L156.278539,1103.56121 L44,1103.56121 L44,1103 L43,1103 L43,593 L1487,593 L1487,1103 L1375.29759,1103 L1375.20021,1103.56121 L1224.2143,1103.56121 L1224.31168,1103 L1168.90886,1103 L1169.00923,1103.56121 L1025.21313,1103.56121 L1025.1396,1103 L785.344514,1103 L785.073629,1103.56121 L677.664259,1103.56121 L384.757911,1103.56121 L384.856699,1103 L156.376735,1103 Z M156.376735,1103 L186.475722,930.97714 L269.158483,930.97714 C334.871943,930.97714 384.237478,919.069602 420.628211,899.784013 L384.856699,1103 L785.344514,1103 L835.402267,999.291668 L1011.5525,999.291668 L1025.1396,1103 L1168.90886,1103 L1077.69871,593 L899.391534,593 L692.472987,982.752361 L556.594258,982.752361 L624.897409,593 L474.630477,593 L466.657101,638.296322 C427.924129,604.44164 368.45116,593 307.983432,593 L95.8841747,593 L44,887.751203 L44,1103 L156.376735,1103 Z M1224.31168,1103 L1375.29759,1103 L1405.39739,929.538939 L1487,809.045619 L1487,593 L1470.10564,593 L1365.85346,766.303172 C1358.66366,778.527877 1351.47385,792.909883 1346.44099,808.010989 L1345.00303,808.010989 C1345.72201,792.909883 1343.56507,778.527877 1340.68914,766.303172 L1297.55031,593 L1145.84542,593 L1254.41148,929.538939 L1224.31168,1103 Z M256.935814,830.303098 L204.450235,830.303098 L228.176593,697.269543 L280.662172,697.269543 C310.140373,697.269543 350.403283,703.022346 350.403283,752.640266 C350.403283,792.190782 325.238965,830.303098 256.935814,830.303098 Z M884.292943,898.617626 L937.497502,787.876181 C951.158132,759.831269 963.380801,735.381859 976.322451,697.269543 L977.760412,697.269543 C977.760412,735.381859 980.636334,767.022272 983.512256,787.876181 L997.891867,898.617626 L884.292943,898.617626 Z" id="Combined-Shape" fill="#FFFFFF"></path>
                </g>
                <rect id="Rectangle-28" fill="#FF2440" x="1" y="574" width="43" height="575"></rect>
                <rect id="Rectangle-29" fill="#FF2440" x="14" y="1102" width="1500" height="45"></rect>
            </g>
        </g>
    </g>
</svg>