<?xml version="1.0" encoding="UTF-8"?>
<svg width="375px" height="629px" viewBox="0 0 375 629" version="1.1" xmlns="http://www.w3.org/2000/svg" xmlns:xlink="http://www.w3.org/1999/xlink">
    <!-- Generator: Sketch 43.2 (39069) - http://www.bohemiancoding.com/sketch -->
    <title>negative hacker culture mobile</title>
    <desc>Created with Sketch.</desc>
    <defs></defs>
    <g id="Mobile" stroke="none" stroke-width="1" fill="none" fill-rule="evenodd">
        <g id="Artboard-2-Copy-6" transform="translate(0.000000, -70.000000)" fill="#FFFFFF">
            <path d="M4.03942121e-06,692.623258 L4.03942121e-06,90.2966313 L4.03942121e-06,70 L7.14670521,70 L4.03942122e-06,110.593263 L4.03942121e-06,224.497003 L25.5147664,224.497003 L36.1982289,163.448646 L85.6910039,163.448646 L75.0075415,224.497003 L112.584753,224.497003 L152.124233,224.497003 L167.386322,192.882675 L220.803634,192.882675 L224.946201,224.497003 L268.55217,224.497003 L264.264796,200.528215 C274.713522,216.564166 291.915622,224.95642 312.926807,227.419782 L256.46194,227.419782 L152.57009,227.419782 L110.512312,227.419782 L51.2007669,287.626595 L61.720173,227.419782 L14.9423887,227.419782 L4.03942121e-06,312.292527 L4.03942121e-06,386.329958 L33.7430293,386.329958 L41.3528124,343.580883 L61.720173,323.213522 L84.7733394,386.329958 L125.600123,386.329958 L229.268156,386.329958 L275.099302,386.329958 L285.394891,328.137499 L303.076445,328.137499 L318.743646,386.329958 L368.878687,386.329958 L348.511327,322.094436 C360.6134,318.580931 369.183146,312.939518 374.999994,305.856838 L374.999994,388.505253 L290.241387,388.505253 L283.988153,423.868371 L326.46702,423.868371 L312.136001,505.376045 L261.935626,505.376045 L282.420359,388.505253 L242.983753,388.505253 L203.547147,388.505253 L186.512474,485.753827 C184.571815,496.966523 177.887323,509.472992 161.06828,509.472992 C149.639955,509.472992 137.133486,503.651015 141.230433,480.578737 L157.402591,388.505253 L112.336178,388.505253 L110.666915,398.050617 C98.1289965,388.901659 81.0129567,384.839564 61.7560831,384.839564 C33.4333218,384.839564 13.4870425,394.73531 2.84217094e-14,409.061757 L4.03942121e-06,531.831525 C7.64813004,537.460443 16.8395348,541.190141 27.1597379,543.26202 L4.22084138,543.26202 L4.03942121e-06,567.398075 L4.03942121e-06,686.570062 C5.3917275,692.084606 12.1608973,696.008531 19.7355166,698.676454 L83.7977307,698.676454 C111.221987,689.361244 121.527773,668.169196 124.52673,651.008502 L143.296045,544.285303 C144.203965,544.408181 145.116935,544.518729 146.034197,544.617389 L118.911123,698.676454 L164.963168,698.676454 L174.917078,642.415224 L192.323974,642.415224 L207.471228,698.676454 L364.744591,698.676454 L370.29538,666.652674 L302.210179,666.652674 L307.718691,636.025351 L370.51572,636.025351 L374.999994,610.671957 L374.999994,698.676454 L370.37363,698.676454 L9.86776031,698.676454 L4.03942121e-06,698.676454 L4.03942121e-06,692.623258 Z M374.999994,243.317568 C365.692374,233.470194 351.233643,229.138788 336.09471,227.853408 C351.75438,226.619396 364.609168,222.144681 375,214.770188 L374.999994,243.317568 Z M374.999994,167.145978 L358.114997,163.230616 C354.84455,179.364825 346.123356,191.792526 328.026879,191.792526 C314.290998,191.792526 300.337088,185.033601 300.337088,156.689721 C300.337088,135.976885 307.750103,102.182259 338.274281,102.182259 C352.664251,102.182259 363.347714,109.377244 364.001803,131.180229 L374.999994,129.143527 L374.999994,167.145978 Z M374.999994,71.6416674 C373.419478,71.0452931 371.799795,70.4984336 370.143533,70 L374.999994,70 L374.999994,71.6416672 Z M374.999994,423.868371 L374.999994,543.26202 L277.972729,543.26202 L272.176438,576.184957 C266.233166,550.271071 239.782735,543.26202 214.358019,543.26202 L180.246159,543.26202 C194.781185,540.325127 205.346122,534.405514 212.947326,527.134855 L210.40035,541.601678 L309.403151,541.601678 L350.833071,541.601678 L371.533433,423.868371 L374.999994,423.868371 Z M374.999994,576.313088 L374.999994,603.635304 L313.447543,603.635304 L318.295033,576.313088 L374.999994,576.313088 Z M52.7150136,70 L102.207789,70 L91.7958396,129.21796 L42.3030646,129.21796 L52.7150136,70 Z M147.775956,70 L186.629459,70 L128.503385,179.468202 L147.775956,70 Z M240.916791,70 L311.002102,70 C273.795051,81.2308034 257.746024,114.1028 254.084921,143.617105 L240.916791,70 Z M252.812876,686.169986 L237.053086,636.466032 C250.144238,632.665375 259.036871,626.335489 264.74894,618.373145 L252.812876,686.169986 Z M49.9206243,545.262498 C73.9039065,545.049873 91.8486991,537.879083 104.805885,524.801011 C112.442401,534.901371 124.092143,540.565615 137.245234,543.26202 L97.4248536,543.26202 L80.0179577,642.635565 C78.0348936,654.093268 71.2043396,666.873015 54.0177841,666.873015 C42.33974,666.873015 29.5599937,660.923822 33.7464623,637.347394 L49.9206243,545.262498 Z M102.245484,446.206966 L97.0265355,476.050533 C96.5002001,479.076961 96.1105684,481.980622 95.8502776,484.765822 L79.6532709,481.009994 C76.4188394,496.966523 67.7936886,509.257363 49.8965009,509.257363 C36.3118885,509.257363 22.5116474,502.572871 22.5116474,474.541131 C22.5116474,454.056398 29.8430255,420.633939 60.031053,420.633939 C74.2625517,420.633939 84.8283613,427.749689 85.4752476,449.312566 L102.245484,446.206966 Z M250.387997,260.992354 L234.232182,352.757386 L166.874541,352.757386 L172.46997,321.646802 L236.257857,321.646802 L242.077103,288.745681 L178.289216,288.745681 L183.213193,260.992354 L250.387997,260.992354 Z M137.901385,252.146353 L121.0263,347.996839 L97.754734,291.879121 L137.901385,252.146353 Z M182.212351,162.358497 L198.34656,128.781901 C202.489127,120.278737 206.195634,112.865722 210.120172,101.31014 L210.556231,101.31014 C210.556231,112.865722 211.428351,122.459035 212.30047,128.781901 L216.661067,162.358497 L182.212351,162.358497 Z M297.704834,258.754183 L316.281657,258.754183 C325.234343,258.754183 336.201384,262.11144 336.201384,275.764286 C336.201384,285.164607 331.053589,297.922184 309.343326,297.922184 L290.766502,297.922184 L297.704834,258.754183 Z M187.035803,574.109683 L205.324061,574.109683 C214.137679,574.109683 224.934361,577.41479 224.934361,590.855558 C224.934361,600.109857 219.866531,612.669263 198.493507,612.669263 L180.205249,612.669263 L187.035803,574.109683 Z" id="negative-hacker-culture-mobile"></path>
        </g>
    </g>
</svg>