<?xml version="1.0" encoding="UTF-8"?>
<svg width="668px" height="578px" viewBox="0 0 668 578" version="1.1" xmlns="http://www.w3.org/2000/svg" xmlns:xlink="http://www.w3.org/1999/xlink">
    <!-- Generator: Sketch 43.2 (39069) - http://www.bohemiancoding.com/sketch -->
    <title>Group 5</title>
    <desc>Created with Sketch.</desc>
    <defs></defs>
    <g id="Subpages" stroke="none" stroke-width="1" fill="none" fill-rule="evenodd">
        <g id="Artboard-Copy-11" transform="translate(-444.000000, -143.000000)">
            <g id="Group-5" transform="translate(430.000000, 143.000000)">
                <g id="Group-4">
                    <path d="M112.73051,387.946804 L125.0816,460.376577 L215.342709,516.595529 L289.354223,489.998886 L358.267567,516.701067 L454.65398,460.721034 L465.996306,387.946804 L465.996306,387.525104 L466.1094,387.590297 L525.93088,337.774506 L525.93088,234.750897 L466.466824,183.97329 L466.466824,183.489825 L465.980038,183.209216 L454.477141,110.834501 L358.418395,61.8843683 L289.355449,81.2841667 L215.666542,61.89286 L126.163954,110.748415 L112.73051,183.311571 L113.331541,183.658037 L113.331541,183.67812 L112.983188,183.878929 L112.617416,183.668078 L54.5622134,234.738784 L54.5622134,336.699894 L112.617416,387.590297 L112.73051,387.525104 L112.73051,387.946804 Z" id="Combined-Shape-Copy-2" stroke="#000000" stroke-width="1.035" opacity="0.5"></path>
                    <text id="AR-/-VR-Copy" opacity="0.800000012" font-family="GTAmerica-Medium, GT America" font-size="12.57525" font-weight="400" line-spacing="15.7050897" letter-spacing="1.59286501" fill="#000000">
                        <tspan x="163.612004" y="129.875">AR / VR</tspan>
                    </text>
                    <text id="Products" font-family="GTAmerica-Medium, GT America" font-size="20.7" font-weight="400" line-spacing="26.1233998" letter-spacing="-0.930587232" fill="#000000">
                        <tspan x="249.044739" y="296.438972">Products</tspan>
                    </text>
                    <text id="IoT-Copy" opacity="0.800000012" font-family="GTAmerica-Medium, GT America" font-size="12.57525" font-weight="400" line-spacing="15.7050897" letter-spacing="1.59286501" fill="#000000">
                        <tspan x="94.6477523" y="293.5">IoT</tspan>
                    </text>
                    <text id="Bots-Copy" opacity="0.800000012" font-family="GTAmerica-Medium, GT America" font-size="12.57525" font-weight="400" line-spacing="15.7050897" letter-spacing="1.59286501" fill="#000000">
                        <tspan x="443.126623" y="293.5">Bots</tspan>
                    </text>
                    <text id="WEB" opacity="0.800000012" font-family="GTAmerica-Medium, GT America" font-size="12.57525" font-weight="400" line-spacing="15.7050897" letter-spacing="1.59286501" fill="#000000">
                        <tspan x="183.811953" y="443">WEB</tspan>
                    </text>
                    <text id="AI-Copy" opacity="0.800000012" font-family="GTAmerica-Medium, GT America" font-size="12.57525" font-weight="400" line-spacing="15.7050897" letter-spacing="1.59286501" fill="#000000">
                        <tspan x="365.319875" y="129.875">AI</tspan>
                    </text>
                    <text id="APPS" opacity="0.800000012" font-family="GTAmerica-Medium, GT America" font-size="12.57525" font-weight="400" line-spacing="15.7050897" letter-spacing="1.59286501" fill="#000000">
                        <tspan x="352.73301" y="443">APPS</tspan>
                    </text>
                    <g id="Group-3" transform="translate(286.994914, 547.000000) scale(1, -1) translate(-286.994914, -547.000000) translate(214.994914, 516.000000)" stroke="#979797" stroke-width="1.035" opacity="0.100000001">
                        <path d="M143.798824,61.5063523 L115.810526,0.620751011" id="Path-6"></path>
                        <path d="M0.420834528,61.5063523 L28.2935446,0.872199831" id="Path-6-Copy"></path>
                    </g>
                    <g id="Group-3-Copy-5" transform="translate(214.994914, 0.000000)" stroke="#979797" stroke-width="1.035" opacity="0.100000001">
                        <path d="M143.798824,61.5063523 L115.810526,0.620751011" id="Path-6"></path>
                        <path d="M0.420834528,61.5063523 L28.2935446,0.872199831" id="Path-6-Copy"></path>
                    </g>
                    <g id="Group-3-Copy" transform="translate(62.924219, 157.008770) rotate(-60.000000) translate(-62.924219, -157.008770) translate(-9.075781, 126.008770)" stroke="#979797" stroke-width="1.035" opacity="0.100000001">
                        <path d="M143.798824,61.5063523 L115.810526,0.620751011" id="Path-6"></path>
                        <path d="M0.420834528,61.5063523 L28.2935446,0.872199831" id="Path-6-Copy"></path>
                    </g>
                    <g id="Group-3-Copy-3" transform="translate(62.924219, 413.319401) scale(1, -1) rotate(-60.000000) translate(-62.924219, -413.319401) translate(-9.075781, 382.319401)" stroke="#979797" stroke-width="1.035" opacity="0.100000001">
                        <path d="M143.798824,61.5063523 L115.810526,0.620751011" id="Path-6"></path>
                        <path d="M0.420834528,61.5063523 L28.2935446,0.872199831" id="Path-6-Copy"></path>
                    </g>
                    <g id="Group-3-Copy-2" transform="translate(516.291472, 157.008770) scale(-1, 1) rotate(-60.000000) translate(-516.291472, -157.008770) translate(444.291472, 126.008770)" stroke="#979797" stroke-width="1.035" opacity="0.100000001">
                        <path d="M143.798824,61.5063523 L115.810526,0.620751011" id="Path-6"></path>
                        <path d="M0.420834528,61.5063523 L28.2935446,0.872199831" id="Path-6-Copy"></path>
                    </g>
                    <g id="Group-3-Copy-4" transform="translate(516.291472, 413.319401) scale(-1, -1) rotate(-60.000000) translate(-516.291472, -413.319401) translate(444.291472, 382.319401)" stroke="#979797" stroke-width="1.035" opacity="0.100000001">
                        <path d="M143.798824,61.5063523 L115.810526,0.620751011" id="Path-6"></path>
                        <path d="M0.420834528,61.5063523 L28.2935446,0.872199831" id="Path-6-Copy"></path>
                    </g>
                    <path d="M466.424652,183.8125 L430.306855,207.565616" id="Path-16" stroke="#979797" stroke-width="1.035" opacity="0.340000004"></path>
                    <path d="M289.259956,125.103814 L289.259956,80.6875" id="Path-17" stroke="#979797" stroke-width="1.035" opacity="0.340000004"></path>
                    <path d="M432.916629,369.343897 L465.780025,387.073963" id="Path-18" stroke="#979797" stroke-width="1.035" opacity="0.340000004"></path>
                    <path d="M112.836056,183.625 L144.957952,214.71523" id="Path-19" stroke="#979797" stroke-width="1.035" opacity="0.340000004"></path>
                    <path d="M113.900211,387.22953 L153.090627,364.4375" id="Path-20" stroke="#979797" stroke-width="1.035" opacity="0.340000004"></path>
                    <path d="M289.485748,489.184718 L290.23673,449.375" id="Path-21" stroke="#979797" stroke-width="1.035" opacity="0.340000004"></path>
                    <path d="" id="Path-22" stroke="#979797" stroke-width="1.035"></path>
                    <path d="" id="Path-23" stroke="#979797" stroke-width="1.035"></path>
                </g>
                <g id="Group-6" transform="translate(614.237948, 456.396705) rotate(-34.000000) translate(-614.237948, -456.396705) translate(551.737948, 385.896705)">
                    <polygon id="Path-3" stroke="#858585" points="31.7778863 140.73985 95.3571076 140.73985 124.326026 94.7510317 63.6674298 -6.82121026e-13 -1.63424829e-13 94.7510317"></polygon>
                    <text id="Custom-Software" opacity="0.800000012" font-family="GTAmerica-Medium, GT America" font-size="12.57525" font-weight="400" line-spacing="15.7050897" letter-spacing="1.59286501" fill="#000000">
                        <tspan x="30.6186295" y="88.3244329">Custom</tspan>
                        <tspan x="25.27834" y="104.029523">Software</tspan>
                    </text>
                </g>
            </g>
        </g>
    </g>
</svg>