<?xml version="1.0" encoding="utf-8"?>
<!-- Generator: Adobe Illustrator 19.0.0, SVG Export Plug-In . SVG Version: 6.00 Build 0)  -->
<svg version="1.0" id="Layer_1" xmlns="http://www.w3.org/2000/svg" xmlns:xlink="http://www.w3.org/1999/xlink" x="0px" y="0px"
	 viewBox="0 0 784.4 577.6" style="enable-background:new 0 0 784.4 577.6;" xml:space="preserve">
<style type="text/css">
	.st0{opacity:0.5;fill:none;stroke:#000000;stroke-width:1.035;enable-background:new    ;}
	.st1{font-family:'GTAmerica-Medium';}
	.st2{font-size:12.5752px;}
	.st3{letter-spacing:1;}
	.st4{font-size:20.7px;}
	.st5{opacity:0.1;fill:none;stroke:#979797;stroke-width:1.035;}
	.st6{opacity:0.34;fill:none;stroke:#979797;stroke-width:1.035;enable-background:new    ;}
	.st7{fill:none;stroke:#979797;stroke-width:1.035;}
	.st8{fill:none;stroke:#858585;}
</style>
<g id="Group-4">
	<path id="Combined-Shape-Copy-2" class="st0" d="M215.9,387.9l12.4,72.4l90.3,56.2l74-26.6l68.9,26.7l96.4-56l11.3-72.8v-0.4
		l0.1,0.1l59.8-49.8v-103L569.6,184v-0.5l-0.5-0.3l-11.5-72.4l-96.1-49l-69.1,19.4l-73.7-19.4l-89.5,48.9l-13.4,72.6l0.6,0.3v0
		l-0.3,0.2l-0.4-0.2l-58.1,51.1v102l58.1,50.9l0.1-0.1V387.9z"/>
	<text transform="matrix(1 0 0 1 266.7399 129.875)" class="serviceListSVGText">AR / VR</text>
	<text transform="matrix(1 0 0 1 352.1727 296.439)" class="serviceListSVGText2">Products</text>
	<text transform="matrix(1 0 0 1 197.7757 293.5)" class="serviceListSVGText">IoT</text>
	<text transform="matrix(1 0 0 1 546.2546 293.5)" class="serviceListSVGText">Bots</text>
	<text transform="matrix(1 0 0 1 286.9399 443)" class="serviceListSVGText">WEB</text>
	<text transform="matrix(1 0 0 1 468.4478 129.875)" class="serviceListSVGText">AI</text>
	<text transform="matrix(1 0 0 1 455.861 443)" class="serviceListSVGText">APPS</text>
	<path id="Path-6" class="st5" d="M461.9,516.5l-28,60.9"/>
	<path id="Path-6-Copy" class="st5" d="M318.5,516.5l27.9,60.6"/>
	<path id="Path-6_1_" class="st5" d="M461.9,61.5l-28-60.9"/>
	<path id="Path-6-Copy_1_" class="st5" d="M318.5,61.5l27.9-60.6"/>
	<path id="Path-6_2_" class="st5" d="M228.4,110.1l-66.7-6.2"/>
	<path id="Path-6-Copy_2_" class="st5" d="M156.7,234.3l-38.6-54.5"/>
	<path id="Path-6_3_" class="st5" d="M228.4,460.2l-66.7,6.2"/>
	<path id="Path-6-Copy_3_" class="st5" d="M156.7,336.1l-38.6,54.5"/>
	<path id="Path-6_4_" class="st5" d="M557.1,110.1l66.7-6.2"/>
	<path id="Path-6-Copy_4_" class="st5" d="M628.8,234.3l38.6-54.5"/>
	<path id="Path-6_5_" class="st5" d="M557.1,460.2l66.7,6.2"/>
	<path id="Path-6-Copy_5_" class="st5" d="M628.8,336.1l38.6,54.5"/>
	<path id="Path-16" class="st6" d="M569.6,183.8l-36.1,23.8"/>
	<path id="Path-17" class="st6" d="M392.4,125.1V80.7"/>
	<path id="Path-18" class="st6" d="M536,369.3l32.9,17.7"/>
	<path id="Path-19" class="st6" d="M216,183.6l32.1,31.1"/>
	<path id="Path-20" class="st6" d="M217,387.2l39.2-22.8"/>
	<path id="Path-21" class="st6" d="M392.6,489.2l0.8-39.8"/>
	<path id="Path-22" class="st7" d="M103.1,0"/>
	<path id="Path-23" class="st7" d="M103.1,0"/>
</g>
<polygon id="Path-3" class="st8" points="731.2,531.8 783.9,496.3 782.2,441.9 678.9,397.3 679.1,511.5 "/>
<text transform="matrix(0.829 -0.5592 0.5592 0.829 700.9024 489.0014)" class="st1 st2 st3">Custom</text>
<text transform="matrix(0.829 -0.5592 0.5592 0.829 746.1033 458.5132)" class="st1 st2 st3"> </text>
<text transform="matrix(0.829 -0.5592 0.5592 0.829 705.2571 505.0083)" class="st1 st2 st3">Software</text>
</svg>
