<svg x="0px" y="0px" width="681.3px" height="577.6px" viewBox="0 0 681.3 577.6" style="enable-background:new 0 0 681.3 577.6;">
			<title>Services by Hackerbay</title>
			<style type="text/css">
				.st0{opacity:0.5;fill:none;stroke:#000000;stroke-width:1.035;}
				.st1{font-family:'GTAmerica-Medium';}
				.st2{font-size:12.5752px;}
				.st3{letter-spacing:1;}
				.st4{font-size:20.7px;}
				.st5{opacity:0.1;fill:none;stroke:#979797;stroke-width:1.035;}
				.st6{opacity:0.34;fill:none;stroke:#979797;stroke-width:1.035;}
				.st7{fill:none;stroke:#979797;stroke-width:1.035;}
				.st8{fill:none;stroke:#858585;}
			</style>

			<g id="Group-4_1_">
				<path id="Combined-Shape-Copy-2_1_" class="st0" d="M112.7,387.9l12.4,72.4l90.3,56.2l74-26.6l68.9,26.7l96.4-56l11.3-72.8v-0.4
					l0.1,0.1l59.8-49.8v-103L466.5,184v-0.5l-0.5-0.3l-11.5-72.4l-96.1-49l-69.1,19.4l-73.7-19.4l-89.5,48.9l-13.4,72.6l0.6,0.3v0
					l-0.3,0.2l-0.4-0.2l-58.1,51.1v102l58.1,50.9l0.1-0.1V387.9z"/>
				<text transform="matrix(1 0 0 1 163.612 129.875)" class="st1 st2 st3">AR / VR</text>
				<text transform="matrix(1 0 0 1 249.0447 296.439)" class="st1 st4">Products</text>
				<text transform="matrix(1 0 0 1 94.6478 293.5)" class="st1 st2 st3">IoT</text>
				<text transform="matrix(1 0 0 1 443.1266 293.5)" class="st1 st2 st3">Bots</text>
				<text transform="matrix(1 0 0 1 183.812 443)" class="st1 st2 st3">WEB</text>
				<text transform="matrix(1 0 0 1 365.3199 129.875)" class="st1 st2 st3">AI</text>
				<text transform="matrix(1 0 0 1 352.733 443)" class="st1 st2 st3">APPS</text>
				<path id="Path-6_11_" class="st5" d="M358.8,516.5l-28,60.9"/>
				<path id="Path-6-Copy_11_" class="st5" d="M215.4,516.5l27.9,60.6"/>
				<path id="Path-6_10_" class="st5" d="M358.8,61.5l-28-60.9"/>
				<path id="Path-6-Copy_10_" class="st5" d="M215.4,61.5l27.9-60.6"/>
				<path id="Path-6_9_" class="st5" d="M125.2,110.1l-66.7-6.2"/>
				<path id="Path-6-Copy_9_" class="st5" d="M53.6,234.3L15,179.8"/>
				<path id="Path-6_8_" class="st5" d="M125.2,460.2l-66.7,6.2"/>
				<path id="Path-6-Copy_8_" class="st5" d="M53.6,336.1L15,390.5"/>
				<path id="Path-6_7_" class="st5" d="M454,110.1l66.7-6.2"/>
				<path id="Path-6-Copy_7_" class="st5" d="M525.7,234.3l38.6-54.5"/>
				<path id="Path-6_6_" class="st5" d="M454,460.2l66.7,6.2"/>
				<path id="Path-6-Copy_6_" class="st5" d="M525.7,336.1l38.6,54.5"/>
				<path id="Path-16_1_" class="st6" d="M466.4,183.8l-36.1,23.8"/>
				<path id="Path-17_1_" class="st6" d="M289.3,125.1V80.7"/>
				<path id="Path-18_1_" class="st6" d="M432.9,369.3l32.9,17.7"/>
				<path id="Path-19_1_" class="st6" d="M112.8,183.6l32.1,31.1"/>
				<path id="Path-20_1_" class="st6" d="M113.9,387.2l39.2-22.8"/>
				<path id="Path-21_1_" class="st6" d="M289.5,489.2l0.8-39.8"/>
				<path id="Path-22_1_" class="st7" d="M0,0"/>
				<path id="Path-23_1_" class="st7" d="M0,0"/>
			</g>
			<g>
				<polygon id="Path-3_1_" class="st8" points="628,531.8 680.8,496.3 679.1,441.9 575.8,397.3 576,511.5 "/>
				<text transform="matrix(0.829 -0.5592 0.5592 0.829 597.7745 489.0014)" class="st1 st2 st3">Custom</text>
				<text transform="matrix(0.829 -0.5592 0.5592 0.829 602.1292 505.0083)" class="st1 st2 st3">Software</text>
			</g>
		</svg>