<svg xmlns="http://www.w3.org/2000/svg" preserveAspectRatio="xMidYMid meet">
	<style>	#facebook_hl path,#google_hl path, #wirecard, #wirecard_hl, #twitter_hl, #lyft_hl, #ibm_hl {fill:#ADADAD;}</style>
	
	<symbol id="facebook" x="0" y="0" viewBox="0 0 364 94">
		<path d="M56.76 28.1h-14l-1.25 12.48h12.81c7.84 0 8.42 1.49 8.42 6.58v2.16H52.38c-10.17 0-15.86 3.55-15.86 13.52 0 8.45 4.87 14.55 14.03 14.55 3.35 0 8.44-.51 14.14-3.66l.54 3.15h12.48V47.26c.01-13.74-3.76-19.16-20.95-19.16zm5.97 36.67c-2.23 1.02-4.04 2.02-7.1 2.02-2.85 0-4.14-1.42-4.14-4.15 0-2.75 1.39-3.34 4.55-3.34h6.69v5.47zm298.2-36.67h-16.24l-13.72 21.73V5.63L316 8.12v68.66h14.97V53.9l13.72 22.88h16.24l-14.99-24.97 14.99-23.71zm-119-.67c-17.6 0-21.89 9.87-21.89 20.05v9.82c0 10.17 4.28 20.04 21.89 20.04 17.6 0 21.8-9.87 21.8-20.04v-9.82c.01-10.18-4.2-20.05-21.8-20.05zm6.82 31.32c0 3.47-1.78 6.25-6.86 6.25-5.1 0-6.86-2.79-6.86-6.25V46.12c0-3.45 1.76-6.23 6.86-6.23 5.08 0 6.86 2.78 6.86 6.23v12.63zM37.84 28.1H26.52l.02-6.25c0-3.25.31-5 4.99-5h6.25V4.38h-9.99c-12 0-16.23 6.05-16.23 16.23v7.49h-7.5v12.48h7.49v36.21h14.97v-36.2h9.99l1.33-12.49zm44.87 19.97v8.74c0 12.2 6.39 20.65 22.48 20.65 3.75 0 8.18-.4 14.98-1.92V63.37c-7.77 1.33-10 1.63-13.74 1.63-6.71 0-8.74-1.48-8.74-7.18V47.05c0-5.69 2.02-7.17 8.74-7.17 3.74 0 5.97.29 13.74 1.62V29.33c-6.8-1.53-11.23-1.93-14.98-1.93-16.09-.01-22.48 8.46-22.48 20.67zm115.55-20.68c-3.81 0-8 .61-11.23 1.81V5.62l-14.97 2.49v67.41c8.15 1.26 12.48 1.9 19.86 1.9 20.44 0 23.82-8.6 23.82-20.4V44.86c-.01-10.75-2.5-17.47-17.48-17.47zm2.5 29.75c0 4.68-1 8.04-8.34 8.04-2.03 0-3.25 0-5.39-.21V41.91c2.23-1.02 4.43-2.02 7.49-2.02 5.1 0 6.25 2.78 6.25 6.23v11.02h-.01zm89.14-29.71c-17.6 0-21.89 9.87-21.89 20.05v9.82c0 10.17 4.28 20.04 21.89 20.04 17.59 0 21.8-9.87 21.8-20.04v-9.82c.01-10.18-4.21-20.05-21.8-20.05zm6.82 31.32c0 3.47-1.8 6.25-6.87 6.25-5.09 0-6.85-2.79-6.85-6.25V46.12c0-3.45 1.77-6.23 6.85-6.23s6.88 2.78 6.88 6.23l-.01 12.63zm-150.9-31.36c-16.48 0-21.23 8.74-21.23 19.42v9.99c0 12.2 6.39 20.65 22.48 20.65 7.34 0 11.23-.4 18.71-1.92V63.36c-7.75 1.33-11.44 1.63-17.47 1.63-6.71 0-8.74-1.48-8.74-7.18V56.8h27.46v-9.99c.01-10.77-4.73-19.42-21.21-19.42zm6.25 19.42h-12.49v-1.94c0-3.45 1.16-6.25 6.25-6.25 5.08 0 6.25 2.79 6.25 6.25v1.94h-.01z"/>
	</symbol>

	<symbol id="google_hl" x="0" y="0" viewBox="0 0 364 94">
		<path d="M166.55 58.02C166.55 68.94 158 77 147.51 77s-19.04-8.05-19.04-18.98c0-11 8.55-18.98 19.04-18.98s19.04 7.97 19.04 18.98zm-8.33 0c0-6.83-4.95-11.5-10.71-11.5s-10.71 4.67-10.71 11.5c0 6.76 4.95 11.5 10.71 11.5s10.71-4.75 10.71-11.5z"/>
		<path d="M207.63 58.02c0 10.93-8.55 18.98-19.04 18.98s-19.04-8.05-19.04-18.98c0-11 8.55-18.98 19.04-18.98s19.04 7.97 19.04 18.98zm-8.34 0c0-6.83-4.95-11.5-10.71-11.5s-10.71 4.67-10.71 11.5c0 6.76 4.95 11.5 10.71 11.5s10.71-4.75 10.71-11.5z"/>
		<path d="M246.99 40.18v34.08c0 14.02-8.27 19.74-18.04 19.74-9.2 0-14.74-6.15-16.82-11.18l7.26-3.02c1.29 3.09 4.46 6.73 9.56 6.73 6.26 0 10.13-3.86 10.13-11.12v-2.73h-.29c-1.87 2.3-5.46 4.31-10 4.31-9.49 0-18.18-8.27-18.18-18.9 0-10.71 8.69-19.05 18.18-19.05 4.53 0 8.12 2.01 10 4.24h.29v-3.09l7.91-.01zm-7.32 17.9c0-6.68-4.46-11.57-10.13-11.57-5.75 0-10.57 4.89-10.57 11.57 0 6.61 4.82 11.43 10.57 11.43 5.67.01 10.13-4.81 10.13-11.43z"/>
		<path d="M260.04 20.21v55.62h-8.13V20.21h8.13z"/>
		<path d="M291.72 64.26l6.47 4.31c-2.09 3.09-7.12 8.41-15.81 8.41-10.78 0-18.84-8.33-18.84-18.98 0-11.29 8.12-18.98 17.9-18.98 9.85 0 14.67 7.84 16.24 12.07l.86 2.16-25.37 10.51c1.94 3.81 4.96 5.75 9.2 5.75 4.25.01 7.2-2.08 9.35-5.25zm-19.91-6.83l16.96-7.04c-.93-2.37-3.74-4.02-7.04-4.02-4.24 0-10.13 3.74-9.92 11.06z"/>
		<path  d="M97.7 53.08v-8.05h27.14c.27 1.4.4 3.06.4 4.86 0 6.04-1.65 13.51-6.97 18.84-5.18 5.39-11.79 8.27-20.56 8.27-16.24 0-29.9-13.23-29.9-29.47s13.66-29.47 29.9-29.47c8.99 0 15.39 3.53 20.2 8.12l-5.68 5.68c-3.45-3.23-8.12-5.75-14.52-5.75-11.86 0-21.14 9.56-21.14 21.42s9.28 21.42 21.14 21.42c7.69 0 12.07-3.09 14.88-5.9 2.28-2.28 3.77-5.53 4.36-9.97H97.7z"/>
	</symbol>
	
	<symbol x="0" y="0" viewBox="0 0 364 94"  id="wirecard_hl">
		<path d="M87.48 16.85v5.56h10.76V11.29H87.48v5.56m250.13-5.32c-.14.14-.25 5.43-.25 11.76V34.8l-1.02-1.18c-7.63-8.83-24.63-6.89-31.69 3.62-.6.89-.62.74-.64-3.97l-.02-4.9-1.34-.25c-5.24-.98-11.71 1.97-15.4 7.04l-1.05 1.45v-7.18l-5.28.1-5.28.1-.1 23.82-.1 23.82h11.12l.01-11.59c0-6.37.17-12.7.37-14.06 1.26-8.74 6.64-13.56 14.22-12.75l2.45.26-.54 1.04c-4.71 9.1-2.46 25.61 4.42 32.5 7.74 7.75 22.76 8.04 29.34.57l.87-.99.01 2.5.01 2.5h10.76v-66h-5.31c-2.92.04-5.42.15-5.56.28M124.84 28.69c-3.88 1.24-7.76 4.37-9.31 7.53-.58 1.18-.6 1.13-.6-2.78l-.01-3.99h-10.38v47.82h10.68l.17-13.07c.19-14.51.37-15.8 2.65-19.56 2.57-4.23 6.62-6.22 11.78-5.79l2.89.24v-5.34c0-5.23-.02-5.35-.83-5.56-1.58-.41-4.92-.18-7.04.5m23.94-.31c-15.81 2.64-24.09 23.06-15.82 39 8.77 16.92 38.72 13.86 41.86-4.28l.24-1.39h-10.34l-.88 1.88c-4.9 10.46-21.65 6.78-22.87-5.03l-.21-2.04h34.96l-.01-3.8c-.02-15.97-12.04-26.83-26.93-24.34m48.63-.17c-8.71 1.4-17.24 8.28-18.17 14.65-.07.47-.41 2.11-.75 3.64-2.79 12.31 1.98 25.16 10.98 29.56 14.59 7.15 31.48-.62 33.2-15.27l.24-2.08-5.5.1-5.5.1-.61 2.04c-2.29 7.66-8.67 10.74-15.39 7.43-10.47-5.15-9.49-27.02 1.37-30.62 6.01-2 12.55 1 14.01 6.43l.42 1.56h11.1V44.5c-.01-10.04-12.89-18.31-25.4-16.29m45.99.15c-9.21 1.45-14.81 5.98-16.33 13.2-.68 3.26-.95 3.1 5.32 3.1h5.46l.47-1.74c2.15-8.03 18.96-7.69 18.97.38 0 3.72-1.08 4.24-11.94 5.8-15.79 2.27-20.32 5.7-20.32 15.37 0 12.91 16.87 18.83 30.38 10.67l2.37-1.43.8 1.51c1.63 3.09 6.36 4.18 12.33 2.86l2.32-.51v-8.06l-1.87.07c-3.28.12-3.1.98-3.32-16.29l-.19-15.09-1-1.9c-3.22-6.14-13.31-9.54-23.45-7.94M14.44 29.73c-.01.15 3.29 10.91 7.32 23.91l7.33 23.63h5.75l5.75.01 4.25-17.04c2.34-9.37 4.36-16.84 4.49-16.59.13.25 2.12 7.92 4.42 17.04l4.18 16.59h11.2l7.32-23.27c4.03-12.8 7.32-23.56 7.32-23.92 0-.59-.48-.63-5.46-.54l-5.46.1-4.63 16.95c-2.55 9.33-4.73 16.96-4.84 16.96-.11 0-2.04-7.63-4.3-16.96l-4.1-16.96-5.53-.1-5.53-.1-4.22 16.78c-2.32 9.23-4.32 16.98-4.45 17.22-.13.24-2.06-6.51-4.3-15.02s-4.29-16.25-4.57-17.22l-.51-1.76h-5.72c-3.13.01-5.71.14-5.71.29m73.04 23.64v23.91h10.76V29.45H87.48v23.92m70.36-15c3.43 1.71 5.87 5.05 6.59 8.97l.25 1.39h-23.9l.24-1.5c1.23-7.74 9.92-12.31 16.82-8.86m171.13-.54c11.18 3.81 11.43 26.77.34 30.92-9.26 3.46-17.35-3.64-17.31-15.2.05-11.73 7.75-18.86 16.97-15.72m-72.06 20.26c0 2.09-.18 4.43-.39 5.2-2.25 8.09-20.28 8.36-20.16.3.07-4.62 2.91-6.32 12.74-7.65 2.53-.34 5.2-.84 5.93-1.11.73-.27 1.45-.5 1.6-.51.16-.02.28 1.68.28 3.77"/>
	</symbol>
	
	<symbol x="0" y="0" viewBox="0 0 364 94"  id="twitter_hl">
		<path d="M238.33 12.06c-4.14 1.84-8.6 3.08-13.28 3.64 4.77-2.86 8.44-7.39 10.16-12.79-4.47 2.65-9.41 4.57-14.68 5.61-4.22-4.49-10.22-7.3-16.87-7.3-12.76 0-23.12 10.35-23.12 23.11 0 1.81.2 3.58.6 5.27-19.21-.97-36.24-10.17-47.64-24.15-1.99 3.41-3.13 7.39-3.13 11.62 0 8.02 4.08 15.09 10.28 19.24-3.79-.12-7.35-1.16-10.47-2.89v.29c0 11.2 7.97 20.54 18.54 22.67-1.94.53-3.98.81-6.09.81-1.49 0-2.94-.14-4.35-.41 2.94 9.18 11.48 15.87 21.59 16.05-7.91 6.2-17.88 9.9-28.71 9.9-1.87 0-3.71-.11-5.51-.32 10.23 6.56 22.38 10.39 35.43 10.39 42.52 0 65.77-35.22 65.77-65.77 0-1-.02-2-.07-2.99 4.54-3.28 8.45-7.35 11.55-11.98z"/>
	</symbol>
	
	<symbol x="0" y="0" viewBox="0 0 364 94"  id="lyft_hl">
		<path d="M169.46 57.96c0 2.45-.26 3.67-2.03 3.67-1.85 0-2.15-1.11-2.15-3.34V38.75h-14.4v22.96c0 3.99.96 7.28 3.22 9.87 2.25 2.58 5.04 3.88 8.52 3.88 2.35 0 4.71-.72 7.17-2.17-1.35 5.12-4.39 7.68-8.95 7.68-1.43 0-2.79-.4-5.04-1.2 0 0-2.13-.67-4.92-2.3V89.4s2.77 1.74 4.92 2.54c2.63 1 5.21 1.5 7.82 1.5 5.94 0 10.9-2.27 15.08-6.82 3.51-3.82 5.16-8.84 5.16-15.06V38.75h-14.4v19.21zm32.65-33.94c-17.09 1.54-15.93 19.81-15.93 19.81v31.95c9.29 0 13.93-4.46 13.93-10.63v-4.18h6.85v-13.9h-6.85v-1.86c0-2.17.57-3.84 1.54-5.02.94-1.15 2.32-1.73 4.04-1.76 1.15.01 3.25.39 3.68 2.04l.03.13v14.49c0 5.32 1 9.59 3.16 12.81 1.7 2.52 3.92 4.52 6.74 5.99 2.82 1.47 5.78 2.2 8.96 2.2.35 0 .99-.01 1.58-.03V61.37c-2.94 0-4.21-.54-5.14-1.67-.94-1.12-1.39-3.35-1.39-6.13h5.01V38.75h-4.75c-.9-5.56-4.23-13.93-16.61-14.87 0 0-1.47-.06-2.61-.01-.91.03-2.24.15-2.24.15zm-48.68 50.61l.01.02c-1.6.98-3.48 1.66-4.88 2.02v.07l-.05-.07c-.85.19-1.7.29-2.51.29-3.51 0-6.32-1.3-8.59-3.91-2.27-2.61-3.25-5.92-3.25-9.96v-38.3h14.4v38.3c0 4.03.96 7.35 3.24 9.96.51.61 1.05 1.12 1.63 1.58z"/>
	</symbol>
	
	<symbol x="0" y="0" viewBox="0 0 364 94"  id="ibm_hl">
		<path d="M251.76 6.04l-2.08 5.82h33.78V6.04h-31.7zm-24.93 5.83l-2.05-5.84h-31.36c-.01 0 .01 5.83.01 5.84-.01.01 33.41-.01 33.4 0zm-44.83 0c-3.83-3.49-8.32-5.34-13.49-5.84h-43.36v5.84c0 .01 56.85 0 56.85 0zm-101.46-.01h39.49V6.04H80.54v5.82zm165.27 10.93h37.65v-5.8h-35.61c.02.01-2.04 5.8-2.04 5.8zm-52.39.01h37.3l-2.04-5.81h-35.25v5.81h-.01zm-68.26-.01h62.9c0-2.25-.89-3.88-1.64-5.8h-61.26v5.8zm-44.62 0h39.49v-5.8H80.54v5.8zm191.76 5.14l-28.27-.01-2.06 5.82 30.34-.01-.01-5.8zm-67.76 5.81h30.05l-2.06-5.82h-27.99v5.82zm-15.98-5.82H170.5v5.83h17.22c.59-1.75.84-3.84.84-5.83zm-80.04.03H91.55v5.8h16.97v-5.8zm28.07-.03v5.82h16.94v-5.82h-16.94zm135.7 16.53v-5.8h-32.06c0-.01-1.9 5.41-1.91 5.4l-1.98-5.4h-31.81v5.8h16.69v-4.42l1.54 4.41 31.37.01 1.54-4.42.01 4.42h16.61zm-87.06-5.8zm-48.65 5.8c0 .01 43.82 0 43.82 0 1.83-1.5 3.76-3.86 4.83-5.8h-48.64l-.01 5.8zm-45.03 0h16.97v-5.8H91.55v5.8zm180.74 5.13h-16.61v5.8h16.61v-5.8zm-67.75 0v5.8h16.7s.02-5.8 0-5.8h-16.7zm22.1 5.8l23.66-.01c.08 0 1.95-5.81 2.02-5.8h-27.76c-.01 0 2.06 5.8 2.08 5.81zm-41.1-.01c-1.42-2.08-3.22-4.13-5.21-5.8h-43.74v5.8h48.95zm-77.02-5.79H91.58v5.8h16.94v-5.8zM255.68 66.3h16.61v-5.8h-16.61v5.8zm-51.15 0h16.69v-5.8h-16.69v5.8zm25.91.01s15.97.05 15.97.03c0-.03 2.05-5.83 2.08-5.82h-20.12c-.03-.01 2.07 5.79 2.07 5.79zm-76.66 0c.02 0 0-5.8 0-5.8h-17.2v5.8c0-.01 17.19 0 17.2 0zm17.03-5.8v5.82h18.22c-.17-2-.25-4.08-1.08-5.82h-17.14zM91.58 66.3h16.94v-5.8H91.58v5.8zm164.1 10.71h27.79v-5.8h-27.79v5.8zm-62.26 0h27.81v-5.8h-27.81v5.8zm40.77 0h8.48l1.96-5.8h-12.48l2.04 5.8zM120 71.21H80.54V77H120c.02.02-.01-5.79 0-5.79zm5.16 5.79h60.95c1.4-1.55 1.78-3.89 2.19-5.8h-63.15V77h.01zm112.89 10.95h.78l2.03-5.81h-4.8l1.99 5.81zm17.63.01h27.79v-5.82h-27.79v5.82zm-130.53-.01l42.45.02c5.66-.08 10.91-2.15 14.74-5.81l-57.18-.01-.01 5.8zm68.27.01h27.81v-5.82h-27.81v5.82zM80.54 82.15c.01 0-.01 5.8 0 5.81.01.01 39.48-.01 39.46-.01s0-5.78 0-5.78c-.01.01-39.47-.02-39.46-.02z"/>
	</symbol>
</svg>
