<?xml version="1.0" standalone="no"?>
<!DOCTYPE svg PUBLIC "-//W3C//DTD SVG 20010904//EN"
 "http://www.w3.org/TR/2001/REC-SVG-20010904/DTD/svg10.dtd">
<svg version="1.0" xmlns="http://www.w3.org/2000/svg"
 width="16.000000pt" height="16.000000pt" viewBox="0 0 16.000000 16.000000"
 preserveAspectRatio="xMidYMid meet">
<g transform="translate(0.000000,16.000000) scale(0.006250,-0.006250)"
fill="#000000" stroke="none">
<path d="M383 2526 c-176 -43 -322 -194 -353 -367 -12 -63 -9 -1748 3 -1788
32 -112 134 -240 233 -293 107 -58 86 -56 1007 -57 610 -1 861 2 895 10 185
46 329 192 362 368 14 73 14 1689 0 1762 -33 177 -192 336 -369 369 -84 16
-1712 12 -1778 -4z"/>
</g>
</svg>
