<?xml version="1.0" encoding="UTF-8"?>
<svg width="796px" height="268px" viewBox="0 0 796 268" version="1.1" xmlns="http://www.w3.org/2000/svg" xmlns:xlink="http://www.w3.org/1999/xlink">
    <!-- Generator: Sketch 50.2 (55047) - http://www.bohemiancoding.com/sketch -->
    <title>article1</title>
    <desc>Created with Sketch.</desc>
    <defs></defs>
    <g id="Page-1" stroke="none" stroke-width="1" fill="none" fill-rule="evenodd">
        <g id="Artboard-Copy-2" transform="translate(-441.000000, -395.000000)">
            <g id="article1" transform="translate(433.000000, 385.000000)">
                <path d="M365.124742,21.6683707 L370.711358,21.6683707 L367.906061,14.3554186 L365.124742,21.6683707 Z M360.880832,28.1661085 L360.880832,27.7345244 L362.223538,26.0081882 L367.37857,13.0127127 L366.851078,11.5740991 L368.52946,10.1834394 L368.769229,10.1834394 L375.362875,26.4877261 L376.657627,27.7345244 L376.657627,28.1661085 L370.183866,28.1661085 L370.183866,27.4947555 L371.838272,27.4947555 L372.557578,26.4877261 L371.071011,22.6274464 L364.765088,22.6274464 L363.494313,26.0081882 L364.333504,27.4947555 L366.299609,27.4947555 L366.299609,28.1661085 L360.880832,28.1661085 Z M385.960661,19.4864735 L387.97472,19.4864735 C389.916848,19.4864735 391.930907,18.3355827 391.930907,15.9378935 C391.930907,13.3244123 390.228548,12.1015908 388.214489,12.1015908 C387.639043,12.1015908 387.111552,12.1974983 386.655991,12.2934059 L385.960661,12.485221 L385.960661,19.4864735 Z M380.613814,28.1661085 L380.613814,27.4947555 L382.531965,27.4947555 L383.491041,26.4637492 L383.491041,12.8208975 L382.531965,11.8138681 L380.613814,11.8138681 L380.613814,11.1425151 L388.957772,11.1425151 C392.60226,11.1425151 394.640296,12.8448744 394.640296,15.602217 C394.640296,17.7121835 392.91396,19.6782887 389.581172,20.1338496 L389.581172,20.1818034 L390.995808,20.8291795 L394.904042,26.727495 L396.558447,27.7345244 L396.558447,28.1661085 L392.650214,28.1661085 L388.598119,21.7403014 C388.118581,20.9730409 387.543136,20.4455492 386.799852,20.4455492 L385.960661,20.4455492 L385.960661,26.4637492 L386.919737,27.4947555 L389.173564,27.4947555 L389.173564,28.1661085 L380.613814,28.1661085 Z M400.514634,15.9378935 L400.514634,10.8308155 L400.994172,10.8308155 L401.833363,11.1425151 L413.19841,11.1425151 L414.061578,10.8308155 L414.541116,10.8308155 L414.541116,15.9378935 L414.109532,15.9378935 L412.383196,12.1015908 L408.762685,12.1015908 L408.762685,26.4637492 L409.721761,27.4947555 L411.807751,27.4947555 L411.807751,28.1661085 L403.248,28.1661085 L403.248,27.4947555 L405.310013,27.4947555 L406.293065,26.4637492 L406.293065,12.1015908 L402.672555,12.1015908 L400.946218,15.9378935 L400.514634,15.9378935 Z M419.072749,28.1661085 L419.072749,27.4947555 L421.014877,27.4947555 L421.949976,26.4877261 L421.949976,12.8208975 L421.014877,11.8138681 L419.072749,11.8138681 L419.072749,11.1425151 L427.416707,11.1425151 L427.416707,11.8138681 L425.450602,11.8138681 L424.53948,12.8208975 L424.53948,26.4877261 L425.450602,27.4947555 L427.416707,27.4947555 L427.416707,28.1661085 L419.072749,28.1661085 Z M432.379924,19.6782887 C432.379924,14.7870027 435.640781,10.8308155 440.723882,10.8308155 C443.025664,10.8308155 444.512231,11.3343302 445.543238,11.8138681 L446.14266,10.926723 L446.861967,10.926723 L446.861967,16.1057317 L446.14266,16.1057317 L445.950845,15.7221015 C444.919838,13.6840656 443.577132,11.7179605 440.364229,11.7179605 C436.911556,11.7898912 434.633752,14.715072 434.633752,19.0548895 C434.633752,23.0110767 437.463025,26.3918185 441.395235,26.3918185 C443.792924,26.3918185 445.471307,25.1929739 446.718105,23.154938 L447.389458,23.394707 C446.742082,24.8572974 445.351422,26.943287 443.049641,27.9982703 C442.354311,28.3099699 441.563073,28.4778081 440.723882,28.4778081 L440.484113,28.4778081 C435.448966,28.4778081 432.379924,24.5216209 432.379924,19.6782887 Z M452.064952,28.1661085 L452.064952,27.4947555 L454.00708,27.4947555 L454.942179,26.4877261 L454.942179,12.8208975 L454.00708,11.8138681 L452.064952,11.8138681 L452.064952,11.1425151 L460.72061,11.1425151 L460.72061,11.8138681 L458.322921,11.8138681 L457.411799,12.8208975 L457.411799,26.4877261 L458.131106,27.2070328 L462.518877,27.2070328 L465.084405,23.8502679 L465.515989,23.8502679 L464.676797,28.1661085 L452.064952,28.1661085 Z M469.568083,28.1661085 L469.568083,27.4947555 L471.510211,27.4947555 L472.44531,26.4877261 L472.44531,12.8208975 L471.510211,11.8138681 L469.568083,11.8138681 L469.568083,11.1425151 L482.755374,11.1425151 L482.755374,15.2185867 L482.32379,15.2185867 L480.597454,12.1015908 L474.91493,12.1015908 L474.91493,18.6472823 L478.46351,18.6472823 L479.950078,15.7700553 L480.381662,15.7700553 L480.381662,22.4835851 L479.950078,22.4835851 L478.46351,19.606358 L474.91493,19.606358 L474.91493,27.2070328 L480.789269,27.2070328 L483.354796,23.8502679 L483.78638,23.8502679 L482.947189,28.1661085 L469.568083,28.1661085 Z" id="Article" fill="#000000"></path>
                <rect id="Rectangle-3" fill="#FFFFFF" x="66" y="92" width="715" height="149"></rect>
                <text id="This-s-ilnise-nry-po" font-family="Stanley-Regular, Stanley" font-size="51.1507033" font-weight="normal" line-spacing="55.9460817" letter-spacing="-0.182681088" fill="#000000">
                    <tspan x="84.6628825" y="135.618912">THIS S ILNISE NRY POND </tspan>
                    <tspan x="2.56965732" y="191.564994">MERONE ANELRIEN ANS NOMS </tspan>
                    <tspan x="145.258198" y="247.511076">TIRER. BE ELEY TAS.</tspan>
                </text>
                <path d="M193.588692,277.5 L621.504674,277.5" id="Line-3-Copy-2" stroke="#000000" stroke-linecap="square"></path>
                <path d="M193.588692,68.5 L621.504674,68.5" id="Line-3-Copy-4" stroke="#000000" stroke-linecap="square"></path>
            </g>
        </g>
    </g>
</svg>