<?xml version="1.0" encoding="UTF-8"?>
<svg width="46px" height="46px" viewBox="0 0 46 46" version="1.1" xmlns="http://www.w3.org/2000/svg" xmlns:xlink="http://www.w3.org/1999/xlink">
    <!-- Generator: Sketch 51.3 (57544) - http://www.bohemiancoding.com/sketch -->
    <title>behance-s</title>
    <desc>Created with Sketch.</desc>
    <defs></defs>
    <g id="Page-1" stroke="none" stroke-width="1" fill="none" fill-rule="evenodd">
        <g id="Artboard-Copy-6" transform="translate(-595.000000, -592.000000)">
            <g id="behance-s" transform="translate(596.000000, 593.000000)">
                <path d="M22,44 C39.3865661,44 44,38.1513114 44,22 C44,5.84868863 38.5252022,0 22,0 C5.47479782,2.0237536e-15 0,6.27436268 0,22 C9.62917571e-16,37.7256373 4.61343386,44 22,44 Z" id="Oval-3-Copy-4" stroke="#000000" opacity="0.100000001"></path>
                <path d="M20.3481191,20.6506667 L13.2488579,20.6506667 L13.2488579,15.0186667 L20.3481191,15.0186667 C21.8788769,15.0186667 23.1244754,16.282112 23.1244754,17.8346667 C23.1244754,19.3872213 21.8788769,20.6506667 20.3481191,20.6506667 M23.1244754,24.4053333 C23.1244754,25.957888 21.8788769,27.2213333 20.3481191,27.2213333 L13.2488579,27.2213333 L13.2488579,21.5893333 L20.3481191,21.5893333 C21.8788769,21.5893333 23.1244754,22.8527787 23.1244754,24.4053333 M24.0533333,17.8346667 C24.0533333,15.763968 22.3916065,14.08 20.3481191,14.08 L12.784429,14.08 C12.5280642,14.08 12.32,14.2902613 12.32,14.5493333 L12.32,21.12 L12.32,27.6906667 C12.32,27.9497387 12.5280642,28.16 12.784429,28.16 L20.3481191,28.16 C22.3916065,28.16 24.0533333,26.476032 24.0533333,24.4053333 C24.0533333,22.9823147 23.2591598,21.7573547 22.1045894,21.12 C23.2591598,20.483584 24.0533333,19.2576853 24.0533333,17.8346667" id="Fill-1" fill="#000000" opacity="0.600000024"></path>
                <path d="M25.6776,22.9052632 C25.8942667,20.9373642 27.5496,19.4021053 29.5533333,19.4021053 C31.5579333,19.4021053 33.2132667,20.9373642 33.4290667,22.9052632 L25.6776,22.9052632 Z M34.32,23.3431579 C34.32,20.6868884 32.1819333,18.5263158 29.5533333,18.5263158 C26.9247333,18.5263158 24.7866667,20.6868884 24.7866667,23.3431579 C24.7866667,25.9994274 26.9247333,28.16 29.5533333,28.16 C31.4782,28.16 33.2046,27.0013305 33.9490667,25.2059621 C34.0418,24.9835116 33.9386667,24.7269053 33.7176667,24.6331958 C33.4984,24.5386105 33.2427333,24.6437053 33.1508667,24.8670316 C32.5407333,26.3357305 31.1289333,27.2842105 29.5533333,27.2842105 C27.5496,27.2842105 25.8942667,25.7498274 25.6776,23.7810526 L33.8866667,23.7810526 C34.1267333,23.7810526 34.32,23.5848758 34.32,23.3431579 Z" id="Fill-4" fill="#000000" opacity="0.600000024"></path>
                <path d="M27.4266667,15.5621053 L30.9466667,15.5621053 C31.1895467,15.5621053 31.3866667,15.3961095 31.3866667,15.1915789 C31.3866667,14.9870484 31.1895467,14.8210526 30.9466667,14.8210526 L27.4266667,14.8210526 C27.1837867,14.8210526 26.9866667,14.9870484 26.9866667,15.1915789 C26.9866667,15.3961095 27.1837867,15.5621053 27.4266667,15.5621053" id="Fill-6" fill="#000000" opacity="0.600000024"></path>
            </g>
        </g>
    </g>
</svg>