<?xml version="1.0" encoding="UTF-8"?>
<svg width="38px" height="24px" viewBox="0 0 38 24" version="1.1" xmlns="http://www.w3.org/2000/svg" xmlns:xlink="http://www.w3.org/1999/xlink">
    <!-- Generator: Sketch 46.2 (44496) - http://www.bohemiancoding.com/sketch -->
    <title>behance</title>
    <desc>Created with Sketch.</desc>
    <defs></defs>
    <g id="Page-1" stroke="none" stroke-width="1" fill="none" fill-rule="evenodd" opacity="0.699999988">
        <g id="Artboard" transform="translate(-122.000000, -4065.000000)" fill="#FFFFFF">
            <g id="behance" transform="translate(122.000000, 4065.000000)">
                <path d="M13.6842939,11.2 L1.58328056,11.2 L1.58328056,1.6 L13.6842939,1.6 C16.2935402,1.6 18.4167194,3.7536 18.4167194,6.4 C18.4167194,9.0464 16.2935402,11.2 13.6842939,11.2 M18.4167194,17.6 C18.4167194,20.2464 16.2935402,22.4 13.6842939,22.4 L1.58328056,22.4 L1.58328056,12.8 L13.6842939,12.8 C16.2935402,12.8 18.4167194,14.9536 18.4167194,17.6 M20,6.4 C20,2.8704 17.1675111,0 13.6842939,0 L0.791640279,0 C0.354654845,0 0,0.3584 0,0.8 L0,12 L0,23.2 C0,23.6416 0.354654845,24 0.791640279,24 L13.6842939,24 C17.1675111,24 20,21.1296 20,17.6 C20,15.1744 18.6462951,13.0864 16.6782774,12 C18.6462951,10.9152 20,8.8256 20,6.4" id="Fill-1"></path>
                <path d="M22.5887273,14.7272727 C22.9750909,11.2546364 25.9269091,8.54545455 29.5,8.54545455 C33.0746364,8.54545455 36.0264545,11.2546364 36.4112727,14.7272727 L22.5887273,14.7272727 Z M38,15.5 C38,10.8126364 34.1873636,7 29.5,7 C24.8126364,7 21,10.8126364 21,15.5 C21,20.1873636 24.8126364,24 29.5,24 C32.9324545,24 36.011,21.9553636 37.3385455,18.7871818 C37.5039091,18.3946364 37.32,17.9418182 36.9259091,17.7764545 C36.5349091,17.6095455 36.079,17.795 35.9151818,18.1890909 C34.8271818,20.7808182 32.3096364,22.4545455 29.5,22.4545455 C25.9269091,22.4545455 22.9750909,19.7469091 22.5887273,16.2727273 L37.2272727,16.2727273 C37.6553636,16.2727273 38,15.9265455 38,15.5 L38,15.5 Z" id="Fill-4"></path>
                <path d="M25.8,2 L32.2,2 C32.6416,2 33,1.776 33,1.5 C33,1.224 32.6416,1 32.2,1 L25.8,1 C25.3584,1 25,1.224 25,1.5 C25,1.776 25.3584,2 25.8,2" id="Fill-6"></path>
            </g>
        </g>
    </g>
</svg>