<?xml version="1.0" encoding="UTF-8"?>
<svg width="66px" height="78px" viewBox="0 0 66 78" version="1.1" xmlns="http://www.w3.org/2000/svg" xmlns:xlink="http://www.w3.org/1999/xlink">
    <!-- Generator: Sketch 46.2 (44496) - http://www.bohemiancoding.com/sketch -->
    <title>digital_branding</title>
    <desc>Created with Sketch.</desc>
    <defs>
        <circle id="path-1" cx="3.5" cy="32.5" r="3.5"></circle>
        <circle id="path-2" cx="20.5" cy="38.5" r="3.5"></circle>
        <circle id="path-3" cx="42.5" cy="38.5" r="3.5"></circle>
        <circle id="path-4" cx="60.5" cy="33.5" r="3.5"></circle>
        <circle id="path-5" cx="32.5" cy="3.5" r="3.5"></circle>
        <circle id="path-6" cx="32.5" cy="72.5" r="3.5"></circle>
    </defs>
    <g id="Page-1" stroke="none" stroke-width="1" fill="none" fill-rule="evenodd">
        <g id="Artboard" transform="translate(-237.000000, -1338.000000)">
            <g id="digital_branding" transform="translate(238.000000, 1339.000000)">
                <path d="M32.5,4.5 L42.5,37.5" id="Line-4" stroke="#E5E5E5" stroke-linecap="square"></path>
                <path d="M32.5,39.5 L42.5,72.5" id="Line-4-Copy-2" stroke="#E5E5E5" stroke-linecap="square" transform="translate(37.500000, 56.000000) scale(-1, 1) translate(-37.500000, -56.000000) "></path>
                <path d="M32.5,33.5 L60.5,72.5" id="Line-4-Copy-2" stroke="#E5E5E5" stroke-linecap="square" transform="translate(46.500000, 53.000000) scale(-1, 1) translate(-46.500000, -53.000000) "></path>
                <path d="M32.5,32.5 L3.5,72.5" id="Line-4-Copy-2" stroke="#E5E5E5" stroke-linecap="square" transform="translate(18.000000, 52.500000) scale(-1, 1) translate(-18.000000, -52.500000) "></path>
                <path d="M32.5,32.5 L3.5,2.5" id="Line-4-Copy-2" stroke="#E5E5E5" stroke-linecap="square" transform="translate(18.000000, 17.500000) scale(-1, 1) translate(-18.000000, -17.500000) "></path>
                <path d="M32.5,32.5 L60.5,2.5" id="Line-4-Copy-2" stroke="#E5E5E5" stroke-linecap="square" transform="translate(46.500000, 17.500000) scale(-1, 1) translate(-46.500000, -17.500000) "></path>
                <path d="M20.5,3.5 L32.5,37.5" id="Line-4-Copy" stroke="#E5E5E5" stroke-linecap="square" transform="translate(26.500000, 20.500000) scale(-1, 1) translate(-26.500000, -20.500000) "></path>
                <path d="M20.5,38.5 L32.5,72.5" id="Line-4-Copy-3" stroke="#E5E5E5" stroke-linecap="square"></path>
                <path d="M59.5,33.5 L42.5,38.5" id="Line-5" stroke="#E5E5E5" stroke-linecap="square"></path>
                <path d="M19.5,32.5 L3.5,38.5" id="Line-5-Copy" stroke="#E5E5E5" stroke-linecap="square" transform="translate(11.500000, 35.500000) scale(-1, 1) translate(-11.500000, -35.500000) "></path>
                <path d="M20.5,38.5 L42.590722,38.5" id="Line-6" stroke="#E5E5E5" stroke-linecap="square"></path>
                <g id="Oval-Copy-5" transform="translate(3.500000, 32.500000) rotate(-90.000000) translate(-3.500000, -32.500000) ">
                    <use fill="#515151" fill-rule="evenodd" xlink:href="#path-1"></use>
                    <circle stroke="#FFFFFF" stroke-width="2" cx="3.5" cy="32.5" r="2.5"></circle>
                    <use stroke="#FFFFFF" stroke-width="1" xlink:href="#path-1"></use>
                </g>
                <g id="Oval-Copy-10" transform="translate(20.500000, 38.500000) rotate(-90.000000) translate(-20.500000, -38.500000) ">
                    <use fill="#515151" fill-rule="evenodd" xlink:href="#path-2"></use>
                    <circle stroke="#FFFFFF" stroke-width="2" cx="20.5" cy="38.5" r="2.5"></circle>
                    <use stroke="#FFFFFF" stroke-width="1" xlink:href="#path-2"></use>
                </g>
                <g id="Oval-Copy-11" transform="translate(42.500000, 38.500000) rotate(-90.000000) translate(-42.500000, -38.500000) ">
                    <use fill="#515151" fill-rule="evenodd" xlink:href="#path-3"></use>
                    <circle stroke="#FFFFFF" stroke-width="2" cx="42.5" cy="38.5" r="2.5"></circle>
                    <use stroke="#FFFFFF" stroke-width="1" xlink:href="#path-3"></use>
                </g>
                <g id="Oval-Copy-12" transform="translate(60.500000, 33.500000) rotate(-90.000000) translate(-60.500000, -33.500000) ">
                    <use fill="#515151" fill-rule="evenodd" xlink:href="#path-4"></use>
                    <circle stroke="#FFFFFF" stroke-width="2" cx="60.5" cy="33.5" r="2.5"></circle>
                    <use stroke="#FFFFFF" stroke-width="1" xlink:href="#path-4"></use>
                </g>
                <g id="Oval-Copy-13" transform="translate(32.500000, 3.500000) rotate(-90.000000) translate(-32.500000, -3.500000) ">
                    <use fill="#515151" fill-rule="evenodd" xlink:href="#path-5"></use>
                    <circle stroke="#FFFFFF" stroke-width="2" cx="32.5" cy="3.5" r="2.5"></circle>
                    <use stroke="#FFFFFF" stroke-width="1" xlink:href="#path-5"></use>
                </g>
                <g id="Oval-Copy-14" transform="translate(32.500000, 72.500000) rotate(-90.000000) translate(-32.500000, -72.500000) ">
                    <use fill="#515151" fill-rule="evenodd" xlink:href="#path-6"></use>
                    <circle stroke="#FFFFFF" stroke-width="2" cx="32.5" cy="72.5" r="2.5"></circle>
                    <use stroke="#FFFFFF" stroke-width="1" xlink:href="#path-6"></use>
                </g>
            </g>
        </g>
    </g>
</svg>