<?xml version="1.0" encoding="UTF-8"?>
<svg width="25px" height="25px" viewBox="0 0 25 25" version="1.1" xmlns="http://www.w3.org/2000/svg" xmlns:xlink="http://www.w3.org/1999/xlink">
    <!-- Generator: Sketch 51.3 (57544) - http://www.bohemiancoding.com/sketch -->
    <title>dribbble</title>
    <desc>Created with Sketch.</desc>
    <defs></defs>
    <g id="Page-1" stroke="none" stroke-width="1" fill="none" fill-rule="evenodd">
        <g id="Artboard-Copy-6" transform="translate(-378.000000, -529.000000)" fill="#828282" fill-rule="nonzero">
            <g id="dribbble" transform="translate(377.000000, 528.000000)">
                <path d="M22.2765,5.2575 C19.9695,2.8005 16.854,1.449 13.5,1.449 C11.925,1.449 10.3875,1.752 8.9295,2.352 C4.7925,4.047 1.95,7.86 1.509,12.2985 C1.4715,12.6945 1.449,13.0935 1.449,13.5 C1.449,17.142 3.072,20.55 5.9055,22.8525 C8.046,24.5925 10.7445,25.551 13.5,25.551 C15.2385,25.551 16.929,25.179 18.528,24.444 C21.792,22.941 24.198,20.0925 25.1295,16.6275 C25.1295,16.6275 25.1295,16.626 25.1295,16.626 C25.4085,15.576 25.551,14.5245 25.551,13.5 C25.551,10.431 24.3885,7.5045 22.2765,5.2575 Z M23.754,15.4575 C23.4885,15.4005 23.2305,15.375 22.9665,15.3285 C22.617,15.267 22.2675,15.2025 21.9225,15.1575 C21.513,15.105 21.1125,15.078 20.7105,15.051 C20.3865,15.03 20.0625,15.0015 19.7445,14.997 C19.6455,14.9955 19.5405,14.9805 19.4415,14.9805 C18.9135,14.9805 18.39,15.006 17.8695,15.051 C17.802,15.057 17.736,15.0705 17.6685,15.0765 C17.2485,15.1185 16.83,15.1665 16.419,15.2385 C16.3515,15.063 16.275,14.898 16.206,14.724 C15.927,14.0175 15.639,13.3215 15.342,12.636 C15.2685,12.468 15.204,12.291 15.1305,12.1245 C15.288,12.0615 15.429,11.991 15.582,11.925 C15.738,11.8575 15.894,11.7915 16.044,11.721 C16.377,11.565 16.6935,11.403 16.9995,11.235 C17.097,11.181 17.2005,11.1315 17.295,11.0775 C17.685,10.8525 18.0525,10.617 18.399,10.3755 C18.4815,10.317 18.5565,10.257 18.636,10.1985 C18.897,10.008 19.1475,9.816 19.383,9.621 C19.485,9.5355 19.581,9.4515 19.6785,9.366 C19.884,9.186 20.079,9.006 20.2635,8.826 C20.3475,8.745 20.4315,8.664 20.511,8.5815 C20.721,8.367 20.916,8.1525 21.1005,7.9395 C21.1365,7.8975 21.1785,7.8555 21.213,7.8135 C21.4095,7.5795 21.594,7.3485 21.762,7.122 C23.178,8.9475 23.949,11.1765 23.949,13.5 C23.949,14.1405 23.883,14.796 23.754,15.4575 Z M13.5,3.051 C16.194,3.051 18.711,4.059 20.658,5.904 C20.637,5.9355 20.619,5.964 20.5965,5.994 C20.5395,6.0735 20.4765,6.1545 20.4165,6.234 C20.307,6.3795 20.1915,6.5265 20.0685,6.6765 C19.995,6.765 19.9185,6.855 19.8405,6.9435 C19.7115,7.0905 19.575,7.239 19.4325,7.3875 C19.347,7.4775 19.26,7.5675 19.1685,7.6575 C19.008,7.815 18.834,7.9725 18.657,8.1285 C18.5685,8.2065 18.486,8.2845 18.393,8.3625 C18.117,8.5935 17.826,8.8215 17.511,9.042 C17.4915,9.0555 17.4675,9.069 17.4465,9.084 C17.151,9.2895 16.836,9.489 16.5045,9.681 C16.383,9.7515 16.2495,9.8175 16.122,9.8865 C15.879,10.0185 15.63,10.1475 15.369,10.269 C15.2085,10.344 15.039,10.416 14.871,10.4865 C14.736,10.5435 14.5905,10.596 14.451,10.6515 C14.4135,10.572 14.3745,10.503 14.337,10.4235 C14.0235,9.771 13.71,9.138 13.3995,8.544 C13.3755,8.4975 13.3515,8.4555 13.3275,8.409 C13.0305,7.842 12.7395,7.3095 12.4515,6.798 C12.3855,6.681 12.321,6.564 12.255,6.45 C11.9655,5.943 11.685,5.4645 11.415,5.0175 C11.3535,4.9155 11.2965,4.824 11.2365,4.7265 C10.9935,4.3305 10.7595,3.9585 10.539,3.6165 C10.5165,3.582 10.4895,3.537 10.467,3.5025 C11.4495,3.204 12.4665,3.051 13.5,3.051 Z M8.9415,4.101 C8.9505,4.1145 8.9595,4.128 8.9685,4.1415 C9.2055,4.503 9.4635,4.9095 9.732,5.3415 C9.789,5.433 9.8475,5.5275 9.9045,5.622 C10.182,6.0735 10.4685,6.5535 10.767,7.0755 C10.8,7.1325 10.833,7.194 10.866,7.251 C11.1465,7.743 11.4345,8.2695 11.727,8.8185 C11.7825,8.9235 11.838,9.0255 11.895,9.1335 C12.2055,9.7245 12.519,10.35 12.834,11.0025 C12.8565,11.049 12.879,11.097 12.9015,11.1435 C12.4035,11.283 11.9145,11.4345 11.3835,11.535 C11.3025,11.55 11.2185,11.5605 11.1375,11.5755 C9.5265,11.8605 7.7685,11.9625 5.8875,11.8905 C5.742,11.8845 5.601,11.8845 5.4525,11.877 C4.7295,11.8395 3.9735,11.7525 3.2145,11.6625 C3.7995,8.37 5.922,5.5635 8.9415,4.101 Z M3.051,13.5 C3.051,13.428 3.0525,13.3545 3.054,13.2825 C3.267,13.308 3.465,13.3095 3.6765,13.3305 C4.2645,13.3905 4.842,13.437 5.4105,13.467 C5.748,13.485 6.0825,13.4985 6.4125,13.5045 C6.615,13.509 6.831,13.5285 7.0305,13.5285 C7.0305,13.5285 7.0305,13.5285 7.032,13.5285 C7.4625,13.5285 7.8765,13.503 8.2935,13.4835 C8.469,13.476 8.649,13.476 8.8215,13.4655 C9.597,13.4145 10.35,13.329 11.079,13.212 C11.268,13.182 11.4465,13.14 11.631,13.1055 C12.1905,13.0005 12.7335,12.876 13.26,12.7305 C13.3695,12.7005 13.4895,12.6855 13.596,12.6525 C13.6725,12.822 13.746,12.9945 13.821,13.167 C14.1015,13.809 14.3745,14.4615 14.637,15.123 C14.7,15.282 14.763,15.4425 14.826,15.603 C14.664,15.6495 14.514,15.708 14.355,15.759 C14.148,15.8235 13.9425,15.8895 13.743,15.9615 C13.4145,16.0785 13.0995,16.2075 12.7875,16.341 C12.618,16.4145 12.444,16.482 12.279,16.56 C11.9055,16.7355 11.547,16.9245 11.199,17.121 C11.115,17.1675 11.025,17.211 10.9425,17.259 C10.515,17.508 10.11,17.772 9.723,18.0435 C9.615,18.1185 9.5175,18.198 9.4125,18.2745 C9.1395,18.4755 8.871,18.6765 8.619,18.8835 C8.4915,18.9885 8.373,19.0935 8.25,19.1985 C8.0355,19.383 7.8285,19.5675 7.629,19.7535 C7.509,19.8675 7.392,19.9785 7.278,20.0925 C7.0965,20.2725 6.9225,20.4495 6.756,20.628 C6.6495,20.742 6.5415,20.8545 6.441,20.967 C6.4035,21.009 6.36,21.0525 6.3225,21.093 C4.236,19.1205 3.051,16.395 3.051,13.5 Z M7.578,22.1055 C7.605,22.0755 7.626,22.0485 7.653,22.0185 C7.743,21.918 7.842,21.8175 7.9365,21.7155 C8.0895,21.552 8.2485,21.3885 8.415,21.225 C8.5215,21.12 8.6325,21.015 8.745,20.91 C8.919,20.7465 9.102,20.583 9.2895,20.421 C9.4095,20.3175 9.5295,20.214 9.654,20.112 C9.861,19.9425 10.08,19.7775 10.3005,19.614 C10.422,19.524 10.539,19.4325 10.6635,19.3455 C10.9635,19.1355 11.2785,18.9345 11.6025,18.7395 C11.6625,18.7035 11.7165,18.6645 11.778,18.6285 C12.165,18.4035 12.5715,18.192 12.9945,17.994 C13.1235,17.934 13.2615,17.883 13.3935,17.826 C13.698,17.694 14.007,17.5665 14.3295,17.4525 C14.5005,17.3925 14.6775,17.34 14.8545,17.2845 C15.0285,17.2305 15.2115,17.184 15.3915,17.1345 C15.729,18.075 16.059,19.0215 16.3545,19.9905 C16.368,20.034 16.383,20.0745 16.3965,20.118 C16.707,21.147 16.977,22.1955 17.2365,23.2485 C14.0295,24.489 10.3635,24.0345 7.578,22.1055 Z M18.729,22.5345 C18.492,21.5925 18.231,20.658 17.9535,19.734 C17.943,19.698 17.934,19.6605 17.9235,19.6245 C17.634,18.669 17.325,17.727 16.9965,16.8 C17.214,16.7655 17.43,16.725 17.6505,16.6995 C17.8335,16.6785 18.0165,16.6545 18.201,16.641 C18.7365,16.6005 19.278,16.584 19.83,16.596 C19.8915,16.5975 19.9515,16.5915 20.013,16.5945 C20.6325,16.6155 21.261,16.6755 21.8985,16.7625 C22.071,16.7865 22.2465,16.8225 22.4205,16.851 C22.7175,16.9005 23.019,16.9665 23.319,17.0295 C22.488,19.3545 20.868,21.2985 18.729,22.5345 Z" id="Shape"></path>
            </g>
        </g>
    </g>
</svg>