<?xml version="1.0" encoding="UTF-8"?>
<svg width="78px" height="72px" viewBox="0 0 78 72" version="1.1" xmlns="http://www.w3.org/2000/svg" xmlns:xlink="http://www.w3.org/1999/xlink">
    <!-- Generator: Sketch 47.1 (45422) - http://www.bohemiancoding.com/sketch -->
    <title>export-formats</title>
    <desc>Created with Sketch.</desc>
    <defs>
        <circle id="path-1" cx="39" cy="3" r="3"></circle>
        <circle id="path-2" cx="39" cy="60" r="3"></circle>
        <circle id="path-3" cx="3.5" cy="60" r="3"></circle>
        <circle id="path-4" cx="74" cy="60" r="3"></circle>
        <circle id="path-5" cx="56" cy="31" r="3"></circle>
        <circle id="path-6" cx="21" cy="31" r="3"></circle>
    </defs>
    <g id="Page-1" stroke="none" stroke-width="1" fill="none" fill-rule="evenodd">
        <g id="Artboard-Copy-14" transform="translate(-1086.000000, -3698.000000)">
            <g id="export-formats" transform="translate(1086.000000, 3699.000000)">
                <polygon id="Stroke-2" stroke="#E5E5E5" stroke-linecap="round" stroke-linejoin="round" points="56 13 38.5 24 21 13 38.5 2"></polygon>
                <path d="M38.5,24 L38.5,41" id="Stroke-4" stroke="#E5E5E5" stroke-linecap="round" stroke-linejoin="round"></path>
                <path d="M38.5,42 L38.5,59" id="Stroke-4-Copy-3" stroke="#E5E5E5" stroke-linecap="round" stroke-linejoin="round"></path>
                <path d="M74,42 L74,59" id="Stroke-4-Copy-4" stroke="#E5E5E5" stroke-linecap="round" stroke-linejoin="round"></path>
                <path d="M56,52.4928586 L56,70" id="Stroke-4-Copy-6" stroke="#E5E5E5" stroke-linecap="round" stroke-linejoin="round"></path>
                <path d="M21,52.4928586 L21,70" id="Stroke-4-Copy-7" stroke="#E5E5E5" stroke-linecap="round" stroke-linejoin="round"></path>
                <path d="M3.5,42 L3.5,59" id="Stroke-4-Copy-5" stroke="#E5E5E5" stroke-linecap="round" stroke-linejoin="round"></path>
                <path d="M21,13 L21,30" id="Stroke-4-Copy" stroke="#E5E5E5" stroke-linecap="round" stroke-linejoin="round"></path>
                <path d="M56,13 L56,30" id="Stroke-4-Copy-2" stroke="#E5E5E5" stroke-linecap="round" stroke-linejoin="round"></path>
                <polygon id="Stroke-7" stroke="#E5E5E5" stroke-linecap="round" stroke-linejoin="round" points="73.6777139 41.8547453 56.0888569 52.4468584 38.5 41.8547453 56.0888569 30.5"></polygon>
                <polygon id="Stroke-7-Copy" stroke="#E5E5E5" stroke-linecap="round" stroke-linejoin="round" points="38.6777139 41.8547453 21.0888569 52.4468584 3.5 41.8547453 21.0888569 30.5"></polygon>
                <polyline id="Stroke-7-Copy-2" stroke="#E5E5E5" stroke-linecap="round" stroke-linejoin="round" points="38.4323847 59.5 21.0888569 70.0921131 3.5 59.5"></polyline>
                <polyline id="Stroke-7-Copy-3" stroke="#E5E5E5" stroke-linecap="round" stroke-linejoin="round" points="74 59.5 56.0090723 70.0921131 38.5 59.5"></polyline>
                <g id="Oval-Copy-139" transform="translate(39.000000, 3.000000) rotate(-90.000000) translate(-39.000000, -3.000000) ">
                    <use fill="#515151" fill-rule="evenodd" xlink:href="#path-1"></use>
                    <circle stroke="#FFFFFF" stroke-width="1.5" cx="39" cy="3" r="2.25"></circle>
                    <use stroke="#FFFFFF" stroke-width="1" xlink:href="#path-1"></use>
                </g>
                <g id="Oval-Copy-138" transform="translate(39.000000, 60.000000) rotate(-90.000000) translate(-39.000000, -60.000000) ">
                    <use fill="#515151" fill-rule="evenodd" xlink:href="#path-2"></use>
                    <circle stroke="#FFFFFF" stroke-width="1.5" cx="39" cy="60" r="2.25"></circle>
                    <use stroke="#FFFFFF" stroke-width="1" xlink:href="#path-2"></use>
                </g>
                <g id="Oval-Copy-145" transform="translate(3.500000, 60.000000) rotate(-90.000000) translate(-3.500000, -60.000000) ">
                    <use fill="#515151" fill-rule="evenodd" xlink:href="#path-3"></use>
                    <circle stroke="#FFFFFF" stroke-width="1.5" cx="3.5" cy="60" r="2.25"></circle>
                    <use stroke="#FFFFFF" stroke-width="1" xlink:href="#path-3"></use>
                </g>
                <g id="Oval-Copy-147" transform="translate(74.000000, 60.000000) rotate(-90.000000) translate(-74.000000, -60.000000) ">
                    <use fill="#515151" fill-rule="evenodd" xlink:href="#path-4"></use>
                    <circle stroke="#FFFFFF" stroke-width="1.5" cx="74" cy="60" r="2.25"></circle>
                    <use stroke="#FFFFFF" stroke-width="1" xlink:href="#path-4"></use>
                </g>
                <g id="Oval-Copy-137" transform="translate(56.000000, 31.000000) rotate(-90.000000) translate(-56.000000, -31.000000) ">
                    <use fill="#515151" fill-rule="evenodd" xlink:href="#path-5"></use>
                    <circle stroke="#FFFFFF" stroke-width="1.5" cx="56" cy="31" r="2.25"></circle>
                    <use stroke="#FFFFFF" stroke-width="1" xlink:href="#path-5"></use>
                </g>
                <g id="Oval-Copy-141" transform="translate(21.000000, 31.000000) rotate(-90.000000) translate(-21.000000, -31.000000) ">
                    <use fill="#515151" fill-rule="evenodd" xlink:href="#path-6"></use>
                    <circle stroke="#FFFFFF" stroke-width="1.5" cx="21" cy="31" r="2.25"></circle>
                    <use stroke="#FFFFFF" stroke-width="1" xlink:href="#path-6"></use>
                </g>
            </g>
        </g>
    </g>
</svg>