<?xml version="1.0" encoding="UTF-8"?>
<svg width="45px" height="45px" viewBox="0 0 45 45" version="1.1" xmlns="http://www.w3.org/2000/svg" xmlns:xlink="http://www.w3.org/1999/xlink">
    <!-- Generator: Sketch 46.2 (44496) - http://www.bohemiancoding.com/sketch -->
    <title>Group 9</title>
    <desc>Created with Sketch.</desc>
    <defs>
        <circle id="path-1" cx="6" cy="25" r="2"></circle>
        <circle id="path-2" cx="25" cy="25" r="2"></circle>
        <circle id="path-3" cx="2" cy="12" r="2"></circle>
        <circle id="path-4" cx="29" cy="12" r="2"></circle>
        <circle id="path-5" cx="16" cy="33" r="2"></circle>
        <circle id="path-6" cx="16" cy="18" r="2"></circle>
        <circle id="path-7" cx="16" cy="2" r="2"></circle>
    </defs>
    <g id="Page-1" stroke="none" stroke-width="1" fill="none" fill-rule="evenodd">
        <g id="Group-9">
            <rect id="Rectangle-9" fill="#0D0D0D" x="0" y="0" width="45" height="45"></rect>
            <g id="Group-7" transform="translate(7.000000, 5.000000)">
                <path d="M16,33 L25,24" id="Path-3" stroke="#FFFFFF" opacity="0.4"></path>
                <path d="M24.1875,23.8142857 L29.6389134,11" id="Path-3-Copy" stroke="#FFFFFF" opacity="0.4"></path>
                <path d="M16.1875,17.825 L30.6389134,11" id="Path-3-Copy" stroke="#FFFFFF" opacity="0.4"></path>
                <path d="M16.18,23.8125 L24.82,18.1875" id="Path-3-Copy-4" stroke="#FFFFFF" stroke-width="0.75" opacity="0.4" transform="translate(20.500000, 21.000000) scale(1, -1) translate(-20.500000, -21.000000) "></path>
                <path d="M16.1842105,11.8103448 L29.8157895,1.18965517" id="Path-3-Copy-5" stroke="#FFFFFF" opacity="0.4" transform="translate(23.000000, 6.500000) scale(1, -1) translate(-23.000000, -6.500000) "></path>
                <path d="M2.18421053,11.8103448 L15.8157895,1.18965517" id="Path-3-Copy-6" stroke="#FFFFFF" opacity="0.4" transform="translate(9.000000, 6.500000) scale(-1, -1) translate(-9.000000, -6.500000) "></path>
                <path d="M7.18,23.8125 L15.82,18.1875" id="Path-3-Copy-4" stroke="#FFFFFF" opacity="0.4" transform="translate(11.500000, 21.000000) scale(-1, -1) translate(-11.500000, -21.000000) "></path>
                <path d="M1.1875,17.825 L15.6389134,11" id="Path-3-Copy-3" stroke="#FFFFFF" opacity="0.4" transform="translate(8.500000, 14.500000) scale(1, -1) translate(-8.500000, -14.500000) "></path>
                <path d="M2.16666667,23.8142857 L6.67903415,11" id="Path-3-Copy-2" stroke="#FFFFFF" opacity="0.4" transform="translate(4.500000, 17.500000) scale(-1, 1) translate(-4.500000, -17.500000) "></path>
                <path d="M16,33 L7,24 L16,33 Z" id="Path-3" stroke="#FFFFFF" opacity="0.4"></path>
                <path d="M16.25,32.8246319 L16.25,1.13654051" id="Line-2" stroke="#FFFFFF" opacity="0.4" stroke-linecap="square"></path>
                <g id="Oval" transform="translate(6.000000, 25.000000) rotate(-90.000000) translate(-6.000000, -25.000000) ">
                    <use fill="#F0F0F0" fill-rule="evenodd" xlink:href="#path-1"></use>
                    <circle stroke="#0D0D0D" stroke-width="0.5" cx="6" cy="25" r="1.75"></circle>
                    <use stroke="#0D0D0D" stroke-width="1" xlink:href="#path-1"></use>
                </g>
                <g id="Oval-Copy-4" transform="translate(25.000000, 25.000000) rotate(-90.000000) translate(-25.000000, -25.000000) ">
                    <use fill="#F0F0F0" fill-rule="evenodd" xlink:href="#path-2"></use>
                    <circle stroke="#0D0D0D" stroke-width="0.5" cx="25" cy="25" r="1.75"></circle>
                    <use stroke="#0D0D0D" stroke-width="1" xlink:href="#path-2"></use>
                </g>
                <g id="Oval-Copy" transform="translate(2.000000, 12.000000) rotate(-90.000000) translate(-2.000000, -12.000000) ">
                    <use fill="#F0F0F0" fill-rule="evenodd" xlink:href="#path-3"></use>
                    <circle stroke="#0D0D0D" stroke-width="0.5" cx="2" cy="12" r="1.75"></circle>
                    <use stroke="#0D0D0D" stroke-width="1" xlink:href="#path-3"></use>
                </g>
                <g id="Oval-Copy-2" transform="translate(29.000000, 12.000000) rotate(-90.000000) translate(-29.000000, -12.000000) ">
                    <use fill="#F0F0F0" fill-rule="evenodd" xlink:href="#path-4"></use>
                    <circle stroke="#0D0D0D" stroke-width="0.5" cx="29" cy="12" r="1.75"></circle>
                    <use stroke="#0D0D0D" stroke-width="1" xlink:href="#path-4"></use>
                </g>
                <g id="Oval-Copy-3" transform="translate(16.000000, 33.000000) rotate(-90.000000) translate(-16.000000, -33.000000) ">
                    <use fill="#F0F0F0" fill-rule="evenodd" xlink:href="#path-5"></use>
                    <circle stroke="#0D0D0D" stroke-width="0.5" cx="16" cy="33" r="1.75"></circle>
                    <use stroke="#0D0D0D" stroke-width="1" xlink:href="#path-5"></use>
                </g>
                <g id="Oval-Copy-8" transform="translate(16.000000, 18.000000) rotate(-90.000000) translate(-16.000000, -18.000000) ">
                    <use fill="#F0F0F0" fill-rule="evenodd" xlink:href="#path-6"></use>
                    <circle stroke="#0D0D0D" stroke-width="0.5" cx="16" cy="18" r="1.75"></circle>
                    <use stroke="#0D0D0D" stroke-width="1" xlink:href="#path-6"></use>
                </g>
                <g id="Oval-Copy-9" transform="translate(16.000000, 2.000000) rotate(-90.000000) translate(-16.000000, -2.000000) ">
                    <use fill="#F0F0F0" fill-rule="evenodd" xlink:href="#path-7"></use>
                    <circle stroke="#0D0D0D" stroke-width="0.5" cx="16" cy="2" r="1.75"></circle>
                    <use stroke="#0D0D0D" stroke-width="1" xlink:href="#path-7"></use>
                </g>
            </g>
        </g>
    </g>
</svg>