<?xml version="1.0" encoding="UTF-8"?>
<svg width="31px" height="28px" viewBox="0 0 31 28" version="1.1" xmlns="http://www.w3.org/2000/svg" xmlns:xlink="http://www.w3.org/1999/xlink">
    <!-- Generator: Sketch 46.2 (44496) - http://www.bohemiancoding.com/sketch -->
    <title>github</title>
    <desc>Created with Sketch.</desc>
    <defs></defs>
    <g id="Page-1" stroke="none" stroke-width="1" fill="none" fill-rule="evenodd" opacity="0.699999988">
        <g id="Artboard" transform="translate(-224.000000, -3994.000000)" fill="#FFFFFF">
            <g id="github" transform="translate(224.000000, 3994.000000)">
                <path d="M21.1577978,25.1282051 L9.84315837,25.1282051 C7.10925861,25.1282051 4.89300361,22.8781538 4.89300361,20.1025641 C4.89300361,11.6207179 10.7271146,15.0324103 15.5004781,15.0324103 C20.2724273,15.0324103 26.1079526,11.5316923 26.1079526,20.1025641 C26.1079526,22.8781538 23.8931119,25.1282051 21.1577978,25.1282051 M28.977628,10.3585641 L29.0243009,10.3915897 C29.0243009,10.3915897 32.7666179,3.82810256 28.1700456,0 C25.3413858,0 21.0149505,4.74420513 21.0149505,4.74420513 L21.0474801,4.76574359 C17.5257986,3.71323077 13.5727464,3.70748718 10.0425789,4.74276923 C10.0185353,4.71692308 5.71048631,0 2.8888981,0 C-1.60018511,3.73764103 1.85785158,10.0685128 2.02049952,10.3628718 C0.580711647,12.5540513 -0.204241466,15.2923077 0.0460949324,18.6092308 C0.386948446,23.0978462 4.07410658,28 8.50803092,28 L22.491511,28 C26.9268496,28 30.6140078,23.0978462 30.9534469,18.6092308 C31.2051977,15.2894359 30.4202446,12.5497436 28.977628,10.3585641" id="Fill-1"></path>
                <path d="M21,19 C21,20.1053333 20.3295,21 19.5,21 C18.672,21 18,20.1053333 18,19 C18,17.8946667 18.672,17 19.5,17 C20.3295,17 21,17.8946667 21,19" id="Fill-4"></path>
                <path d="M11,19 C11,20.1053333 10.3295,21 9.5,21 C8.672,21 8,20.1053333 8,19 C8,17.8946667 8.672,17 9.5,17 C10.3295,17 11,17.8946667 11,19" id="Fill-6"></path>
            </g>
        </g>
    </g>
</svg>