<?xml version="1.0" encoding="UTF-8"?>
<svg width="46px" height="46px" viewBox="0 0 46 46" version="1.1" xmlns="http://www.w3.org/2000/svg" xmlns:xlink="http://www.w3.org/1999/xlink">
    <!-- Generator: Sketch 51.3 (57544) - http://www.bohemiancoding.com/sketch -->
    <title>github-s</title>
    <desc>Created with Sketch.</desc>
    <defs></defs>
    <g id="Page-1" stroke="none" stroke-width="1" fill="none" fill-rule="evenodd">
        <g id="Artboard-Copy-6" transform="translate(-732.000000, -592.000000)">
            <g id="github-s" transform="translate(733.000000, 593.000000)">
                <path d="M25.8387097,27.18 C25.2510968,27.18 24.7741935,26.5332838 24.7741935,25.7342857 C24.7741935,24.9352876 25.2510968,24.2885714 25.8387097,24.2885714 C26.4273871,24.2885714 26.9032258,24.9352876 26.9032258,25.7342857 C26.9032258,26.5332838 26.4273871,27.18 25.8387097,27.18 Z" id="Fill-4" fill="#000000" opacity="0.600000024"></path>
                <g id="Group-9">
                    <path d="M22,44 C39.3865661,44 44,38.1513114 44,22 C44,5.84868863 38.5252022,0 22,0 C5.47479782,2.0237536e-15 0,6.27436268 0,22 C9.62917571e-16,37.7256373 4.61343386,44 22,44 Z" id="Oval-3-Copy-6" stroke="#000000" opacity="0.100000001"></path>
                    <path d="M26.0152114,30.1641026 L17.9854672,30.1641026 C16.0452803,30.1641026 14.4724542,28.5376369 14.4724542,26.5312821 C14.4724542,20.400119 18.612791,22.8662851 22.0003393,22.8662851 C25.3868839,22.8662851 29.5282244,20.3357662 29.5282244,26.5312821 C29.5282244,28.5376369 27.956402,30.1641026 26.0152114,30.1641026 M31.5647683,19.4877621 L31.597891,19.5116349 C31.597891,19.5116349 34.2537288,14.7671713 30.9916453,12 C28.9842093,12 25.9138358,15.4293826 25.9138358,15.4293826 L25.9369214,15.4449518 C23.4376635,14.6841354 20.6322716,14.6799836 18.1269915,15.4283446 C18.1099283,15.4096615 15.0526032,12 13.0501857,12 C9.86438476,14.7017805 12.3184753,19.2780964 12.4339029,19.4908759 C11.4121179,21.0747856 10.8550544,23.0541538 11.0327125,25.4518154 C11.2746086,28.6964431 13.8913014,32.24 17.0379574,32.24 L26.9617175,32.24 C30.1093772,32.24 32.72607,28.6964431 32.9669623,25.4518154 C33.1456242,23.0520779 32.5885607,21.0716718 31.5647683,19.4877621" id="Fill-1" fill="#000000" opacity="0.600000024"></path>
                    <path d="M19.8064516,25.7342857 C19.8064516,26.5332838 19.3306129,27.18 18.7419355,27.18 C18.1543226,27.18 17.6774194,26.5332838 17.6774194,25.7342857 C17.6774194,24.9352876 18.1543226,24.2885714 18.7419355,24.2885714 C19.3306129,24.2885714 19.8064516,24.9352876 19.8064516,25.7342857" id="Fill-6" fill="#000000" opacity="0.600000024"></path>
                </g>
            </g>
        </g>
    </g>
</svg>