<?xml version="1.0" encoding="UTF-8"?>
<svg width="127px" height="17px" viewBox="0 0 127 17" version="1.1" xmlns="http://www.w3.org/2000/svg" xmlns:xlink="http://www.w3.org/1999/xlink">
    <!-- Generator: Sketch 46.2 (44496) - http://www.bohemiancoding.com/sketch -->
    <title>HACKERBAY</title>
    <desc>Created with Sketch.</desc>
    <defs></defs>
    <g id="Page-1" stroke="none" stroke-width="1" fill="none" fill-rule="evenodd">
        <path d="M0,0.407119741 L3.12491909,0.407119741 L3.12491909,6.51391586 L8.53851133,6.51391586 L8.53851133,0.407119741 L11.6524272,0.407119741 L11.6524272,16.5928803 L8.53851133,16.5928803 L8.53851133,9.49579288 L3.12491909,9.49579288 L3.12491909,16.5928803 L0,16.5928803 L0,0.407119741 Z M20.2679612,0.407119741 L23.3928803,0.407119741 L29.620712,16.5928803 L26.4187702,16.5928803 L25.1533981,13.2588997 L18.5514563,13.2588997 L17.231068,16.5928803 L14.0291262,16.5928803 L20.2679612,0.407119741 Z M21.8524272,4.69838188 L19.6957929,10.2550162 L23.9980583,10.2550162 L21.8524272,4.69838188 Z M46.8847896,3.25695793 L44.7281553,5.31456311 C43.2610498,3.7667668 41.6105809,2.99288026 39.776699,2.99288026 C38.2289027,2.99288026 36.9250323,3.52103032 35.8650485,4.57734628 C34.8050648,5.63366224 34.2750809,6.93569884 34.2750809,8.48349515 C34.2750809,9.56181769 34.5098143,10.5190897 34.979288,11.3553398 C35.4487618,12.1915899 36.1126171,12.8481098 36.9708738,13.3249191 C37.8291305,13.8017284 38.7827348,14.0401294 39.8317152,14.0401294 C40.7266496,14.0401294 41.5445486,13.8732487 42.2854369,13.5394822 C43.0263252,13.2057157 43.8405565,12.5987099 44.7281553,11.7184466 L46.8187702,13.8970874 C45.6230792,15.0634363 44.493425,15.872166 43.4297735,16.323301 C42.366122,16.7744359 41.1521104,17 39.7877023,17 C37.2716163,17 35.2121979,16.2022733 33.6093851,14.6067961 C32.0065724,13.0113189 31.205178,10.9665713 31.205178,8.47249191 C31.205178,6.85867586 31.570115,5.42460174 32.3,4.17022654 C33.029885,2.91585133 34.075182,1.90723143 35.4359223,1.14433657 C36.7966627,0.381441709 38.2619123,0 39.8317152,0 C41.1667812,0 42.4523131,0.282413573 43.6883495,0.847249191 C44.9243859,1.41208481 45.9898553,2.21531302 46.8847896,3.25695793 Z M49.602589,0.407119741 L52.7165049,0.407119741 L52.7165049,5.97475728 L57.1067961,0.407119741 L60.8148867,0.407119741 L55.1592233,7.62524272 L61.3650485,16.5928803 L57.7119741,16.5928803 L52.7165049,9.40776699 L52.7165049,16.5928803 L49.602589,16.5928803 L49.602589,0.407119741 Z M63.5656958,0.407119741 L72.4012945,0.407119741 L72.4012945,3.42200647 L66.6245955,3.42200647 L66.6245955,6.34886731 L72.4012945,6.34886731 L72.4012945,9.30873786 L66.6245955,9.30873786 L66.6245955,13.5669903 L72.4012945,13.5669903 L72.4012945,16.5928803 L63.5656958,16.5928803 L63.5656958,0.407119741 Z M75.4822006,0.407119741 L78.7501618,0.407119741 C80.5400305,0.407119741 81.8145593,0.566665071 82.5737864,0.885760518 C83.3330135,1.20485596 83.943687,1.73483988 84.4058252,2.47572816 C84.8679635,3.21661643 85.0990291,4.09319882 85.0990291,5.10550162 C85.0990291,6.16915311 84.8441234,7.05857248 84.3343042,7.77378641 C83.824485,8.48900034 83.0561001,9.02998738 82.0291262,9.39676375 L85.8582524,16.5928803 L82.4912621,16.5928803 L78.8491909,9.73786408 L78.5631068,9.73786408 L78.5631068,16.5928803 L75.4822006,16.5928803 L75.4822006,0.407119741 Z M78.5631068,6.73398058 L79.5313916,6.73398058 C80.5143523,6.73398058 81.1910445,6.60561078 81.5614887,6.34886731 C81.9319328,6.09212385 82.1171521,5.66666964 82.1171521,5.07249191 C82.1171521,4.72038659 82.0254594,4.41413291 81.8420712,4.15372168 C81.658683,3.89331046 81.4129465,3.70625731 81.1048544,3.59255663 C80.7967622,3.47885596 80.2319351,3.42200647 79.410356,3.42200647 L78.5631068,3.42200647 L78.5631068,6.73398058 Z M88.5100324,0.407119741 L91.7009709,0.407119741 C92.9846882,0.407119741 93.9713018,0.559329654 94.6608414,0.863754045 C95.350381,1.16817844 95.8950358,1.6358113 96.294822,2.26666667 C96.6946083,2.89752203 96.8944984,3.5980544 96.8944984,4.36828479 C96.8944984,5.08716649 96.7184484,5.7418525 96.366343,6.33236246 C96.0142377,6.92287242 95.4970908,7.40150841 94.8148867,7.76828479 C95.6584724,8.05437036 96.3076568,8.38996571 96.7624595,8.77508091 C97.2172623,9.1601961 97.5711961,9.62599511 97.8242718,10.1724919 C98.0773475,10.7189887 98.2038835,11.3113237 98.2038835,11.9495146 C98.2038835,13.2479029 97.7289152,14.3463817 96.7789644,15.2449838 C95.8290136,16.1435859 94.5544848,16.5928803 92.9553398,16.5928803 L88.5100324,16.5928803 L88.5100324,0.407119741 Z M90.0944984,1.99158576 L90.0944984,7.17411003 L91.0187702,7.17411003 C92.1411059,7.17411003 92.9663404,7.06958033 93.4944984,6.8605178 C94.0226564,6.65145527 94.4407752,6.32136148 94.7488673,5.87022654 C95.0569595,5.4190916 95.2110032,4.91844935 95.2110032,4.36828479 C95.2110032,3.62739651 94.9524298,3.04606468 94.4352751,2.62427184 C93.9181204,2.20247901 93.0947198,1.99158576 91.9650485,1.99158576 L90.0944984,1.99158576 Z M90.0944984,8.802589 L90.0944984,15.0084142 L92.0970874,15.0084142 C93.2781073,15.0084142 94.1436866,14.8928814 94.6938511,14.6618123 C95.2440157,14.4307432 95.6859746,14.0694739 96.0197411,13.5779935 C96.3535076,13.0865132 96.5203883,12.5546954 96.5203883,11.9825243 C96.5203883,11.2636426 96.285655,10.6364644 95.8161812,10.1009709 C95.3467075,9.56547737 94.7011907,9.19870649 93.8796117,9.00064725 C93.3294471,8.86860775 92.3721751,8.802589 91.007767,8.802589 L90.0944984,8.802589 Z M108.01877,0.407119741 L115.56699,16.5928803 L113.828479,16.5928803 L111.286731,11.2673139 L104.31068,11.2673139 L101.779935,16.5928803 L99.9754045,16.5928803 L107.622654,0.407119741 L108.01877,0.407119741 Z M107.820712,3.84012945 L105.036893,9.70485437 L110.571521,9.70485437 L107.820712,3.84012945 Z M114.921467,0.407119741 L116.792017,0.407119741 L120.929234,7.07508091 L125.000431,0.407119741 L126.870982,0.407119741 L121.743474,8.85760518 L121.743474,16.5928803 L120.148004,16.5928803 L120.148004,8.85760518 L114.921467,0.407119741 Z" id="HACKERBAY" fill="#000000"></path>
    </g>
</svg>