<?xml version="1.0" encoding="UTF-8"?>
<svg width="1595px" height="223px" viewBox="0 0 1595 223" version="1.1" xmlns="http://www.w3.org/2000/svg" xmlns:xlink="http://www.w3.org/1999/xlink">
    <!-- Generator: Sketch 50.2 (55047) - http://www.bohemiancoding.com/sketch -->
    <title>header</title>
    <desc>Created with Sketch.</desc>
    <defs></defs>
    <g id="Page-1" stroke="none" stroke-width="1" fill="none" fill-rule="evenodd">
        <g id="Artboard" transform="translate(-43.000000, -56.000000)">
            <g id="header" transform="translate(44.000000, 56.000000)">
                <rect id="Rectangle" fill="#FFFFFF" x="542" y="0" width="504" height="131"></rect>
                <text id="THE-TL;DR" font-family="BodoniSvtyTwoOSITCTT-Bold, Bodoni 72 Oldstyle" font-size="129.6648" font-weight="bold" letter-spacing="-2.89440007" fill="#000000">
                    <tspan x="485.139481" y="122">T</tspan>
                    <tspan x="558.228653" y="122" font-size="99.8568">HE</tspan>
                    <tspan x="684.450543" y="122" font-size="99.8568" letter-spacing="5.20200019"> </tspan>
                    <tspan x="704.73092" y="122" font-size="129.6">TL;DR</tspan>
                </text>
                <rect id="Rectangle-2" fill="#FFFFFF" x="843" y="144" width="69" height="28"></rect>
                <rect id="Rectangle-2-Copy-2" fill="#FFFFFF" x="599" y="144" width="384" height="28"></rect>
                <rect id="Rectangle-2-Copy" fill="#FFFFFF" x="623" y="144" width="69" height="28"></rect>
                <path d="M0.588691796,185 L1592.47401,185" id="Line-3" stroke="#000000" stroke-width="2" stroke-linecap="square"></path>
                <path d="M0.588691796,191.5 L1592.47401,191.5" id="Line-3" stroke="#000000" stroke-linecap="square"></path>
                <path d="M0.588691796,222.5 L1592.47401,222.5" id="Line-3-Copy-2" stroke="#000000" stroke-linecap="square"></path>
                <text id="RNN-ACTIVE!" transform="translate(1520.500000, 75.000000) rotate(-10.000000) translate(-1520.500000, -75.000000) " font-family="TimesNewRomanPS-BoldMT, Times New Roman" font-size="25.5" font-weight="bold" line-spacing="24" letter-spacing="-0.141666681" fill="#000000">
                    <tspan x="1492.93261" y="74">RNN</tspan>
                    <tspan x="1467" y="98">ACTIVE!</tspan>
                </text>
                <g id="Group" transform="translate(1451.000000, 10.000000)">
                    <circle id="Oval-2" stroke="#000000" cx="70" cy="70" r="70"></circle>
                    <circle id="Oval-2" stroke="#000000" stroke-width="2" cx="70" cy="70" r="65"></circle>
                    <circle id="Oval-3" fill="#000000" transform="translate(62.443625, 19.134050) rotate(-9.000000) translate(-62.443625, -19.134050) " cx="62.4436251" cy="19.1340505" r="2.5"></circle>
                    <circle id="Oval-3-Copy" fill="#000000" transform="translate(78.556375, 120.865950) rotate(-9.000000) translate(-78.556375, -120.865950) " cx="78.5563749" cy="120.86595" r="2.5"></circle>
                </g>
                <g id="Group-2" transform="translate(31.000000, 41.000000)">
                    <path d="M-1.13686838e-13,20.535248 C1.02801681,19.5117493 2.25170728,19 3.6710714,19 C5.80011758,19 7.15215644,22 10.2804755,22 C13.4087946,22 14.7885014,19 17.6673481,19 C20.5461949,19 20.8136514,22 23.9890059,22 C27.1643605,22 28.319496,19 31.5709374,19 C34.8223787,19 35.2143408,22 38.4939112,22 C41.7734816,22 41.8707804,19 45.371233,19 C48.8716856,19 48.4253099,22 52.2656167,22 C56.1059235,22 56.7773316,19 59.2568381,19 C61.7363446,19 63.6126904,22 66.1908791,22 C68.7690678,22 70.8810521,19 73.910689,19 C76.9403258,19 77.3641061,22 80.1179861,22 C81.0695726,22 82.0302439,21.7313486 83,21.1940459" id="Path-2-Copy-4" stroke="#000000"></path>
                    <path d="M-1.13686838e-13,38.535248 C1.02801681,37.5117493 2.25170728,37 3.6710714,37 C5.80011758,37 7.15215644,40 10.2804755,40 C13.4087946,40 14.7885014,37 17.6673481,37 C20.5461949,37 20.8136514,40 23.9890059,40 C27.1643605,40 28.319496,37 31.5709374,37 C34.8223787,37 35.2143408,40 38.4939112,40 C41.7734816,40 41.8707804,37 45.371233,37 C48.8716856,37 48.4253099,40 52.2656167,40 C56.1059235,40 56.7773316,37 59.2568381,37 C61.7363446,37 63.6126904,40 66.1908791,40 C68.7690678,40 70.8810521,37 73.910689,37 C76.9403258,37 77.3641061,40 80.1179861,40 C81.0695726,40 82.0302439,39.7313486 83,39.1940459" id="Path-2-Copy-5" stroke="#000000"></path>
                    <path d="M-1.13686838e-13,56.535248 C1.02801681,55.5117493 2.25170728,55 3.6710714,55 C5.80011758,55 7.15215644,58 10.2804755,58 C13.4087946,58 14.7885014,55 17.6673481,55 C20.5461949,55 20.8136514,58 23.9890059,58 C27.1643605,58 28.319496,55 31.5709374,55 C34.8223787,55 35.2143408,58 38.4939112,58 C41.7734816,58 41.8707804,55 45.371233,55 C48.8716856,55 48.4253099,58 52.2656167,58 C56.1059235,58 56.7773316,55 59.2568381,55 C61.7363446,55 63.6126904,58 66.1908791,58 C68.7690678,58 70.8810521,55 73.910689,55 C76.9403258,55 77.3641061,58 80.1179861,58 C81.0695726,58 82.0302439,57.7313486 83,57.1940459" id="Path-2-Copy-7" stroke="#000000"></path>
                    <circle id="Oval-3" fill="#000000" transform="translate(40.500000, 3.500000) rotate(-9.000000) translate(-40.500000, -3.500000) " cx="40.5" cy="3.5" r="2.5"></circle>
                    <circle id="Oval-3-Copy-2" fill="#000000" transform="translate(40.500000, 70.500000) rotate(-9.000000) translate(-40.500000, -70.500000) " cx="40.5" cy="70.5" r="2.5"></circle>
                </g>
                <text id="Home" font-family="GTAmerica-CondensedMedium, GT America" font-size="19" font-style="condensed" font-weight="500" line-spacing="22" letter-spacing="1.07000005" fill="#000000">
                    <tspan x="1" y="213">HOM</tspan>
                    <tspan x="41.9060002" y="213">E</tspan>
                </text>
                <text id="Politics" font-family="GTAmerica-CondensedMedium, GT America" font-size="19" font-style="condensed" font-weight="500" line-spacing="22" letter-spacing="1.07000005" fill="#000000">
                    <tspan x="79" y="213">POLITIC</tspan>
                    <tspan x="147.043" y="213">S</tspan>
                </text>
                <text id="Sciences" font-family="GTAmerica-CondensedMedium, GT America" font-size="19" font-style="condensed" font-weight="500" line-spacing="22" letter-spacing="1.07000005" fill="#000000">
                    <tspan x="186" y="213">SCIENCE</tspan>
                    <tspan x="261.358" y="213">S</tspan>
                </text>
                <text id="Finance" font-family="GTAmerica-CondensedMedium, GT America" font-size="19" font-style="condensed" font-weight="500" line-spacing="22" letter-spacing="1.07000005" fill="#000000">
                    <tspan x="300" y="213">FINANC</tspan>
                    <tspan x="366.593" y="213">E</tspan>
                </text>
                <text id="Feuilleton" font-family="GTAmerica-CondensedMedium, GT America" font-size="19" font-style="condensed" font-weight="500" line-spacing="22" letter-spacing="1.07000005" fill="#000000">
                    <tspan x="405" y="213">FEUILLETO</tspan>
                    <tspan x="496.71" y="213">N</tspan>
                </text>
                <text id="Sport" font-family="GTAmerica-CondensedMedium, GT America" font-size="19" font-style="condensed" font-weight="500" line-spacing="22" letter-spacing="1.07000005" fill="#000000">
                    <tspan x="538" y="213">SPOR</tspan>
                    <tspan x="584.631" y="213">T</tspan>
                </text>
                <text id="Society" font-family="GTAmerica-CondensedMedium, GT America" font-size="19" font-style="condensed" font-weight="500" line-spacing="22" letter-spacing="1.07000005" fill="#000000">
                    <tspan x="622" y="213">SOCIET</tspan>
                    <tspan x="684.774" y="213">Y</tspan>
                </text>
                <text id="Stil" font-family="GTAmerica-CondensedMedium, GT America" font-size="19" font-style="condensed" font-weight="500" line-spacing="22" letter-spacing="1.07000005" fill="#000000">
                    <tspan x="724" y="213">STI</tspan>
                    <tspan x="751.131" y="213">L</tspan>
                </text>
                <text id="Technology" font-family="GTAmerica-CondensedMedium, GT America" font-size="19" font-style="condensed" font-weight="500" line-spacing="22" letter-spacing="1.07000005" fill="#000000">
                    <tspan x="790" y="213">TECHNOLOG</tspan>
                    <tspan x="895.77" y="213">Y</tspan>
                </text>
                <text id="Knowledge" font-family="GTAmerica-CondensedMedium, GT America" font-size="19" font-style="condensed" font-weight="500" line-spacing="22" letter-spacing="1.07000005" fill="#000000">
                    <tspan x="934" y="213">KNOWLEDG</tspan>
                    <tspan x="1032.544" y="213">E</tspan>
                </text>
                <text id="Travel" font-family="GTAmerica-CondensedMedium, GT America" font-size="19" font-style="condensed" font-weight="500" line-spacing="22" letter-spacing="1.07000005" fill="#000000">
                    <tspan x="1071" y="213">TRAVE</tspan>
                    <tspan x="1126.092" y="213">L</tspan>
                </text>
                <text id="Career" font-family="GTAmerica-CondensedMedium, GT America" font-size="19" font-style="condensed" font-weight="500" line-spacing="22" letter-spacing="1.07000005" fill="#000000">
                    <tspan x="1164" y="213">CAREE</tspan>
                    <tspan x="1220.65" y="213">R</tspan>
                </text>
                <text id="Lifestyle" font-family="GTAmerica-CondensedMedium, GT America" font-size="19" font-style="condensed" font-weight="500" line-spacing="22" letter-spacing="1.07000005" fill="#000000">
                    <tspan x="1260" y="213">LIFESTYL</tspan>
                    <tspan x="1338.404" y="213">E</tspan>
                </text>
                <text id="Real-Estate" font-family="GTAmerica-CondensedMedium, GT America" font-size="19" font-style="condensed" font-weight="500" line-spacing="22" letter-spacing="1.07000005" fill="#000000">
                    <tspan x="1377" y="213">REAL ESTAT</tspan>
                    <tspan x="1476.145" y="213">E</tspan>
                </text>
                <text id="Twitter" font-family="GTAmerica-CondensedMedium, GT America" font-size="19" font-style="condensed" font-weight="500" line-spacing="22" letter-spacing="1.07000005" fill="#000000">
                    <tspan x="1515" y="213">TWITTE</tspan>
                    <tspan x="1579.465" y="213">R</tspan>
                </text>
            </g>
        </g>
    </g>
</svg>