<?xml version="1.0" encoding="UTF-8"?>
<svg width="46px" height="46px" viewBox="0 0 46 46" version="1.1" xmlns="http://www.w3.org/2000/svg" xmlns:xlink="http://www.w3.org/1999/xlink">
    <!-- Generator: Sketch 51.3 (57544) - http://www.bohemiancoding.com/sketch -->
    <title>linkedin-s</title>
    <desc>Created with Sketch.</desc>
    <defs></defs>
    <g id="Page-1" stroke="none" stroke-width="1" fill="none" fill-rule="evenodd">
        <g id="Artboard-Copy-6" transform="translate(-663.000000, -592.000000)">
            <g id="linkedin-s" transform="translate(664.000000, 593.000000)">
                <path d="M22,44 C39.3865661,44 44,38.1513114 44,22 C44,5.84868863 38.5252022,0 22,0 C5.47479782,2.0237536e-15 0,6.27436268 0,22 C9.62917571e-16,37.7256373 4.61343386,44 22,44 Z" id="Oval-3-Copy-5" stroke="#000000" opacity="0.100000001"></path>
                <path d="M25.3279098,21.6374001 C24.3567585,21.6374001 23.5701698,22.4301211 23.5701698,23.4068667 L23.5701698,29.6 L19.1758197,29.6 C19.1758197,29.6 19.227673,18.9832001 19.1758197,18.0984668 L23.5701698,18.0984668 L23.5701698,19.4122958 C23.5701698,19.4122958 24.9306606,18.1356256 27.0311599,18.1356256 C29.6343729,18.1356256 31.48,20.0324938 31.48,23.7129845 L31.48,29.6 L27.0856499,29.6 L27.0856499,23.4068667 C27.0856499,22.4301211 26.2981823,21.6374001 25.3279098,21.6374001 Z M15.2121159,16.3290002 L15.1866286,16.3290002 C13.858656,16.3290002 13,15.2832454 13,14.1339768 C13,12.9581662 13.8850221,12 15.238482,12 C16.5928207,12 17.4251106,12.9891319 17.4514767,14.1649424 C17.4514767,15.3150958 16.5928207,16.3290002 15.2121159,16.3290002 Z M13.0237295,29.6 L17.4180796,29.6 L17.4180796,18.0984668 L13.0237295,18.0984668 L13.0237295,29.6 Z" id="Fill-1" fill="#000000" opacity="0.600000024"></path>
            </g>
        </g>
    </g>
</svg>