<?xml version="1.0" encoding="UTF-8"?>
<svg width="30px" height="29px" viewBox="0 0 30 29" version="1.1" xmlns="http://www.w3.org/2000/svg" xmlns:xlink="http://www.w3.org/1999/xlink">
    <!-- Generator: Sketch 46.2 (44496) - http://www.bohemiancoding.com/sketch -->
    <title>linkedin</title>
    <desc>Created with Sketch.</desc>
    <defs></defs>
    <g id="Page-1" stroke="none" stroke-width="1" fill="none" fill-rule="evenodd" opacity="0.699999988">
        <g id="Artboard" transform="translate(-224.000000, -4062.000000)" fill="#FFFFFF">
            <g id="linkedin" transform="translate(224.000000, 4062.000000)">
                <path d="M19.8928364,15.79485 C18.3257455,15.79485 17.0564727,17.09405 17.0564727,18.69485 L17.0564727,28.84485 L9.96556364,28.84485 C9.96556364,28.84485 10.0492364,11.44485 9.96556364,9.99485 L17.0564727,9.99485 L17.0564727,12.1481 C17.0564727,12.1481 19.2518182,10.05575 22.6412727,10.05575 C26.8419273,10.05575 29.8201091,13.16455 29.8201091,19.19655 L29.8201091,28.84485 L22.7292,28.84485 L22.7292,18.69485 C22.7292,17.09405 21.4585091,15.79485 19.8928364,15.79485 L19.8928364,15.79485 Z M3.56956364,7.09485 L3.52843636,7.09485 C1.38556364,7.09485 0,5.38095 0,3.4974 C0,1.57035 1.42810909,0 3.61210909,0 C5.79752727,0 7.14054545,1.6211 7.18309091,3.54815 C7.18309091,5.43315 5.79752727,7.09485 3.56956364,7.09485 L3.56956364,7.09485 Z M0.0382909091,28.84485 L7.1292,28.84485 L7.1292,9.99485 L0.0382909091,9.99485 L0.0382909091,28.84485 Z" id="Fill-1"></path>
            </g>
        </g>
    </g>
</svg>