<?xml version="1.0" encoding="UTF-8"?>
<svg width="31px" height="32px" viewBox="0 0 31 32" version="1.1" xmlns="http://www.w3.org/2000/svg" xmlns:xlink="http://www.w3.org/1999/xlink">
    <!-- Generator: Sketch 46.2 (44496) - http://www.bohemiancoding.com/sketch -->
    <title>mail</title>
    <desc>Created with Sketch.</desc>
    <defs></defs>
    <g id="Page-1" stroke="none" stroke-width="1" fill="none" fill-rule="evenodd" opacity="0.699999988">
        <g id="Artboard" transform="translate(-124.000000, -3993.000000)" fill="#FFFFFF">
            <g id="mail" transform="translate(124.000000, 3993.000000)">
                <g id="Page-1">
                    <g id="Group-3">
                        <path d="M26.9830458,27.5434243 C26.8564625,27.7062035 26.6678792,27.7909016 26.4780042,27.7909016 C26.3372125,27.7909016 26.1951292,27.7445823 26.0762958,27.6466501 L19.7949208,22.4972705 L11.2053375,22.4972705 L4.9239625,27.6466501 C4.64625417,27.8742763 4.23937917,27.8292804 4.0172125,27.5434243 C3.79375417,27.2575682 3.8389625,26.8420182 4.1179625,26.6143921 L10.5762958,21.320761 C10.6899625,21.2254756 10.8320458,21.1751861 10.9792958,21.1751861 L20.0209625,21.1751861 C20.1682125,21.1751861 20.3090042,21.2254756 20.4239625,21.320761 L26.8822958,26.6143921 C27.1612958,26.8420182 27.2065042,27.2575682 26.9830458,27.5434243 L26.9830458,27.5434243 Z M6.4584625,17.2049628 L24.5417958,17.2049628 L24.5417958,1.32406948 L6.4584625,1.32406948 L6.4584625,17.2049628 Z M22.9724208,21.0574028 C22.8600458,21.1368073 22.7308792,21.1751861 22.6042958,21.1751861 C22.4002125,21.1751861 22.1987125,21.0746071 22.0734208,20.8906534 C21.8706292,20.5889165 21.9429625,20.1773366 22.2361708,19.9682382 L30.2083375,14.3146402 L25.8334625,11.2324235 L25.8334625,0.662365591 C25.8334625,0.297105045 25.5441292,0.000661703888 25.1876292,0.000661703888 L5.81262917,0.000661703888 C5.45612917,0.000661703888 5.16679583,0.297105045 5.16679583,0.662365591 L5.16679583,11.2324235 L0.856504167,14.2683209 L8.7679625,19.970885 C9.05987917,20.1826303 9.12962917,20.5942101 8.92425417,20.8946237 C8.79767083,21.0772539 8.59875417,21.1751861 8.39467083,21.1751861 C8.26679583,21.1751861 8.13762917,21.1354839 8.0239625,21.054756 L0.000129166667,15.2688172 L0.000129166667,29.1143093 C0.000129166667,30.5740281 1.15875417,31.7624483 2.5834625,31.7624483 L28.4167958,31.7624483 C29.8415042,31.7624483 31.0001292,30.5740281 31.0001292,29.1143093 L31.0001292,15.3627792 L22.9724208,21.0574028 Z" id="Fill-1"></path>
                    </g>
                    <path d="M9.5952381,4.53739809 L12.547619,4.53739809 C12.9550476,4.53739809 13.2857143,4.1986057 13.2857143,3.78116507 C13.2857143,3.36372445 12.9550476,3.02493206 12.547619,3.02493206 L9.5952381,3.02493206 C9.18780952,3.02493206 8.85714286,3.36372445 8.85714286,3.78116507 C8.85714286,4.1986057 9.18780952,4.53739809 9.5952381,4.53739809" id="Fill-4"></path>
                    <path d="M21.4970238,6.04986411 L12.4553571,6.04986411 C12.0988571,6.04986411 11.8095238,6.3886565 11.8095238,6.80609713 C11.8095238,7.22353775 12.0988571,7.56233014 12.4553571,7.56233014 L21.4970238,7.56233014 C21.8535238,7.56233014 22.1428571,7.22353775 22.1428571,6.80609713 C22.1428571,6.3886565 21.8535238,6.04986411 21.4970238,6.04986411" id="Fill-6"></path>
                    <path d="M21.4785714,10.5872622 L9.52142857,10.5872622 C9.15474286,10.5872622 8.85714286,10.9260546 8.85714286,11.3434952 C8.85714286,11.7609358 9.15474286,12.0997282 9.52142857,12.0997282 L21.4785714,12.0997282 C21.8452571,12.0997282 22.1428571,11.7609358 22.1428571,11.3434952 C22.1428571,10.9260546 21.8452571,10.5872622 21.4785714,10.5872622" id="Fill-8"></path>
                    <path d="M21.4785714,15.1246603 L9.52142857,15.1246603 C9.15474286,15.1246603 8.85714286,15.4634527 8.85714286,15.8808933 C8.85714286,16.2983339 9.15474286,16.6371263 9.52142857,16.6371263 L21.4785714,16.6371263 C21.8452571,16.6371263 22.1428571,16.2983339 22.1428571,15.8808933 C22.1428571,15.4634527 21.8452571,15.1246603 21.4785714,15.1246603" id="Fill-10"></path>
                </g>
            </g>
        </g>
    </g>
</svg>