<?xml version="1.0" encoding="UTF-8"?>
<svg width="44px" height="44px" viewBox="0 0 44 44" version="1.1" xmlns="http://www.w3.org/2000/svg" xmlns:xlink="http://www.w3.org/1999/xlink">
    <!-- Generator: Sketch 46.2 (44496) - http://www.bohemiancoding.com/sketch -->
    <title>mail</title>
    <desc>Created with Sketch.</desc>
    <defs></defs>
    <g id="Page-1" stroke="none" stroke-width="1" fill="none" fill-rule="evenodd">
        <g id="Artboard" transform="translate(-70.000000, -4172.000000)">
            <g id="mail" transform="translate(70.000000, 4172.000000)">
                <path d="M22,44 C39.3865661,44 44,38.1513114 44,22 C44,5.84868863 38.5252022,0 22,0 C5.47479782,2.0237536e-15 0,6.27436268 0,22 C9.62917571e-16,37.7256373 4.61343386,44 22,44 Z" id="Oval-3-Copy-3" fill="#F53071"></path>
                <g transform="translate(14.000000, 13.000000)" fill="#0D0D0D">
                    <path d="M14.5534363,15.1488834 C14.485163,15.2384119 14.3834497,15.2849959 14.2810397,15.2849959 C14.205103,15.2849959 14.1284697,15.2595203 14.0643763,15.2056576 L10.6764863,12.3734988 L6.043653,12.3734988 L2.655763,15.2056576 C2.50597967,15.3308519 2.28652967,15.3061042 2.166703,15.1488834 C2.04617967,14.9916625 2.070563,14.76311 2.221043,14.6379156 L5.70437633,11.7264185 C5.765683,11.6740116 5.84231633,11.6463524 5.92173633,11.6463524 L10.798403,11.6463524 C10.877823,11.6463524 10.9537597,11.6740116 11.015763,11.7264185 L14.4990963,14.6379156 C14.6495763,14.76311 14.6739597,14.9916625 14.5534363,15.1488834 L14.5534363,15.1488834 Z M3.483403,9.46272953 L13.2367363,9.46272953 L13.2367363,0.728238213 L3.483403,0.728238213 L3.483403,9.46272953 Z M12.3902863,11.5815715 C12.3296763,11.625244 12.2600097,11.6463524 12.1917363,11.6463524 C12.081663,11.6463524 11.972983,11.5910339 11.9054063,11.4898594 C11.7960297,11.3239041 11.835043,11.0975352 11.9931863,10.982531 L16.293013,7.87305211 L13.933403,6.17783292 L13.933403,0.364301075 C13.933403,0.163407775 13.7773497,0.000363937138 13.5850697,0.000363937138 L3.13506967,0.000363937138 C2.94278967,0.000363937138 2.78673633,0.163407775 2.78673633,0.364301075 L2.78673633,6.17783292 L0.461959667,7.84757651 L4.729043,10.9839868 C4.88648967,11.1004467 4.92410967,11.3268156 4.81333967,11.492043 C4.74506633,11.5924897 4.63777967,11.6463524 4.52770633,11.6463524 C4.45873633,11.6463524 4.38906967,11.6245161 4.327763,11.5801158 L6.96666667e-05,8.39784946 L6.96666667e-05,16.0128701 C6.96666667e-05,16.8157155 0.624979667,17.4693466 1.393403,17.4693466 L15.3267363,17.4693466 C16.0951597,17.4693466 16.7200697,16.8157155 16.7200697,16.0128701 L16.7200697,8.44952854 L12.3902863,11.5815715 Z" id="Fill-1"></path>
                    <path d="M5.1752381,2.49556895 L6.76761905,2.49556895 C6.98736762,2.49556895 7.16571429,2.30923313 7.16571429,2.07964079 C7.16571429,1.85004845 6.98736762,1.66371263 6.76761905,1.66371263 L5.1752381,1.66371263 C4.95548952,1.66371263 4.77714286,1.85004845 4.77714286,2.07964079 C4.77714286,2.30923313 4.95548952,2.49556895 5.1752381,2.49556895" id="Fill-4"></path>
                    <path d="M11.5945238,3.32742526 L6.71785714,3.32742526 C6.52557714,3.32742526 6.36952381,3.51376108 6.36952381,3.74335342 C6.36952381,3.97294576 6.52557714,4.15928158 6.71785714,4.15928158 L11.5945238,4.15928158 C11.7868038,4.15928158 11.9428571,3.97294576 11.9428571,3.74335342 C11.9428571,3.51376108 11.7868038,3.32742526 11.5945238,3.32742526" id="Fill-6"></path>
                    <path d="M11.5845714,5.82299421 L5.13542857,5.82299421 C4.93765486,5.82299421 4.77714286,6.00933002 4.77714286,6.23892237 C4.77714286,6.46851471 4.93765486,6.65485053 5.13542857,6.65485053 L11.5845714,6.65485053 C11.7823451,6.65485053 11.9428571,6.46851471 11.9428571,6.23892237 C11.9428571,6.00933002 11.7823451,5.82299421 11.5845714,5.82299421" id="Fill-8"></path>
                    <path d="M11.5845714,8.31856316 L5.13542857,8.31856316 C4.93765486,8.31856316 4.77714286,8.50489897 4.77714286,8.73449132 C4.77714286,8.96408366 4.93765486,9.15041947 5.13542857,9.15041947 L11.5845714,9.15041947 C11.7823451,9.15041947 11.9428571,8.96408366 11.9428571,8.73449132 C11.9428571,8.50489897 11.7823451,8.31856316 11.5845714,8.31856316" id="Fill-10"></path>
                </g>
            </g>
        </g>
    </g>
</svg>