<?xml version="1.0" encoding="UTF-8"?>
<svg width="46px" height="46px" viewBox="0 0 46 46" version="1.1" xmlns="http://www.w3.org/2000/svg" xmlns:xlink="http://www.w3.org/1999/xlink">
    <!-- Generator: Sketch 52.5 (67469) - http://www.bohemiancoding.com/sketch -->
    <title>medium-s</title>
    <desc>Created with Sketch.</desc>
    <g id="Page-1" stroke="none" stroke-width="1" fill="none" fill-rule="evenodd">
        <g id="Artboard-Copy-6" transform="translate(-528.000000, -527.000000)">
            <g id="medium-s" transform="translate(529.000000, 528.000000)">
                <path d="M22,44 C39.3865661,44 44,38.1513114 44,22 C44,5.84868863 38.5252022,2.13162821e-14 22,2.13162821e-14 C5.47479782,2.33400357e-14 0,6.27436268 0,22 C9.62917571e-16,37.7256373 4.61343386,44 22,44 Z" id="Oval-3-Copy-4" stroke="#000000" opacity="0.100000001"></path>
                <path d="M32.9130435,28.3473684 L32.0463826,28.3473684 C31.7246261,28.3473684 31.2695652,27.8657642 31.2695652,27.5574337 L31.2695652,16.3821053 C31.2695652,16.0733958 31.7246261,15.6526316 32.0463826,15.6526316 L32.9130435,15.6526316 L32.9130435,13 L25.0608696,13 L25.0608696,15.6526316 L26.7043478,15.6526316 L26.7043478,27.4 L26.6238174,27.4 L22.785967,13 L19.8146496,13 L16.0263043,27.4 L15.9304348,27.4 L15.9304348,15.6526316 L17.573913,15.6526316 L17.573913,13 L11,13 L11,15.6526316 L11.8417841,15.6526316 C12.1884539,15.6526316 12.6434783,16.0733958 12.6434783,16.3821053 L12.6434783,27.5574337 C12.6434783,27.8657642 12.1884539,28.3473684 11.8417841,28.3473684 L11,28.3473684 L11,31 L19.2203861,31 L21.9192878,20.5789474 L21.9935365,20.5789474 L24.7174009,31 L32.9130435,31 L32.9130435,28.3473684" id="path14" fill="#666666" transform="translate(21.956522, 22.000000) scale(-1, 1) rotate(-180.000000) translate(-21.956522, -22.000000) "></path>
            </g>
        </g>
    </g>
</svg>