<?xml version="1.0" encoding="UTF-8"?>
<svg width="356px" height="2002px" viewBox="0 0 356 2002" version="1.1" xmlns="http://www.w3.org/2000/svg" xmlns:xlink="http://www.w3.org/1999/xlink">
    <!-- Generator: Sketch 50.2 (55047) - http://www.bohemiancoding.com/sketch -->
    <title>section_right</title>
    <desc>Created with Sketch.</desc>
    <defs></defs>
    <g id="Page-1" stroke="none" stroke-width="1" fill="none" fill-rule="evenodd">
        <g id="Artboard" transform="translate(-1279.000000, -291.000000)">
            <g id="section_right" transform="translate(1279.000000, 291.000000)">
                <rect id="Rectangle-4" fill="#F6F7F7" x="0" y="0" width="356" height="2002"></rect>
                <text id="TITLE-WHATEVER" font-family="Futura-Medium, Futura" font-size="19.1815137" font-weight="400" line-spacing="35.1661085" letter-spacing="2.45523365" fill="#E82630">
                    <tspan x="87.4572655" y="164">TITLE WHATEVER</tspan>
                </text>
                <text id="TITLE-WHATEVER-Copy" font-family="Futura-Medium, Futura" font-size="19.1815137" font-weight="400" line-spacing="35.1661085" letter-spacing="2.45523365" fill="#E82630">
                    <tspan x="87.4572655" y="368">TITLE WHATEVER</tspan>
                </text>
                <text id="TITLE-WHATEVER-Copy-2" font-family="Futura-Medium, Futura" font-size="19.1815137" font-weight="400" line-spacing="35.1661085" letter-spacing="2.45523365" fill="#E82630">
                    <tspan x="87.4572655" y="576">TITLE WHATEVER</tspan>
                </text>
                <text id="TITLE-WHATEVER-Copy-3" font-family="Futura-Medium, Futura" font-size="19.1815137" font-weight="400" line-spacing="35.1661085" letter-spacing="2.45523365" fill="#E82630">
                    <tspan x="87.4572655" y="782">TITLE WHATEVER</tspan>
                </text>
                <text id="TITLE-WHATEVER-Copy-4" font-family="Futura-Medium, Futura" font-size="19.1815137" font-weight="400" line-spacing="35.1661085" letter-spacing="2.45523365" fill="#E82630">
                    <tspan x="87.4572655" y="980">TITLE WHATEVER</tspan>
                </text>
                <text id="Trump-does-This-and" font-family="Futura-Medium, Futura" font-size="22.3784327" font-weight="400" line-spacing="35.1661085" letter-spacing="0.303707297" fill="#000000">
                    <tspan x="98.1276942" y="204">Trump does This</tspan>
                    <tspan x="72.2232223" y="239.166109">and Trump does Tha</tspan>
                    <tspan x="284.657675" y="239.166109">t</tspan>
                </text>
                <text id="Trump-does-This-and-Copy" font-family="Futura-Medium, Futura" font-size="22.3784327" font-weight="400" line-spacing="35.1661085" letter-spacing="0.303707297" fill="#000000">
                    <tspan x="98.1276942" y="408">Trump does This</tspan>
                    <tspan x="72.2232223" y="443.166109">and Trump does Tha</tspan>
                    <tspan x="284.657675" y="443.166109">t</tspan>
                </text>
                <text id="Trump-does-This-and-Copy-2" font-family="Futura-Medium, Futura" font-size="22.3784327" font-weight="400" line-spacing="35.1661085" letter-spacing="0.303707297" fill="#000000">
                    <tspan x="98.1276942" y="616">Trump does This</tspan>
                    <tspan x="72.2232223" y="651.166109">and Trump does Tha</tspan>
                    <tspan x="284.657675" y="651.166109">t</tspan>
                </text>
                <text id="Trump-does-This-and-Copy-3" font-family="Futura-Medium, Futura" font-size="22.3784327" font-weight="400" line-spacing="35.1661085" letter-spacing="0.303707297" fill="#000000">
                    <tspan x="98.1276942" y="822">Trump does This</tspan>
                    <tspan x="72.2232223" y="857.166109">and Trump does Tha</tspan>
                    <tspan x="284.657675" y="857.166109">t</tspan>
                </text>
                <text id="Trump-does-This-and-Copy-4" font-family="Futura-Medium, Futura" font-size="22.3784327" font-weight="400" line-spacing="35.1661085" letter-spacing="0.303707297" fill="#000000">
                    <tspan x="98.1276942" y="1020">Trump does This</tspan>
                    <tspan x="72.2232223" y="1055.16611">and Trump does Tha</tspan>
                    <tspan x="284.657675" y="1055.16611">t</tspan>
                </text>
                <text id="BY-WHO-EVER" font-family="Futura-Medium, Futura" font-size="14.3861353" font-weight="400" line-spacing="35.1661085" letter-spacing="3.38873391" fill="#000000">
                    <tspan x="116.160186" y="269">BY WHO EVE</tspan>
                    <tspan x="240.17863" y="269">R</tspan>
                </text>
                <text id="BY-WHO-EVER-Copy" font-family="Futura-Medium, Futura" font-size="14.3861353" font-weight="400" line-spacing="35.1661085" letter-spacing="3.38873391" fill="#000000">
                    <tspan x="116.160186" y="474">BY WHO EVE</tspan>
                    <tspan x="240.17863" y="474">R</tspan>
                </text>
                <text id="BY-WHO-EVER-Copy-2" font-family="Futura-Medium, Futura" font-size="14.3861353" font-weight="400" line-spacing="35.1661085" letter-spacing="3.38873391" fill="#000000">
                    <tspan x="116.160186" y="682">BY WHO EVE</tspan>
                    <tspan x="240.17863" y="682">R</tspan>
                </text>
                <text id="BY-WHO-EVER-Copy-3" font-family="Futura-Medium, Futura" font-size="14.3861353" font-weight="400" line-spacing="35.1661085" letter-spacing="3.38873391" fill="#000000">
                    <tspan x="116.160186" y="888">BY WHO EVE</tspan>
                    <tspan x="240.17863" y="888">R</tspan>
                </text>
                <text id="BY-WHO-EVER-Copy-4" font-family="Futura-Medium, Futura" font-size="14.3861353" font-weight="400" line-spacing="35.1661085" letter-spacing="3.38873391" fill="#000000">
                    <tspan x="116.160186" y="1086">BY WHO EVE</tspan>
                    <tspan x="240.17863" y="1086">R</tspan>
                </text>
                <text id="TRENDING" font-family="CactusBold, Cactus" font-size="44.7568654" font-weight="bold" letter-spacing="1.43861343" fill="#000000">
                    <tspan x="125.053919" y="90">TRENDIN</tspan>
                    <tspan x="222.937182" y="90">G</tspan>
                </text>
                <path d="M114,304.558747 C115.647304,302.852916 117.608157,302 119.88256,302 C123.294164,302 125.460684,307 130.473533,307 C135.486382,307 137.697237,302 142.310329,302 C146.923421,302 147.351996,307 152.440214,307 C157.528433,307 159.379433,302 164.589574,302 C169.799715,302 170.427799,307 175.683014,307 C180.93823,307 181.094142,302 186.703301,302 C192.31246,302 191.597183,307 197.750928,307 C203.904673,307 204.980543,302 208.953729,302 C212.926914,302 215.933588,307 220.064903,307 C224.196217,307 227.580481,302 232.4352,302 C237.28992,302 237.968989,307 242.381833,307 C243.906664,307 245.446053,306.552248 247,305.656743" id="Path-2" stroke="#000000" stroke-width="1.59845948"></path>
                <path d="M114,509.558747 C115.647304,507.852916 117.608157,507 119.88256,507 C123.294164,507 125.460684,512 130.473533,512 C135.486382,512 137.697237,507 142.310329,507 C146.923421,507 147.351996,512 152.440214,512 C157.528433,512 159.379433,507 164.589574,507 C169.799715,507 170.427799,512 175.683014,512 C180.93823,512 181.094142,507 186.703301,507 C192.31246,507 191.597183,512 197.750928,512 C203.904673,512 204.980543,507 208.953729,507 C212.926914,507 215.933588,512 220.064903,512 C224.196217,512 227.580481,507 232.4352,507 C237.28992,507 237.968989,512 242.381833,512 C243.906664,512 245.446053,511.552248 247,510.656743" id="Path-2-Copy" stroke="#000000" stroke-width="1.59845948"></path>
                <path d="M114,717.558747 C115.647304,715.852916 117.608157,715 119.88256,715 C123.294164,715 125.460684,720 130.473533,720 C135.486382,720 137.697237,715 142.310329,715 C146.923421,715 147.351996,720 152.440214,720 C157.528433,720 159.379433,715 164.589574,715 C169.799715,715 170.427799,720 175.683014,720 C180.93823,720 181.094142,715 186.703301,715 C192.31246,715 191.597183,720 197.750928,720 C203.904673,720 204.980543,715 208.953729,715 C212.926914,715 215.933588,720 220.064903,720 C224.196217,720 227.580481,715 232.4352,715 C237.28992,715 237.968989,720 242.381833,720 C243.906664,720 245.446053,719.552248 247,718.656743" id="Path-2-Copy-2" stroke="#000000" stroke-width="1.59845948"></path>
                <path d="M114,923.558747 C115.647304,921.852916 117.608157,921 119.88256,921 C123.294164,921 125.460684,926 130.473533,926 C135.486382,926 137.697237,921 142.310329,921 C146.923421,921 147.351996,926 152.440214,926 C157.528433,926 159.379433,921 164.589574,921 C169.799715,921 170.427799,926 175.683014,926 C180.93823,926 181.094142,921 186.703301,921 C192.31246,921 191.597183,926 197.750928,926 C203.904673,926 204.980543,921 208.953729,921 C212.926914,921 215.933588,926 220.064903,926 C224.196217,926 227.580481,921 232.4352,921 C237.28992,921 237.968989,926 242.381833,926 C243.906664,926 245.446053,925.552248 247,924.656743" id="Path-2-Copy-3" stroke="#000000" stroke-width="1.59845948"></path>
                <path d="M114,1121.55875 C115.647304,1119.85292 117.608157,1119 119.88256,1119 C123.294164,1119 125.460684,1124 130.473533,1124 C135.486382,1124 137.697237,1119 142.310329,1119 C146.923421,1119 147.351996,1124 152.440214,1124 C157.528433,1124 159.379433,1119 164.589574,1119 C169.799715,1119 170.427799,1124 175.683014,1124 C180.93823,1124 181.094142,1119 186.703301,1119 C192.31246,1119 191.597183,1124 197.750928,1124 C203.904673,1124 204.980543,1119 208.953729,1119 C212.926914,1119 215.933588,1124 220.064903,1124 C224.196217,1124 227.580481,1119 232.4352,1119 C237.28992,1119 237.968989,1124 242.381833,1124 C243.906664,1124 245.446053,1123.55225 247,1122.65674" id="Path-2-Copy-6" stroke="#000000" stroke-width="1.59845948"></path>
                <text id="TITLE-WHATEVER-Copy-5" font-family="Futura-Medium, Futura" font-size="19.1815137" font-weight="400" line-spacing="35.1661085" letter-spacing="2.45523365" fill="#E82630">
                    <tspan x="87.4572655" y="1178">TITLE WHATEVER</tspan>
                </text>
                <text id="Trump-does-This-and-Copy-5" font-family="Futura-Medium, Futura" font-size="22.3784327" font-weight="400" line-spacing="35.1661085" letter-spacing="0.303707297" fill="#000000">
                    <tspan x="98.1276942" y="1218">Trump does This</tspan>
                    <tspan x="72.2232223" y="1253.16611">and Trump does Tha</tspan>
                    <tspan x="284.657675" y="1253.16611">t</tspan>
                </text>
                <text id="BY-WHO-EVER-Copy-5" font-family="Futura-Medium, Futura" font-size="14.3861353" font-weight="400" line-spacing="35.1661085" letter-spacing="3.38873391" fill="#000000">
                    <tspan x="116.160186" y="1284">BY WHO EVE</tspan>
                    <tspan x="240.17863" y="1284">R</tspan>
                </text>
                <path d="M114,1319.55875 C115.647304,1317.85292 117.608157,1317 119.88256,1317 C123.294164,1317 125.460684,1322 130.473533,1322 C135.486382,1322 137.697237,1317 142.310329,1317 C146.923421,1317 147.351996,1322 152.440214,1322 C157.528433,1322 159.379433,1317 164.589574,1317 C169.799715,1317 170.427799,1322 175.683014,1322 C180.93823,1322 181.094142,1317 186.703301,1317 C192.31246,1317 191.597183,1322 197.750928,1322 C203.904673,1322 204.980543,1317 208.953729,1317 C212.926914,1317 215.933588,1322 220.064903,1322 C224.196217,1322 227.580481,1317 232.4352,1317 C237.28992,1317 237.968989,1322 242.381833,1322 C243.906664,1322 245.446053,1321.55225 247,1320.65674" id="Path-2-Copy-8" stroke="#000000" stroke-width="1.59845948"></path>
                <text id="TITLE-WHATEVER-Copy-6" font-family="Futura-Medium, Futura" font-size="19.1815137" font-weight="400" line-spacing="35.1661085" letter-spacing="2.45523365" fill="#E82630">
                    <tspan x="87.4572655" y="1376">TITLE WHATEVER</tspan>
                </text>
                <text id="Trump-does-This-and-Copy-6" font-family="Futura-Medium, Futura" font-size="22.3784327" font-weight="400" line-spacing="35.1661085" letter-spacing="0.303707297" fill="#000000">
                    <tspan x="98.1276942" y="1416">Trump does This</tspan>
                    <tspan x="72.2232223" y="1451.16611">and Trump does Tha</tspan>
                    <tspan x="284.657675" y="1451.16611">t</tspan>
                </text>
                <text id="BY-WHO-EVER-Copy-6" font-family="Futura-Medium, Futura" font-size="14.3861353" font-weight="400" line-spacing="35.1661085" letter-spacing="3.38873391" fill="#000000">
                    <tspan x="116.160186" y="1482">BY WHO EVE</tspan>
                    <tspan x="240.17863" y="1482">R</tspan>
                </text>
                <path d="M114,1517.55875 C115.647304,1515.85292 117.608157,1515 119.88256,1515 C123.294164,1515 125.460684,1520 130.473533,1520 C135.486382,1520 137.697237,1515 142.310329,1515 C146.923421,1515 147.351996,1520 152.440214,1520 C157.528433,1520 159.379433,1515 164.589574,1515 C169.799715,1515 170.427799,1520 175.683014,1520 C180.93823,1520 181.094142,1515 186.703301,1515 C192.31246,1515 191.597183,1520 197.750928,1520 C203.904673,1520 204.980543,1515 208.953729,1515 C212.926914,1515 215.933588,1520 220.064903,1520 C224.196217,1520 227.580481,1515 232.4352,1515 C237.28992,1515 237.968989,1520 242.381833,1520 C243.906664,1520 245.446053,1519.55225 247,1518.65674" id="Path-2-Copy-9" stroke="#000000" stroke-width="1.59845948"></path>
                <text id="TITLE-WHATEVER-Copy-7" font-family="Futura-Medium, Futura" font-size="19.1815137" font-weight="400" line-spacing="35.1661085" letter-spacing="2.45523365" fill="#E82630">
                    <tspan x="87.4572655" y="1574">TITLE WHATEVER</tspan>
                </text>
                <text id="Trump-does-This-and-Copy-7" font-family="Futura-Medium, Futura" font-size="22.3784327" font-weight="400" line-spacing="35.1661085" letter-spacing="0.303707297" fill="#000000">
                    <tspan x="98.1276942" y="1614">Trump does This</tspan>
                    <tspan x="72.2232223" y="1649.16611">and Trump does Tha</tspan>
                    <tspan x="284.657675" y="1649.16611">t</tspan>
                </text>
                <text id="BY-WHO-EVER-Copy-7" font-family="Futura-Medium, Futura" font-size="14.3861353" font-weight="400" line-spacing="35.1661085" letter-spacing="3.38873391" fill="#000000">
                    <tspan x="116.160186" y="1680">BY WHO EVE</tspan>
                    <tspan x="240.17863" y="1680">R</tspan>
                </text>
                <path d="M114,1715.55875 C115.647304,1713.85292 117.608157,1713 119.88256,1713 C123.294164,1713 125.460684,1718 130.473533,1718 C135.486382,1718 137.697237,1713 142.310329,1713 C146.923421,1713 147.351996,1718 152.440214,1718 C157.528433,1718 159.379433,1713 164.589574,1713 C169.799715,1713 170.427799,1718 175.683014,1718 C180.93823,1718 181.094142,1713 186.703301,1713 C192.31246,1713 191.597183,1718 197.750928,1718 C203.904673,1718 204.980543,1713 208.953729,1713 C212.926914,1713 215.933588,1718 220.064903,1718 C224.196217,1718 227.580481,1713 232.4352,1713 C237.28992,1713 237.968989,1718 242.381833,1718 C243.906664,1718 245.446053,1717.55225 247,1716.65674" id="Path-2-Copy-10" stroke="#000000" stroke-width="1.59845948"></path>
                <text id="TITLE-WHATEVER-Copy-8" font-family="Futura-Medium, Futura" font-size="19.1815137" font-weight="400" line-spacing="35.1661085" letter-spacing="2.45523365" fill="#E82630">
                    <tspan x="87.4572655" y="1772">TITLE WHATEVER</tspan>
                </text>
                <text id="Trump-does-This-and-Copy-8" font-family="Futura-Medium, Futura" font-size="22.3784327" font-weight="400" line-spacing="35.1661085" letter-spacing="0.303707297" fill="#000000">
                    <tspan x="98.1276942" y="1812">Trump does This</tspan>
                    <tspan x="72.2232223" y="1847.16611">and Trump does Tha</tspan>
                    <tspan x="284.657675" y="1847.16611">t</tspan>
                </text>
                <text id="BY-WHO-EVER-Copy-8" font-family="Futura-Medium, Futura" font-size="14.3861353" font-weight="400" line-spacing="35.1661085" letter-spacing="3.38873391" fill="#000000">
                    <tspan x="116.160186" y="1878">BY WHO EVE</tspan>
                    <tspan x="240.17863" y="1878">R</tspan>
                </text>
                <path d="M114,1913.55875 C115.647304,1911.85292 117.608157,1911 119.88256,1911 C123.294164,1911 125.460684,1916 130.473533,1916 C135.486382,1916 137.697237,1911 142.310329,1911 C146.923421,1911 147.351996,1916 152.440214,1916 C157.528433,1916 159.379433,1911 164.589574,1911 C169.799715,1911 170.427799,1916 175.683014,1916 C180.93823,1916 181.094142,1911 186.703301,1911 C192.31246,1911 191.597183,1916 197.750928,1916 C203.904673,1916 204.980543,1911 208.953729,1911 C212.926914,1911 215.933588,1916 220.064903,1916 C224.196217,1916 227.580481,1911 232.4352,1911 C237.28992,1911 237.968989,1916 242.381833,1916 C243.906664,1916 245.446053,1915.55225 247,1914.65674" id="Path-2-Copy-11" stroke="#000000" stroke-width="1.59845948"></path>
                <path d="M58.8076923,63.5 L78.1923077,63.5" id="Line-2" stroke="#000000" stroke-width="1.59845948" stroke-linecap="square"></path>
                <path d="M269.807692,63.5 L289.192308,63.5" id="Line-2-Copy-3" stroke="#000000" stroke-width="1.59845948" stroke-linecap="square"></path>
                <path d="M74.8076923,82.5 L94.1923077,82.5" id="Line-2-Copy-2" stroke="#000000" stroke-width="1.59845948" stroke-linecap="square"></path>
                <path d="M285.807692,82.5 L305.192308,82.5" id="Line-2-Copy-4" stroke="#000000" stroke-width="1.59845948" stroke-linecap="square"></path>
                <path d="M46.8,69.5 L85.2,69.5" id="Line-2" stroke="#000000" stroke-width="1.59845948" stroke-linecap="square"></path>
                <path d="M257.8,69.5 L296.2,69.5" id="Line-2-Copy-5" stroke="#000000" stroke-width="1.59845948" stroke-linecap="square"></path>
                <path d="M62.8,76.5 L101.2,76.5" id="Line-2-Copy" stroke="#000000" stroke-width="1.59845948" stroke-linecap="square"></path>
                <path d="M273.8,76.5 L312.2,76.5" id="Line-2-Copy-6" stroke="#000000" stroke-width="1.59845948" stroke-linecap="square"></path>
            </g>
        </g>
    </g>
</svg>