<?xml version="1.0" encoding="UTF-8"?>
<svg width="54px" height="25px" viewBox="0 0 54 25" version="1.1" xmlns="http://www.w3.org/2000/svg" xmlns:xlink="http://www.w3.org/1999/xlink">
    <!-- Generator: Sketch 46.2 (44496) - http://www.bohemiancoding.com/sketch -->
    <title>g2997</title>
    <desc>Created with Sketch.</desc>
    <defs></defs>
    <g id="Page-1" stroke="none" stroke-width="1" fill="none" fill-rule="evenodd">
        <g id="Artboard-2" transform="translate(-403.000000, -3293.000000)" fill-rule="nonzero" fill="#00AFF0">
            <g id="g2997" transform="translate(430.000000, 3305.500000) scale(-1, 1) rotate(-180.000000) translate(-430.000000, -3305.500000) translate(403.000000, 3293.000000)">
                <path d="M42.2307179,13.7112446 L47.1390892,13.7112446 C46.9874238,14.994792 46.0285516,15.9373665 44.7815217,15.9373665 C43.3783286,15.9373665 42.5351732,15.0734291 42.2307179,13.7112446 L42.2307179,13.7112446 Z M34.7091967,9.54716502 C36.4909911,9.56737816 36.9308276,11.3531148 36.9308276,12.6574442 C36.9308276,14.3077997 36.2022646,15.6862752 34.7091967,15.7064951 C33.0751322,15.727846 32.462286,14.2505002 32.462286,12.6574442 C32.462286,11.2171781 33.0015483,9.54716502 34.7091967,9.54716502 L34.7091967,9.54716502 Z M53.7972352,16.7310868 C53.7972352,18.3567247 52.483917,19.6694807 50.8594035,19.6694807 C50.0196214,19.6694807 49.2663475,19.3195258 48.7321452,18.7555526 C47.4890442,19.6194833 45.9830519,20.1256014 44.3534852,20.1256014 C42.7076274,20.1256014 41.1898352,19.6076901 39.9383076,18.7268994 C39.3748966,19.2493086 38.6261138,19.5666815 37.7992561,19.5666815 C37.1858477,19.5666815 36.6134479,19.3891808 36.1286807,19.085281 C34.9805078,21.1339022 32.7914589,22.5168754 30.2771726,22.5168754 C27.9774602,22.5168754 25.9524388,21.3642114 24.7391087,19.6076901 C23.7268724,20.6480106 22.3113239,21.2945564 20.743541,21.2945564 C19.7065939,21.2945564 18.739864,21.0103209 17.9085085,20.5171272 C17.8882954,22.4960867 16.2828706,24.0925159 14.2999755,24.0925159 C12.3041561,24.0925159 10.687507,22.4753046 10.687507,20.483983 L10.6959403,20.3441108 C10.3089124,20.4014036 9.91402001,20.4345545 9.51070106,20.4345545 C8.33388171,20.4345545 7.22278182,20.1755921 6.22291439,19.7144181 C5.65949672,20.0149446 5.02137746,20.1879543 4.33832079,20.1879543 C2.14533634,20.1879543 0.359606373,18.4061532 0.359606373,16.2086776 C0.359606373,15.0442204 0.8657245,14.0033378 1.66000695,13.2747814 C1.63919144,13.0360456 1.62687615,12.7933809 1.62687615,12.5507162 C1.62687615,8.19732928 5.15732752,4.67137567 9.51071445,4.67137567 C11.2015096,4.67137567 12.769848,5.20614023 14.0528332,6.11164176 C15.2094327,4.53094124 17.0737998,3.49848516 19.180276,3.49848516 C19.23362,3.49848516 19.2830752,3.50250102 19.3319415,3.50691846 C19.9414143,1.7829791 21.5749166,0.548304677 23.5044476,0.548304677 C25.4553296,0.548304677 27.1129806,1.81556107 27.6971803,3.57264461 C28.3684437,2.30089046 29.6969285,1.43695971 31.2315672,1.43695971 C33.1492983,1.43695971 34.7502186,2.7907176 35.1366911,4.59273855 C35.4125,4.55626121 35.6961665,4.53096132 35.980402,4.53096132 C37.5442493,4.53096132 38.9637334,5.12414317 40.0450557,6.0908798 C41.2718724,5.25558878 42.7570759,4.76576163 44.3535052,4.76576163 C48.5962286,4.76576163 52.0317452,8.20577596 52.0317452,12.4479371 C52.0317452,12.9709084 51.9823502,13.4848843 51.8795175,13.9786469 C52.9984818,14.3943213 53.7972553,15.467786 53.7972553,16.7311068 L53.7972352,16.7310868 Z M49.7893322,13.3079457 C49.7893322,12.3490735 49.5011679,12.1024799 48.5591556,12.1024799 L42.230738,12.1024799 C42.230738,10.6251341 43.1890413,9.5471851 44.8186148,9.5471851 C46.9295821,9.5471851 46.9295821,10.9295894 48.0609018,10.9295894 C48.7321653,10.9295894 49.2130036,10.3532608 49.2130036,9.83534943 C49.2130036,8.1484831 46.5060433,7.36262725 44.8186148,7.36262725 C41.6341828,7.36262725 40.0619089,9.11521303 39.588935,11.0818171 C39.1653962,9.02028493 37.8150049,7.36262725 35.4164288,7.36262725 C34.1328814,7.36262725 33.1745781,7.88053861 32.6561045,8.78154908 L32.6150759,8.78154908 L32.6150759,5.04100829 C32.6150759,4.11977799 32.0589671,3.63837745 31.2158184,3.63837745 C30.3715385,3.63837745 29.8165541,4.11977799 29.8165541,5.04100829 L29.8165541,15.4762059 L26.6686397,6.55542714 C25.9985007,4.63825157 25.2283669,3.63837745 23.4634257,3.63837745 C22.2169513,3.63837745 21.6979155,4.25178582 21.6979155,4.92641589 C21.6979155,5.67576093 22.2371778,6.05829783 22.9865162,6.05829783 L23.274125,6.05829783 C23.6364354,6.05829783 24.0391921,6.07402659 24.2498437,6.93851957 L21.3361674,15.2459033 C21.2333682,15.5464231 21.1552866,15.7722413 21.0979937,15.9621042 C21.0317321,15.875596 20.9581215,15.7975144 20.8710578,15.7065151 L18.8016546,13.5382483 L21.7192598,9.62526 C21.8136324,9.49382109 22.0068686,9.18486803 22.0068686,8.72424953 C22.0068686,8.01254643 21.4310955,7.36262725 20.6823126,7.36262725 C19.9908294,7.36262725 19.6245835,7.70752891 19.4150563,8.01254643 L16.7687622,11.7570161 L15.7896768,10.8930786 L15.7896768,8.76132925 C15.7896768,7.84346558 15.2341235,7.36262725 14.3904126,7.36262725 C13.5427661,7.36262725 12.9872195,7.84346558 12.9872195,8.76132925 L12.9872195,9.79434086 C12.4855991,8.1400565 10.613361,7.36262725 8.80684896,7.36262725 C6.27627171,7.36262725 4.16585992,8.49394697 4.16585992,9.8763513 C4.16585992,10.4891974 4.51132379,11.044744 5.29717964,11.044744 C6.50657427,11.044744 6.62229111,9.31687585 8.69169434,9.31687585 C9.68763292,9.31687585 10.3212611,9.76119667 10.3212611,10.333041 C10.3212611,11.044744 9.70785944,11.1598987 8.71247638,11.41099 L7.06268309,11.8103801 C5.43311631,12.2131368 4.16585992,12.8883358 4.16585992,14.7689939 C4.16585992,17.0479176 6.42905489,17.895564 8.36645698,17.895564 C10.4937153,17.895564 12.6456912,17.0479176 12.6456912,15.7643769 C12.6456912,15.1105222 12.2013637,14.5381224 11.4733629,14.5381224 C10.3785607,14.5381224 10.3414876,15.822232 8.57653971,15.822232 C7.59744764,15.822232 6.96381945,15.5548497 6.96381945,14.9582945 C6.96381945,14.3078198 7.59744764,14.1516566 8.46138509,13.9617937 L9.62977784,13.6904759 C10.975678,13.3860206 12.5350276,12.8551916 12.9872195,11.5222157 L12.9872195,20.2739203 C12.9872195,21.1912151 13.5427661,21.6726156 14.3904126,21.6726156 C15.2341235,21.6726156 15.7896768,21.1912151 15.7896768,20.2739203 L15.7896768,13.9050564 L18.8960205,17.3568706 C19.1841915,17.6652615 19.5504374,17.895564 19.9700473,17.895564 C20.4267303,17.895564 20.9120597,17.5995353 21.14686,17.1714988 C21.3732404,17.6079619 21.8259878,17.895564 22.3523258,17.895564 C23.1011086,17.895564 23.6195822,17.4720253 23.7881008,16.8383971 L25.5946128,10.2959612 L25.6316925,10.2959612 L27.3399031,16.6445986 C27.5331326,17.3568706 27.9156695,17.895564 28.6852344,17.895564 C29.3475157,17.895564 29.7300459,17.5669534 29.932271,17.2293606 C30.1002274,17.661326 30.4748999,17.895564 31.0798817,17.895564 C31.9067394,17.895564 32.3471314,17.4310167 32.3471314,16.5710148 L32.3471314,16.1306228 L32.38816,16.1306228 C32.8493407,17.3192354 33.9806538,17.895564 35.3383472,17.895564 C37.3380954,17.895564 39.1238254,16.6406698 39.6057882,14.0196488 C40.1484171,16.3895785 41.9712201,17.895564 44.7242422,17.895564 C47.9463094,17.895564 49.7893322,15.6121493 49.7893322,13.3079457 L49.7893322,13.3079457 Z M50.6572052,17.6939079 L51.2048874,17.6939079 C51.2048874,17.6939079 51.2089033,17.6939079 51.6244974,16.4805778 L52.0154609,17.6939079 L52.5580831,17.6939079 L52.5580831,15.92896 L52.196335,15.92896 C52.196335,15.92896 52.1923191,15.92896 52.1923191,17.1799254 L51.7597915,15.92896 L51.4592651,15.92896 C51.4592651,15.92896 51.4552492,15.92896 51.0233708,17.16757 L51.0233708,15.92896 L50.6571249,15.92896 L50.6571249,17.6939079 L50.6572052,17.6939079 Z M49.0113408,17.3692261 L49.0113408,17.6939079 L50.4555424,17.6939079 L50.4555424,17.3692261 L49.9292045,17.3692261 L49.9292045,15.92896 L49.538241,15.92896 L49.538241,17.3692261 L49.0113408,17.3692261 Z" id="path3003"></path>
            </g>
        </g>
    </g>
</svg>