<?xml version="1.0" encoding="UTF-8"?>
<svg width="130px" height="57px" viewBox="0 0 130 57" version="1.1" xmlns="http://www.w3.org/2000/svg" xmlns:xlink="http://www.w3.org/1999/xlink">
    <!-- Generator: Sketch 46.2 (44496) - http://www.bohemiancoding.com/sketch -->
    <title>skype_logo</title>
    <desc>Created with Sketch.</desc>
    <defs></defs>
    <g id="Page-1" stroke="none" stroke-width="1" fill="none" fill-rule="evenodd">
        <g id="Artboard-Copy-10" transform="translate(-655.000000, -912.000000)" fill-rule="nonzero" fill="#00AFF0">
            <g id="skype_logo" transform="translate(720.000000, 940.500000) scale(-1, 1) rotate(-180.000000) translate(-720.000000, -940.500000) translate(655.000000, 912.000000)">
                <path d="M101.861601,31.8671781 L113.802401,31.8671781 C113.433439,34.9746171 111.10075,37.2565687 108.067048,37.2565687 C104.653442,37.2565687 102.602263,35.1649958 101.861601,31.8671781 L101.861601,31.8671781 Z M83.5636827,21.7860362 C87.8983284,21.8349718 88.9683369,26.1581996 88.9683369,29.3159515 C88.9683369,33.3114246 87.1959313,36.6486824 83.5636827,36.6976342 C79.5884257,36.7493243 78.0975293,33.1727037 78.0975293,29.3159515 C78.0975293,25.8291 79.4094152,21.7860362 83.5636827,21.7860362 L83.5636827,21.7860362 Z M129.999951,39.1781474 C129.999951,43.1137798 126.804987,46.2919323 122.852965,46.2919323 C120.809992,46.2919323 118.977471,45.4446993 117.677895,44.0793331 C114.653751,46.1708898 110.990061,47.3961902 107.025746,47.3961902 C103.021799,47.3961902 99.3294027,46.1423386 96.2847592,44.0099645 C94.9141258,45.2747051 93.0925305,46.0430578 91.0809992,46.0430578 C89.5887351,46.0430578 88.1962342,45.6133325 87.0169208,44.877598 C84.2237126,49.8372633 78.8983219,53.1854101 72.7817127,53.1854101 C67.1871062,53.1854101 62.2607522,50.3948368 59.3090332,46.1423386 C56.8465238,48.6609308 53.4028599,50.2262036 49.5888491,50.2262036 C47.0662244,50.2262036 44.7144202,49.538076 42.691947,48.3440651 C42.6427736,53.135081 38.7371897,57 33.9133182,57 C29.058005,57 25.1251152,53.0847682 25.1251152,48.2638238 L25.1456312,47.9251963 C24.2040921,48.063901 23.243421,48.1441586 22.2622502,48.1441586 C19.3993526,48.1441586 16.6963335,47.5172166 14.2639143,46.4007247 C12.8932646,47.1282925 11.3408852,47.547145 9.6791847,47.547145 C4.34421985,47.547145 0,43.233445 0,37.9134068 C0,35.0942824 1.2312547,32.5743291 3.16353879,30.8105108 C3.11290002,30.2325368 3.08294011,29.6450511 3.08294011,29.0575654 C3.08294011,18.5181146 11.6716166,9.9818611 22.2622827,9.9818611 C26.3755508,9.9818611 30.190913,11.2765139 33.3120846,13.4687126 C36.1257926,9.64187255 40.6613162,7.14231986 45.785829,7.14231986 C45.915601,7.14231986 46.0359128,7.15204215 46.1547918,7.16273667 C47.6374818,2.98911871 51.6113711,0 56.3054218,0 C61.0514138,0 65.0840506,3.0679989 66.5052576,7.32185819 C68.1382683,4.24297031 71.3701287,2.15141361 75.1035082,2.15141361 C79.7688528,2.15141361 83.6634785,5.42883069 84.6036662,9.79148242 C85.274638,9.7031716 85.9647255,9.64192116 86.656197,9.64192116 C90.4606337,9.64192116 93.9138718,11.0780009 96.5444498,13.4184483 C99.5289781,11.3962278 103.142095,10.2103674 107.025795,10.2103674 C117.347245,10.2103674 125.70497,18.5385638 125.70497,28.8087395 C125.70497,30.0748412 125.584804,31.3191649 125.334639,32.5145532 C128.05679,33.5208914 130,36.1197249 130,39.178196 L129.999951,39.1781474 Z M120.249758,30.8908008 C120.249758,28.5693929 119.548729,27.9723955 117.257056,27.9723955 L101.86165,27.9723955 C101.86165,24.3957749 104.192955,21.7860848 108.157286,21.7860848 C113.292725,21.7860848 113.292725,25.1328543 116.044933,25.1328543 C117.677944,25.1328543 118.847699,23.7375757 118.847699,22.4837241 C118.847699,18.3998591 112.262364,16.49732 108.157286,16.49732 C100.410386,16.49732 96.5854493,20.7402903 95.4348258,25.501394 C94.4044653,20.5104715 91.1193121,16.49732 85.2841958,16.49732 C82.1616565,16.49732 79.830352,17.7511716 78.5690397,19.9324974 L78.4692276,19.9324974 L78.4692276,10.8767333 C78.4692276,8.64645567 77.1163584,7.4809959 75.0651954,7.4809959 C73.0112806,7.4809959 71.6611469,8.64645567 71.6611469,10.8767333 L71.6611469,36.1401093 L64.0030839,14.5431069 C62.3728088,9.9016684 60.4992722,7.4809959 56.205626,7.4809959 C53.1732758,7.4809959 51.9105957,8.96604362 51.9105957,10.5993077 C51.9105957,12.413455 53.2224817,13.3395681 55.0454283,13.3395681 L55.7451063,13.3395681 C56.6265139,13.3395681 57.606317,13.3776471 58.118778,15.4705649 L51.0305559,35.5825521 C50.780472,36.3101036 50.5905196,36.8568043 50.4511409,37.316458 C50.2899436,37.1070237 50.110868,36.9179899 49.8990644,36.6976828 L44.8647408,31.448358 L51.9625208,21.9751024 C52.1921049,21.6568918 52.6621987,20.9089234 52.6621987,19.7937765 C52.6621987,18.0707595 51.2614914,16.49732 49.4398962,16.49732 C47.757696,16.49732 46.8667142,17.332319 46.3569886,18.0707595 L39.9192385,27.1360353 L37.5373766,25.0444624 L37.5373766,19.8835457 C37.5373766,17.6614186 36.1858589,16.49732 34.1333281,16.49732 C32.0712232,16.49732 30.7197218,17.6614186 30.7197218,19.8835457 L30.7197218,22.3844433 C29.4994089,18.3794585 24.944737,16.49732 20.5499598,16.49732 C14.3937188,16.49732 9.25963195,19.2362193 9.25963195,22.5829887 C9.25963195,24.0666753 10.1000563,25.411641 12.0118407,25.411641 C14.9539855,25.411641 15.2354947,21.2285114 20.2698183,21.2285114 C22.6926797,21.2285114 24.2341335,22.304202 24.2341335,23.688624 C24.2341335,25.411641 22.7418856,25.6904277 20.3203757,26.298314 L16.3068546,27.2652284 C12.3425395,28.2402933 9.25963195,29.8749347 9.25963195,34.4279651 C9.25963195,39.9451876 14.7654009,41.9973204 19.4785998,41.9973204 C24.6536699,41.9973204 29.8888715,39.9451876 29.8888715,36.8377648 C29.8888715,35.2547974 28.8079374,33.8690305 27.0368995,33.8690305 C24.3735285,33.8690305 24.2833394,36.9778306 19.9896769,36.9778306 C17.6077987,36.9778306 16.0663449,36.3305042 16.0663449,34.8862577 C16.0663449,33.3114732 17.6077987,32.9334057 19.7095354,32.4737519 L22.5519332,31.8168977 C25.8261609,31.0798183 29.6196557,29.7946933 30.7197218,26.5675891 L30.7197218,47.7552669 C30.7197218,49.9760166 32.0712232,51.1414764 34.1333281,51.1414764 C36.1858589,51.1414764 37.5373766,49.9760166 37.5373766,47.7552669 L37.5373766,32.3363922 L45.0943086,40.6931559 C45.7953543,41.4397632 46.686336,41.9973204 47.7071386,41.9973204 C48.8181303,41.9973204 49.9988114,41.2806416 50.5700199,40.2443749 C51.120745,41.3010422 52.2221625,41.9973204 53.5026068,41.9973204 C55.3242021,41.9973204 56.5855144,40.9719427 56.9954767,39.4379432 L61.3902539,23.5988548 L61.4804593,23.5988548 L65.6360945,38.9687616 C66.1061721,40.6931559 67.0367856,41.9973204 68.9089381,41.9973204 C70.5200976,41.9973204 71.4506948,41.2017614 71.9426561,40.384457 C72.3512507,41.4302353 73.2627321,41.9973204 74.7344966,41.9973204 C76.7460279,41.9973204 77.8173878,40.8726619 77.8173878,38.7906168 L77.8173878,37.7244378 L77.9171999,37.7244378 C79.0391335,40.6020419 81.791326,41.9973204 85.0942435,41.9973204 C89.9591145,41.9973204 94.3033343,38.95925 95.4758253,32.6138178 C96.7959014,38.3513636 101.23031,41.9973204 107.927702,41.9973204 C115.76616,41.9973204 120.249758,36.4692251 120.249758,30.8908008 L120.249758,30.8908008 Z M122.361069,41.5091155 L123.693438,41.5091155 C123.693438,41.5091155 123.703208,41.5091155 124.714241,38.5716708 L125.665354,41.5091155 L126.985414,41.5091155 L126.985414,37.2362167 L126.105374,37.2362167 C126.105374,37.2362167 126.095605,37.2362167 126.095605,40.2647755 L125.043377,37.2362167 L124.312273,37.2362167 C124.312273,37.2362167 124.302504,37.2362167 123.251855,40.2348633 L123.251855,37.2362167 L122.360874,37.2362167 L122.360874,41.5091155 L122.361069,41.5091155 Z M118.357106,40.7230682 L118.357106,41.5091155 L121.870475,41.5091155 L121.870475,40.7230682 L120.590031,40.7230682 L120.590031,37.2362167 L119.638918,37.2362167 L119.638918,40.7230682 L118.357106,40.7230682 Z" id="path3003"></path>
            </g>
        </g>
    </g>
</svg>