<?xml version="1.0" encoding="UTF-8"?>
<svg width="86px" height="96px" viewBox="0 0 86 96" version="1.1" xmlns="http://www.w3.org/2000/svg" xmlns:xlink="http://www.w3.org/1999/xlink">
    <!-- Generator: Sketch 46.2 (44496) - http://www.bohemiancoding.com/sketch -->
    <title>Group 8</title>
    <desc>Created with Sketch.</desc>
    <defs></defs>
    <g id="Page-1" stroke="none" stroke-width="1" fill="none" fill-rule="evenodd">
        <g id="Artboard" transform="translate(-145.000000, -128.000000)">
            <g id="Group-8" transform="translate(147.000000, 130.000000)">
                <path d="M41,89.1376464 L65.0371025,65" id="Path-3" stroke="#000000" stroke-width="0.75" opacity="0.1"></path>
                <path d="M64.5,65.5 L79.0371025,31" id="Path-3-Copy" stroke="#000000" stroke-width="0.75" opacity="0.1"></path>
                <path d="M40.5,50.5 L79.0371025,31" id="Path-3-Copy" stroke="#000000" stroke-width="0.75" opacity="0.1"></path>
                <path d="M40.5,65.5 L64.5,50.5" id="Path-3-Copy-4" stroke="#000000" stroke-width="0.75" opacity="0.1" transform="translate(52.500000, 58.000000) scale(1, -1) translate(-52.500000, -58.000000) "></path>
                <path d="M40.5,31.5 L77.5,3.5" id="Path-3-Copy-5" stroke="#000000" stroke-width="0.75" opacity="0.1" transform="translate(59.000000, 17.500000) scale(1, -1) translate(-59.000000, -17.500000) "></path>
                <path d="M3.5,31.5 L40.5,3.5" id="Path-3-Copy-6" stroke="#000000" stroke-width="0.75" opacity="0.1" transform="translate(22.000000, 17.500000) scale(-1, -1) translate(-22.000000, -17.500000) "></path>
                <path d="M16.5,65.5 L40.5,50.5" id="Path-3-Copy-4" stroke="#000000" stroke-width="0.75" opacity="0.1" transform="translate(28.500000, 58.000000) scale(-1, -1) translate(-28.500000, -58.000000) "></path>
                <path d="M1.5,50.5 L40.0371025,31" id="Path-3-Copy-3" stroke="#000000" stroke-width="0.75" opacity="0.1" transform="translate(21.000000, 41.000000) scale(1, -1) translate(-21.000000, -41.000000) "></path>
                <path d="M2.5,65.5 L16.0371025,31" id="Path-3-Copy-2" stroke="#000000" stroke-width="0.75" opacity="0.1" transform="translate(9.500000, 48.500000) scale(-1, 1) translate(-9.500000, -48.500000) "></path>
                <path d="M40.0371025,89.1376464 L16,65 L40.0371025,89.1376464 Z" id="Path-3" stroke="#000000" stroke-width="0.75" opacity="0.1"></path>
                <path d="M40.375,89.5232179 L40.375,3.37121951" id="Line-2" stroke="#000000" stroke-width="0.75" opacity="0.1" stroke-linecap="square"></path>
                <circle id="Oval" stroke="#FFFFFF" stroke-width="3" fill="#515151" transform="translate(16.500000, 65.500000) rotate(-90.000000) translate(-16.500000, -65.500000) " cx="16.5" cy="65.5" r="3.5"></circle>
                <circle id="Oval-Copy-4" stroke="#FFFFFF" stroke-width="3" fill="#515151" transform="translate(64.500000, 65.500000) rotate(-90.000000) translate(-64.500000, -65.500000) " cx="64.5" cy="65.5" r="3.5"></circle>
                <circle id="Oval-Copy" stroke="#FFFFFF" stroke-width="3" fill="#515151" transform="translate(3.500000, 31.500000) rotate(-90.000000) translate(-3.500000, -31.500000) " cx="3.5" cy="31.5" r="3.5"></circle>
                <circle id="Oval-Copy-2" stroke="#FFFFFF" stroke-width="3" fill="#515151" transform="translate(78.500000, 31.500000) rotate(-90.000000) translate(-78.500000, -31.500000) " cx="78.5" cy="31.5" r="3.5"></circle>
                <circle id="Oval-Copy-3" stroke="#FFFFFF" stroke-width="3" fill="#515151" transform="translate(40.500000, 88.500000) rotate(-90.000000) translate(-40.500000, -88.500000) " cx="40.5" cy="88.5" r="3.5"></circle>
                <circle id="Oval-Copy-8" stroke="#FFFFFF" stroke-width="3" fill="#515151" transform="translate(40.500000, 50.500000) rotate(-90.000000) translate(-40.500000, -50.500000) " cx="40.5" cy="50.5" r="3.5"></circle>
                <circle id="Oval-Copy-9" stroke="#FFFFFF" stroke-width="3" fill="#515151" transform="translate(40.500000, 3.500000) rotate(-90.000000) translate(-40.500000, -3.500000) " cx="40.5" cy="3.5" r="3.5"></circle>
            </g>
        </g>
    </g>
</svg>