<?xml version="1.0" encoding="UTF-8"?>
<svg width="113px" height="144px" viewBox="0 0 113 144" version="1.1" xmlns="http://www.w3.org/2000/svg" xmlns:xlink="http://www.w3.org/1999/xlink">
    <!-- Generator: Sketch 47.1 (45422) - http://www.bohemiancoding.com/sketch -->
    <title>stone</title>
    <desc>Created with Sketch.</desc>
    <defs>
        <ellipse id="path-1" cx="3.14150943" cy="84.1481481" rx="3.14150943" ry="3.15555556"></ellipse>
        <ellipse id="path-2" cx="14.6603774" cy="38.9185185" rx="3.14150943" ry="3.15555556"></ellipse>
        <ellipse id="path-3" cx="107.858491" cy="56.8" rx="3.14150943" ry="3.15555556"></ellipse>
        <ellipse id="path-4" cx="97.9103774" cy="12.6222222" rx="3.14150943" ry="3.15555556"></ellipse>
        <ellipse id="path-5" cx="14.6603774" cy="128.325926" rx="3.14150943" ry="3.15555556"></ellipse>
        <ellipse id="path-6" cx="97.3867925" cy="102.02963" rx="3.14150943" ry="3.15555556"></ellipse>
        <ellipse id="path-7" cx="65.9716981" cy="110.444444" rx="3.14150943" ry="3.15555556"></ellipse>
        <ellipse id="path-8" cx="48.1698113" cy="84.1481481" rx="3.14150943" ry="3.15555556"></ellipse>
        <ellipse id="path-9" cx="64.9245283" cy="55.7481481" rx="3.14150943" ry="3.15555556"></ellipse>
        <ellipse id="path-10" cx="48.1698113" cy="30.5037037" rx="3.14150943" ry="3.15555556"></ellipse>
        <ellipse id="path-11" cx="63.8773585" cy="3.15555556" rx="3.14150943" ry="3.15555556"></ellipse>
        <ellipse id="path-12" cx="49.2169811" cy="138.844444" rx="3.14150943" ry="3.15555556"></ellipse>
    </defs>
    <g id="Page-2" stroke="none" stroke-width="1" fill="none" fill-rule="evenodd">
        <g id="Artboard-3" transform="translate(-50.000000, -40.000000)">
            <g id="stone" transform="translate(51.000000, 41.000000)">
                <g id="Group" transform="translate(3.141509, 3.155556)" stroke="#E5E5E5" stroke-width="1.05" stroke-linecap="round" stroke-linejoin="round">
                    <polygon id="Path-21" transform="translate(52.358491, 67.844444) scale(-1, 1) translate(-52.358491, -67.844444) " points="9.93060609 9.55338694 0 53.0825293 9.93060609 99.1792273 58.3357376 135.688889 93.1029715 125.521654 104.716981 80.8355137 94.4272972 36.7789527 43.3174656 -2.27373675e-13"></polygon>
                    <polyline id="Path-23" transform="translate(71.207547, 116.755556) scale(-1, 1) translate(-71.207547, -116.755556) " points="47.1226415 98.8740741 80.1666569 107.783412 95.2924528 134.637037"></polyline>
                    <path d="M46.0754717,53.6444444 L61.7830189,80.9925926" id="Path-25" transform="translate(53.929245, 67.318519) scale(-1, 1) translate(-53.929245, -67.318519) "></path>
                    <polyline id="Path-22" transform="translate(74.872642, 26.822222) scale(-1, 1) translate(-74.872642, -26.822222) " points="88.2015792 0 104.716981 27.58602 88.1854628 53.6444444 45.0283019 53.416399"></polyline>
                    <polyline id="Path-24" transform="translate(30.891509, 94.140741) scale(-1, 1) translate(-30.891509, -94.140741) " points="61.7830189 80.9925926 16.7446049 80.9925926 0 107.288889"></polyline>
                    <path d="M11.5188679,27.3481481 L46.0754717,35.762963" id="Path-26" transform="translate(28.797170, 31.555556) scale(-1, 1) translate(-28.797170, -31.555556) "></path>
                </g>
                <g id="Oval-Copy-451" transform="translate(3.141509, 84.148148) rotate(-360.000000) translate(-3.141509, -84.148148) ">
                    <use fill="#515151" fill-rule="evenodd" xlink:href="#path-1"></use>
                    <ellipse stroke="#FFFFFF" stroke-width="1.575" cx="3.14150943" cy="84.1481481" rx="2.35400943" ry="2.36805556"></ellipse>
                    <use stroke="#FFFFFF" stroke-width="1.05" xlink:href="#path-1"></use>
                </g>
                <g id="Oval-Copy-465" transform="translate(14.660377, 38.918519) rotate(-360.000000) translate(-14.660377, -38.918519) ">
                    <use fill="#515151" fill-rule="evenodd" xlink:href="#path-2"></use>
                    <ellipse stroke="#FFFFFF" stroke-width="1.575" cx="14.6603774" cy="38.9185185" rx="2.35400943" ry="2.36805556"></ellipse>
                    <use stroke="#FFFFFF" stroke-width="1.05" xlink:href="#path-2"></use>
                </g>
                <g id="Oval-Copy-462" transform="translate(107.858491, 56.800000) rotate(-360.000000) translate(-107.858491, -56.800000) ">
                    <use fill="#515151" fill-rule="evenodd" xlink:href="#path-3"></use>
                    <ellipse stroke="#FFFFFF" stroke-width="1.575" cx="107.858491" cy="56.8" rx="2.35400943" ry="2.36805556"></ellipse>
                    <use stroke="#FFFFFF" stroke-width="1.05" xlink:href="#path-3"></use>
                </g>
                <g id="Oval-Copy-476" transform="translate(97.910377, 12.622222) rotate(-360.000000) translate(-97.910377, -12.622222) ">
                    <use fill="#515151" fill-rule="evenodd" xlink:href="#path-4"></use>
                    <ellipse stroke="#FFFFFF" stroke-width="1.575" cx="97.9103774" cy="12.6222222" rx="2.35400943" ry="2.36805556"></ellipse>
                    <use stroke="#FFFFFF" stroke-width="1.05" xlink:href="#path-4"></use>
                </g>
                <g id="Oval-Copy-477" transform="translate(14.660377, 128.325926) rotate(-360.000000) translate(-14.660377, -128.325926) ">
                    <use fill="#515151" fill-rule="evenodd" xlink:href="#path-5"></use>
                    <ellipse stroke="#FFFFFF" stroke-width="1.575" cx="14.6603774" cy="128.325926" rx="2.35400943" ry="2.36805556"></ellipse>
                    <use stroke="#FFFFFF" stroke-width="1.05" xlink:href="#path-5"></use>
                </g>
                <g id="Oval-Copy-475" transform="translate(97.386792, 102.029630) rotate(-360.000000) translate(-97.386792, -102.029630) ">
                    <use fill="#515151" fill-rule="evenodd" xlink:href="#path-6"></use>
                    <ellipse stroke="#FFFFFF" stroke-width="1.575" cx="97.3867925" cy="102.02963" rx="2.35400943" ry="2.36805556"></ellipse>
                    <use stroke="#FFFFFF" stroke-width="1.05" xlink:href="#path-6"></use>
                </g>
                <g id="Oval-Copy-478" transform="translate(65.971698, 110.444444) rotate(-360.000000) translate(-65.971698, -110.444444) ">
                    <use fill="#515151" fill-rule="evenodd" xlink:href="#path-7"></use>
                    <ellipse stroke="#FFFFFF" stroke-width="1.575" cx="65.9716981" cy="110.444444" rx="2.35400943" ry="2.36805556"></ellipse>
                    <use stroke="#FFFFFF" stroke-width="1.05" xlink:href="#path-7"></use>
                </g>
                <g id="Oval-Copy-479" transform="translate(48.169811, 84.148148) rotate(-360.000000) translate(-48.169811, -84.148148) ">
                    <use fill="#515151" fill-rule="evenodd" xlink:href="#path-8"></use>
                    <ellipse stroke="#FFFFFF" stroke-width="1.575" cx="48.1698113" cy="84.1481481" rx="2.35400943" ry="2.36805556"></ellipse>
                    <use stroke="#FFFFFF" stroke-width="1.05" xlink:href="#path-8"></use>
                </g>
                <g id="Oval-Copy-480" transform="translate(64.924528, 55.748148) rotate(-360.000000) translate(-64.924528, -55.748148) ">
                    <use fill="#515151" fill-rule="evenodd" xlink:href="#path-9"></use>
                    <ellipse stroke="#FFFFFF" stroke-width="1.575" cx="64.9245283" cy="55.7481481" rx="2.35400943" ry="2.36805556"></ellipse>
                    <use stroke="#FFFFFF" stroke-width="1.05" xlink:href="#path-9"></use>
                </g>
                <g id="Oval-Copy-481" transform="translate(48.169811, 30.503704) rotate(-360.000000) translate(-48.169811, -30.503704) ">
                    <use fill="#515151" fill-rule="evenodd" xlink:href="#path-10"></use>
                    <ellipse stroke="#FFFFFF" stroke-width="1.575" cx="48.1698113" cy="30.5037037" rx="2.35400943" ry="2.36805556"></ellipse>
                    <use stroke="#FFFFFF" stroke-width="1.05" xlink:href="#path-10"></use>
                </g>
                <g id="Oval-Copy-470" transform="translate(63.877358, 3.155556) rotate(-360.000000) translate(-63.877358, -3.155556) ">
                    <use fill="#515151" fill-rule="evenodd" xlink:href="#path-11"></use>
                    <ellipse stroke="#FFFFFF" stroke-width="1.575" cx="63.8773585" cy="3.15555556" rx="2.35400943" ry="2.36805556"></ellipse>
                    <use stroke="#FFFFFF" stroke-width="1.05" xlink:href="#path-11"></use>
                </g>
                <g id="Oval-Copy-474" transform="translate(49.216981, 138.844444) rotate(-360.000000) translate(-49.216981, -138.844444) ">
                    <use fill="#515151" fill-rule="evenodd" xlink:href="#path-12"></use>
                    <ellipse stroke="#FFFFFF" stroke-width="1.575" cx="49.2169811" cy="138.844444" rx="2.35400943" ry="2.36805556"></ellipse>
                    <use stroke="#FFFFFF" stroke-width="1.05" xlink:href="#path-12"></use>
                </g>
            </g>
        </g>
    </g>
</svg>