<?xml version="1.0" encoding="UTF-8"?>
<svg width="65px" height="52px" viewBox="0 0 65 52" version="1.1" xmlns="http://www.w3.org/2000/svg" xmlns:xlink="http://www.w3.org/1999/xlink">
    <!-- Generator: Sketch 46.2 (44496) - http://www.bohemiancoding.com/sketch -->
    <title>ui_ux_design</title>
    <desc>Created with Sketch.</desc>
    <defs>
        <circle id="path-1" cx="28.5" cy="9.5" r="3.5"></circle>
        <circle id="path-2" cx="20.5" cy="9.5" r="3.5"></circle>
        <circle id="path-3" cx="12.5" cy="9.5" r="3.5"></circle>
        <circle id="path-4" cx="3.5" cy="3.5" r="3.5"></circle>
        <circle id="path-5" cx="3.5" cy="46.5" r="3.5"></circle>
        <circle id="path-6" cx="3.5" cy="16.5" r="3.5"></circle>
        <circle id="path-7" cx="59.5" cy="3.5" r="3.5"></circle>
        <circle id="path-8" cx="59.5" cy="46.5" r="3.5"></circle>
        <circle id="path-9" cx="59.5" cy="16.5" r="3.5"></circle>
    </defs>
    <g id="Page-1" stroke="none" stroke-width="1" fill="none" fill-rule="evenodd">
        <g id="Artboard" transform="translate(-61.000000, -1510.000000)">
            <g id="ui_ux_design" transform="translate(62.000000, 1511.000000)">
                <g id="Group-2" transform="translate(3.000000, 3.000000)" stroke="#E5E5E5" stroke-linecap="round" stroke-linejoin="round">
                    <path d="M57,39.1111111 C57,41.8097778 54.7819565,44 52.0434783,44 L4.95652174,44 C2.21804348,44 0,41.8097778 0,39.1111111 L0,4.88888889 C0,2.19022222 2.21804348,0 4.95652174,0 L52.0434783,0 C54.7819565,0 57,2.19022222 57,4.88888889 L57,39.1111111 Z" id="Stroke-1"></path>
                    <path d="M0,13 L57,13" id="Stroke-3"></path>
                    <path d="M9,6 C9,6.552 8.552,7 8,7 C7.448,7 7,6.552 7,6 C7,5.448 7.448,5 8,5 C8.552,5 9,5.448 9,6 Z" id="Stroke-5"></path>
                    <path d="M17,6 C17,6.552 16.552,7 16,7 C15.448,7 15,6.552 15,6 C15,5.448 15.448,5 16,5 C16.552,5 17,5.448 17,6 Z" id="Stroke-7"></path>
                    <path d="M25,6 C25,6.552 24.552,7 24,7 C23.448,7 23,6.552 23,6 C23,5.448 23.448,5 24,5 C24.552,5 25,5.448 25,6 Z" id="Stroke-9"></path>
                </g>
                <g id="Oval-Copy-27" transform="translate(28.500000, 9.500000) rotate(-90.000000) translate(-28.500000, -9.500000) ">
                    <use fill="#515151" fill-rule="evenodd" xlink:href="#path-1"></use>
                    <circle stroke="#FFFFFF" stroke-width="2" cx="28.5" cy="9.5" r="2.5"></circle>
                    <use stroke="#FFFFFF" stroke-width="1" xlink:href="#path-1"></use>
                </g>
                <g id="Oval-Copy-28" transform="translate(20.500000, 9.500000) rotate(-90.000000) translate(-20.500000, -9.500000) ">
                    <use fill="#515151" fill-rule="evenodd" xlink:href="#path-2"></use>
                    <circle stroke="#FFFFFF" stroke-width="2" cx="20.5" cy="9.5" r="2.5"></circle>
                    <use stroke="#FFFFFF" stroke-width="1" xlink:href="#path-2"></use>
                </g>
                <g id="Oval-Copy-37" transform="translate(12.500000, 9.500000) rotate(-90.000000) translate(-12.500000, -9.500000) ">
                    <use fill="#515151" fill-rule="evenodd" xlink:href="#path-3"></use>
                    <circle stroke="#FFFFFF" stroke-width="2" cx="12.5" cy="9.5" r="2.5"></circle>
                    <use stroke="#FFFFFF" stroke-width="1" xlink:href="#path-3"></use>
                </g>
                <g id="Oval-Copy-38" transform="translate(3.500000, 3.500000) rotate(-90.000000) translate(-3.500000, -3.500000) ">
                    <use fill="#515151" fill-rule="evenodd" xlink:href="#path-4"></use>
                    <circle stroke="#FFFFFF" stroke-width="2" cx="3.5" cy="3.5" r="2.5"></circle>
                    <use stroke="#FFFFFF" stroke-width="1" xlink:href="#path-4"></use>
                </g>
                <g id="Oval-Copy-40" transform="translate(3.500000, 46.500000) rotate(-90.000000) translate(-3.500000, -46.500000) ">
                    <use fill="#515151" fill-rule="evenodd" xlink:href="#path-5"></use>
                    <circle stroke="#FFFFFF" stroke-width="2" cx="3.5" cy="46.5" r="2.5"></circle>
                    <use stroke="#FFFFFF" stroke-width="1" xlink:href="#path-5"></use>
                </g>
                <g id="Oval-Copy-42" transform="translate(3.500000, 16.500000) rotate(-90.000000) translate(-3.500000, -16.500000) ">
                    <use fill="#515151" fill-rule="evenodd" xlink:href="#path-6"></use>
                    <circle stroke="#FFFFFF" stroke-width="2" cx="3.5" cy="16.5" r="2.5"></circle>
                    <use stroke="#FFFFFF" stroke-width="1" xlink:href="#path-6"></use>
                </g>
                <g id="Oval-Copy-39" transform="translate(59.500000, 3.500000) rotate(-90.000000) translate(-59.500000, -3.500000) ">
                    <use fill="#515151" fill-rule="evenodd" xlink:href="#path-7"></use>
                    <circle stroke="#FFFFFF" stroke-width="2" cx="59.5" cy="3.5" r="2.5"></circle>
                    <use stroke="#FFFFFF" stroke-width="1" xlink:href="#path-7"></use>
                </g>
                <g id="Oval-Copy-41" transform="translate(59.500000, 46.500000) rotate(-90.000000) translate(-59.500000, -46.500000) ">
                    <use fill="#515151" fill-rule="evenodd" xlink:href="#path-8"></use>
                    <circle stroke="#FFFFFF" stroke-width="2" cx="59.5" cy="46.5" r="2.5"></circle>
                    <use stroke="#FFFFFF" stroke-width="1" xlink:href="#path-8"></use>
                </g>
                <g id="Oval-Copy-43" transform="translate(59.500000, 16.500000) rotate(-90.000000) translate(-59.500000, -16.500000) ">
                    <use fill="#515151" fill-rule="evenodd" xlink:href="#path-9"></use>
                    <circle stroke="#FFFFFF" stroke-width="2" cx="59.5" cy="16.5" r="2.5"></circle>
                    <use stroke="#FFFFFF" stroke-width="1" xlink:href="#path-9"></use>
                </g>
            </g>
        </g>
    </g>
</svg>