<?xml version="1.0" encoding="UTF-8"?>
<svg width="243px" height="26px" viewBox="0 0 243 26" version="1.1" xmlns="http://www.w3.org/2000/svg" xmlns:xlink="http://www.w3.org/1999/xlink">
    <!-- Generator: Sketch 46.2 (44496) - http://www.bohemiancoding.com/sketch -->
    <title>wizart_api_logo</title>
    <desc>Created with Sketch.</desc>
    <defs>
        <polygon id="path-1" points="0.181664904 25.7604585 17.0386987 25.7604585 17.0386987 0.00100588457 0.181664904 0.00100588457"></polygon>
        <polygon id="path-3" points="0 25.7604585 242.794852 25.7604585 242.794852 0 0 0"></polygon>
    </defs>
    <g id="Page-1" stroke="none" stroke-width="1" fill="none" fill-rule="evenodd">
        <g id="Artboard-Copy-12" transform="translate(-598.000000, -926.000000)">
            <g id="wizart_api_logo" transform="translate(598.000000, 926.000000)">
                <polygon id="Fill-1" fill="#001E52" points="30.6475429 0 24.8561777 18.5344966 19.0288398 0 15.9714 0 10.1440621 18.5344966 4.35269692 0 0 0 8.70491421 26 11.6906485 26 17.5179864 7.46575108 23.3093515 26 26.2950858 26 35 0"></polygon>
                <polygon id="Fill-2" fill="#001E52" points="44 26 49 26 49 0 44 0"></polygon>
                <polygon id="Fill-3" fill="#001E52" points="58.7581592 0 58.7581592 3.82586003 71.1048426 3.82586003 58 26 77.9277944 26 77.9277944 22.17414 64.8953981 22.17414 78 0"></polygon>
                <path d="M92.5664389,0 L84,26 L88.2833375,26 L89.345322,22.6941598 L98.654678,22.6941598 L99.7166625,26 L104,26 L95.4335611,0 L92.5664389,0 Z M94.0178177,7.09430835 L97.4159321,18.8685474 L90.5840679,18.8685474 L94.0178177,7.09430835 Z" id="Fill-4" fill="#001E52"></path>
                <g id="Group-15">
                    <path d="M127.672431,9.01687196 C127.672431,6.18322152 125.775263,3.79142428 122.85617,3.79142428 L117.893955,3.79142428 L117.893955,14.2423196 L122.85617,14.2423196 C125.775263,14.2423196 127.672431,11.8505224 127.672431,9.01687196 L127.672431,9.01687196 Z M113.698001,0.000956817031 L122.85617,0.000956817031 C128.329227,0.000956817031 131.868627,4.1591855 131.868627,9.01687196 C131.868627,12.6966921 129.825262,15.9719504 126.468305,17.3703753 L131.539986,25.760434 L126.760214,25.760434 L122.089908,18.0325418 L117.893955,18.0325418 L117.893955,25.760434 L113.698001,25.760434 L113.698001,0.000956817031 L113.698001,0.000956817031 Z" id="Fill-5" fill="#001E52"></path>
                    <g id="Group-9" transform="translate(139.386703, 0.000000)">
                        <mask id="mask-2" fill="white">
                            <use xlink:href="#path-1"></use>
                        </mask>
                        <g id="Clip-8"></g>
                        <polygon id="Fill-7" fill="#001E52" mask="url(#mask-2)" points="6.49371757 3.79147335 0.181664904 3.79147335 0.181664904 0.00100588457 17.0386987 0.00100588457 17.0386987 3.79147335 10.6896709 3.79147335 10.6896709 25.7604831 6.49371757 25.7604831"></polygon>
                    </g>
                    <path d="M224.585962,9.01687196 C224.585962,6.18322152 222.688552,3.79142428 219.769458,3.79142428 L214.807486,3.79142428 L214.807486,14.2423196 L219.769458,14.2423196 C222.688552,14.2423196 224.585962,11.8505224 224.585962,9.01687196 L224.585962,9.01687196 Z M210.61129,0.000956817031 L219.769458,0.000956817031 C225.242515,0.000956817031 228.781915,4.1591855 228.781915,9.01687196 C228.781915,13.8743131 225.242515,18.0325418 219.769458,18.0325418 L214.807486,18.0325418 L214.807486,25.760434 L210.61129,25.760434 L210.61129,0.000956817031 Z" id="Fill-10" fill="#001E52"></path>
                    <mask id="mask-4" fill="white">
                        <use xlink:href="#path-3"></use>
                    </mask>
                    <g id="Clip-13"></g>
                    <polygon id="Fill-12" fill="#001E52" mask="url(#mask-4)" points="238.452944 25.7604585 242.795096 25.7604585 242.795096 0.000981350801 238.452944 0.000981350801"></polygon>
                    <path d="M199.912618,16.7993027 L199.72312,17.3910573 C199.716552,17.447485 199.707065,17.5102914 199.690524,17.5875728 C199.447266,18.7222596 199.462348,19.6577323 199.416859,19.642276 C199.377694,19.6292731 199.427319,18.7732899 199.347044,18.161663 L193.501316,4.906754e-05 L190.39978,4.906754e-05 L184.627273,17.9334989 C184.492265,18.5308962 184.56208,19.6275558 184.517807,19.642276 C184.472561,19.657487 184.48667,18.7386973 184.250223,17.6177493 L183.955881,16.6974876 L180.32161,17.861615 L183.029313,25.7605076 L186.057629,25.7605076 L191.968549,7.39771674 L197.842981,25.7605076 L200.87154,25.7605076 L203.549322,17.9487099 L199.912618,16.7993027 Z" id="Fill-14" fill="#001E52" mask="url(#mask-4)"></path>
                </g>
            </g>
        </g>
    </g>
</svg>