<?xml version="1.0" encoding="UTF-8"?>
<svg width="139px" height="59px" viewBox="0 0 139 59" version="1.1" xmlns="http://www.w3.org/2000/svg" xmlns:xlink="http://www.w3.org/1999/xlink">
    <!-- Generator: Sketch 46.2 (44496) - http://www.bohemiancoding.com/sketch -->
    <title>wizart_app_logo</title>
    <desc>Created with Sketch.</desc>
    <defs>
        <polygon id="path-1" points="62.3923378 47.9359017 62.3923378 0.250522985 0.0408215575 0.250522985 0.0408215575 47.9359017"></polygon>
        <polygon id="path-3" points="9.60388191e-05 59.0133791 53.71644 59.0133791 53.71644 0.0645127079 9.60388191e-05 0.0645127079"></polygon>
    </defs>
    <g id="Page-1" stroke="none" stroke-width="1" fill="none" fill-rule="evenodd">
        <g id="Artboard-Copy-11" transform="translate(-651.000000, -908.000000)">
            <g id="wizart_app_logo" transform="translate(651.000000, 908.000000)">
                <g id="Group-3" transform="translate(75.941229, 9.028849)">
                    <mask id="mask-2" fill="white">
                        <use xlink:href="#path-1"></use>
                    </mask>
                    <g id="Clip-2"></g>
                    <path d="M13.9832902,17.4608121 C13.9579913,17.4931985 13.9342256,17.5078495 13.9832902,17.4608121 M12.4116874,25.499576 C12.4224203,28.0025811 11.8198448,30.3845227 11.1981033,32.7587533 C10.4383675,35.6604194 9.5621031,38.5304702 8.69733822,41.4028343 C8.53864466,41.9310408 8.24119007,42.434572 7.92840278,42.8949214 C7.54355174,43.4601409 6.94557602,43.4354656 6.73551788,42.7923645 C6.46259563,41.9534028 6.32996768,41.054295 6.25023759,40.1713804 C6.17127413,39.3000324 6.23260497,38.4163467 6.23260497,37.4933347 C6.45186273,32.6662208 6.87887873,27.8213715 8.35465213,23.1423097 C8.6904385,22.0781856 9.18645169,21.05493 9.70393068,20.0632896 C10.065016,19.3731512 10.6192935,18.7192546 11.5070575,18.8673066 C12.3258242,19.003021 12.4921841,19.8026563 12.7106752,20.471975 C12.7980717,20.7410905 12.8410033,21.0464478 12.8157043,21.3271298 C12.6884428,22.7197445 12.4055543,24.1092747 12.4116874,25.499576 M61.418864,30.5094417 C61.1942398,30.3220633 60.7917562,30.1732401 60.5441329,30.2488083 C60.3540073,30.3066412 60.2198461,30.733833 60.1638817,31.0175995 C59.8464945,32.6353766 59.6303033,34.2762869 59.2446857,35.8755575 C58.8483351,37.5234078 58.2587924,39.1172807 57.0789403,40.4003985 C55.9826514,41.5932971 54.4731461,41.8084352 53.2334964,40.773613 C52.504426,40.1652116 51.8757849,39.3532386 51.4173368,38.5135059 C50.3049487,36.4754768 49.9116646,34.210743 49.9208643,31.9174784 C49.9331304,28.5516074 50.0542588,25.1841943 50.2014529,21.8198656 C50.2689168,20.2838255 50.510407,18.7554965 50.674467,17.201721 C52.060544,17.2950247 53.3040269,17.5533446 54.4716128,18.1640594 C55.1186532,18.5025742 55.8461903,18.1694571 56.1490114,17.4631254 C56.4073675,16.861664 56.1359786,16.2069963 55.4621059,15.9509896 C55.0005913,15.7759489 54.5114779,15.6456322 54.0223644,15.5739195 C53.0426042,15.429723 52.054411,15.3387327 50.9995205,15.2176693 C51.2042121,14.1049655 51.3498729,13.0069128 51.6120623,11.9389331 C52.2391701,9.38580628 52.9046098,6.8427038 53.5930485,4.30654126 C53.7693747,3.6557291 53.785474,3.08588291 53.3569247,2.53994096 C52.5918225,1.56526493 51.6641935,0.814209191 50.4797416,0.428656965 C49.4739157,0.100937573 48.4849559,0.186530167 47.7834844,1.01392524 C47.3725677,1.49894995 47.0820129,2.17058192 46.9547514,2.80211647 C46.438039,5.35832773 45.9696247,7.92610556 45.5548749,10.5015944 C45.3003519,12.0839008 45.173857,13.687798 44.9913978,15.2693333 C43.968706,15.4135298 42.9812794,15.5384487 41.9992193,15.6980673 C41.497073,15.7798044 41.0409248,15.9679539 40.8109342,16.4953893 C40.5242125,17.1523703 40.6108423,17.8533043 41.0455247,18.2326877 C41.6343008,18.7462432 42.407836,18.7778585 43.0518099,18.3845952 C43.581555,18.0607314 44.1534651,17.8062669 44.820438,17.4623543 C44.7913059,18.1162509 44.7706067,18.5742869 44.7506742,19.032323 C44.6402787,21.4975439 44.5367829,23.963536 44.4171877,26.429528 C44.3428241,27.964797 44.5559488,29.5023792 44.2002299,31.0407326 C43.9150415,32.276042 43.8767097,33.5676419 43.663585,34.823 C43.2542016,37.2342436 42.7934537,39.643945 41.6511667,41.8338816 C41.3054141,42.4970315 40.7971347,43.1339637 40.2183249,43.601253 C39.3696594,44.2852227 38.6528552,44.0022274 38.3002028,42.9789718 C38.1852075,42.6458546 38.083245,42.2950021 38.0556461,41.9464629 C37.9858822,41.0720304 37.8716535,40.1875736 37.9360509,39.31931 C38.3002028,34.3765305 38.672021,29.434522 39.1304691,24.5002247 C39.2623304,23.0837058 38.8414475,22.0504258 37.744392,21.239995 C37.3603076,20.9562286 36.9800564,20.6393047 36.5492072,20.4503841 C34.4026277,19.5088655 32.2537483,18.5696603 30.0780367,17.6990834 C28.5961302,17.1061041 28.5761977,17.1577681 28.5600983,15.5839439 C28.5585651,15.4582538 28.5631649,15.3317927 28.5485988,15.2076449 C28.4780683,14.6000146 28.199013,14.1504607 27.6056371,13.9252982 C26.2609583,13.4155982 24.9860435,13.6160853 23.8008249,14.3655988 C22.7221687,15.0487974 22.6002737,16.123717 23.5654678,16.9665342 C24.1649768,17.4901141 24.9078466,17.8602442 25.6223509,18.2296032 C25.97347,18.4108128 26.1030314,18.5927934 26.0861654,18.9860567 C25.981903,21.3687695 25.9374382,23.7545667 25.8048102,26.1357372 C25.5863191,30.0429235 25.2152675,33.9339165 24.0622476,37.6992196 C23.6168324,39.156607 23.1292522,40.6070545 22.1916569,41.8400505 C21.5208508,42.722194 20.8393118,42.6959764 20.1846051,41.792242 C20.0512105,41.607948 19.9339153,41.4074609 19.8357859,41.201576 C19.2117446,39.8937828 18.9940201,38.4880594 18.9679545,37.0622873 C18.8675252,31.589759 19.5030661,26.1604125 20.0489106,20.730295 C20.1984045,19.2443767 19.8541852,18.1532639 18.6551672,17.3220133 C18.2795158,17.0621511 17.9084642,16.7899512 17.5090471,16.5701865 C15.8998791,15.6872719 15.0113485,15.9162899 13.9940231,17.4477033 C13.2695526,17.0421024 12.6493444,16.5262335 11.9417398,16.330373 C9.16191935,15.5615818 6.81601461,16.4815095 4.87719334,18.4987187 C2.84714244,20.6115449 1.91261372,23.2903618 1.21267548,26.0717355 C1.14291165,26.3493331 1.0578151,26.6477506 0.894521733,26.8736842 L0.323378259,31.4617557 C0.263580687,32.3122839 0.188450404,33.0394354 0.164684703,33.7681291 C0.0880211492,36.1485285 -0.156535587,38.5404945 0.369376391,40.8969897 C0.985751362,43.6621703 2.43009271,45.7749965 5.32950831,46.4165554 C7.6938123,46.9393642 8.1100954,46.9517019 9.32981254,44.6306775 C10.5686956,42.2726401 11.255601,39.70332 11.962439,37.148651 C12.174797,36.3814021 12.3787221,35.6118398 12.5864803,34.8430487 C13.020396,37.3753557 13.5018431,39.8513721 14.4555377,42.2094095 C15.1830749,44.0083962 16.0808051,45.7071393 17.6616075,46.9054356 C19.530665,48.3234967 21.7278424,48.4029205 23.3308773,46.3540959 C24.00475,45.4935434 24.5835598,44.5281206 25.0412412,43.5333959 C26.5131814,40.330228 27.1970203,36.8972709 27.525907,33.420361 C27.9452566,28.9880526 28.1599146,24.5364666 28.4635022,20.0925916 C28.476535,19.8944178 28.4995341,19.6962439 28.5317328,19.3538735 C29.5858567,19.8843934 30.5594838,20.339345 31.4978457,20.8567561 C32.4599733,21.387276 32.7896266,22.2169844 32.6638983,23.3327725 C32.2828805,26.7194633 31.9171953,30.1084673 31.6350735,33.5036402 C31.4250153,36.0259229 31.3360856,38.5628566 31.932528,41.0596928 C32.5412367,43.6043375 33.7724533,45.6315711 36.4687105,46.3664336 C38.9986078,47.055801 41.2716821,46.6440312 42.8555512,44.4078283 C43.6980836,43.217243 44.2408616,41.8115196 44.9147342,40.500642 C44.9990641,40.337939 45.0542619,40.1598139 45.1723238,39.8667942 C45.2773528,40.2191889 45.3425168,40.4150495 45.3938814,40.6139944 C45.7128018,41.8493037 46.356009,42.8571373 47.3633681,43.6513748 C48.9564368,44.9082751 50.7242983,45.7965874 52.6784523,46.3062875 C54.6264732,46.8136742 56.4395662,46.5476432 57.8386761,45.0146875 C58.6290773,44.1495083 59.3320821,43.1486147 59.8541609,42.0983705 C61.3092351,39.1735713 62.0191397,36.0174408 62.3763918,32.7811154 C62.4768211,31.8673566 62.1111359,31.08777 61.418864,30.5094417" id="Fill-1" fill="#FA2A53" mask="url(#mask-2)"></path>
                </g>
                <g id="Group-6">
                    <mask id="mask-4" fill="white">
                        <use xlink:href="#path-3"></use>
                    </mask>
                    <g id="Clip-5"></g>
                    <path d="M51.5738137,22.7142178 C52.0871063,21.7598539 52.4424035,20.7211905 52.892498,19.732024 C53.1198574,19.2308669 53.5121486,18.7807536 53.6354622,18.2610352 C54.0292948,16.6044327 52.9418234,14.6841041 51.3449129,14.0978741 C49.9360555,13.5804758 48.6713209,13.9277281 47.4559116,14.5069976 C47.754947,12.1473832 47.9738286,9.77616785 48.0624602,7.38561776 C48.0994542,6.38871738 48.0647723,5.32994576 47.7665076,4.39491663 C47.2794191,2.86515018 46.0832776,1.83731418 44.7353063,1.01597345 C43.7973526,0.44366447 42.7931178,0.05464904 41.6755887,0.0647031167 C40.97116,0.0708902409 40.5865759,0.589061888 40.9603701,1.08016487 C41.4844527,1.76925582 41.5060326,2.52485835 41.4990962,3.31603685 C41.4312737,11.4892278 40.8648021,19.6252961 39.7411073,27.7226948 C38.9249257,33.6058765 37.8890919,39.4465217 36.375418,45.1912664 C35.953069,46.7937316 35.398158,48.3621676 34.8679097,49.9336971 C34.7854438,50.1796353 34.508759,50.3598353 34.3214765,50.5701975 C34.1511497,50.3389537 33.9122297,50.1309117 33.8259102,49.8710525 C33.6656026,49.3923237 33.5322698,48.8888465 33.4975879,48.3869161 C33.2478779,44.7906501 32.9087656,41.1943842 32.8209047,37.5927046 C32.6775527,31.7420053 32.7122346,25.8866657 32.6467243,20.0336463 C32.6397879,19.4698446 32.5665705,18.8565459 32.3376697,18.3522953 C31.4814112,16.4690894 29.7981812,15.7560233 27.9022353,15.5170457 C27.1746853,15.4250122 26.3076369,15.44048 25.6918398,15.765304 C25.1114954,16.0707933 24.6698787,16.7939134 24.3523463,17.4265468 C22.2190218,21.6825149 20.5666201,26.1356975 19.1061252,30.6623522 C18.7569937,31.7450989 18.4386906,32.8371263 18.0618135,34.068364 C17.7435104,31.935353 17.479157,29.9670741 17.1523761,28.0088493 C16.2853276,22.811665 15.2363917,17.6562438 13.4375552,12.6864364 C12.7608721,10.8156047 11.9901624,8.98576274 10.7500904,7.40340574 C9.91849462,6.34154056 8.92967405,5.73829595 7.46840842,5.99274143 C4.61909458,6.48925815 2.39020206,7.94709927 0.621423249,10.174464 C0.329324264,10.5418245 0.102735606,11.0089523 0.00562618097,11.4644793 C-0.0429285315,11.6910828 0.239151227,12.2046141 0.42489227,12.2332295 C2.14126282,12.4907686 3.16168249,13.6879771 4.12584035,14.9323624 C5.53855127,16.7567907 6.45415442,18.8519056 7.20713782,21.0181724 C9.24335291,26.8711918 10.0788022,32.9546817 10.4926734,39.0977225 C10.7608803,43.0876442 10.8048108,47.0930337 10.93429,51.0922361 C10.9628063,51.9700343 11.2348668,52.7256369 11.8984479,53.3025862 C13.6471883,54.8238453 15.6965054,55.4263165 17.9785769,55.1826985 C18.9173013,55.0821578 19.3866636,54.5670797 19.3681665,53.7542462 C19.3142168,51.3961786 19.2040054,49.0388843 19.1631577,46.6800432 C19.1292465,44.7001635 18.7693251,42.7334314 19.1585335,40.7357637 C19.967008,36.5903905 21.3750946,32.6445521 22.9411768,28.7451171 C23.5562032,27.2145772 24.1681467,25.6824906 24.7808609,24.1511774 C24.9010916,24.2996684 24.8987795,24.4249576 24.9010916,24.5502469 C25.0413608,31.1410809 25.0891448,37.7357818 25.3635175,44.3212021 C25.4937674,47.4487934 26.0209328,50.563237 26.4409696,53.6738136 C26.5758438,54.6722608 26.8633186,55.6977766 27.6517546,56.4123895 C28.7885515,57.4425456 30.0794902,58.2491919 31.5461508,58.7286941 C33.2424829,59.2824417 33.8667578,59.089094 34.9064452,57.6119181 C36.4864002,55.3667655 37.4906349,52.8284978 38.459417,50.2848164 C41.1422576,43.2430957 43.1576635,36.0002935 44.8270208,28.6584973 C45.2601596,26.7536365 45.6740308,24.8441353 46.0570735,22.9307672 C46.2566873,23.1620109 46.4717153,23.3870676 46.7191131,23.5982032 C48.530281,25.1403439 50.4424118,24.8201602 51.5738137,22.7142178 Z" id="Fill-4" fill="#FA2A53" mask="url(#mask-4)"></path>
                </g>
                <path d="M70.0661659,49.5159833 C67.7551459,49.1669527 65.551704,49.3844197 62.6951642,50.2434529 C61.836829,50.5019368 61.101331,50.7882812 60.433737,51.1264771 C61.6972065,48.2034425 63.3551287,45.5319267 64.6597983,43.5298376 C68.293799,37.952313 72.5168084,32.7075671 77.5714494,27.4968729 C77.9361465,27.1207556 78.3687475,26.7856553 78.7876151,26.4613896 L78.8829857,26.3870949 C79.2949866,26.0690204 79.4193498,25.6758773 79.2537865,25.219274 C78.9867489,24.4825176 78.3962142,23.8750032 77.6324866,23.5515114 C76.9275072,23.2527845 76.1599648,23.248915 75.52823,23.5399028 C74.9712658,23.7976128 74.4524498,24.1365827 73.9504191,24.4654918 C73.7085593,24.624142 73.4666995,24.7827923 73.2202619,24.9321557 C73.1042912,25.0033549 72.9875577,25.0753279 72.936439,25.0761018 C72.4748454,25.0846148 72.0132518,25.0946755 71.5516581,25.1047363 C69.7815801,25.1418837 67.9512279,25.1813528 66.1536831,25.1558139 C65.5272891,25.147301 64.8741913,24.9778161 64.2424566,24.8137485 C64.1196193,24.7820184 63.9975449,24.7502884 63.8754706,24.7193322 C63.5534995,24.6388462 63.3497879,24.4089968 63.2864619,24.0545489 C63.2315284,23.7488569 63.0491798,23.5190074 62.7996904,23.4400692 C62.5563047,23.3634528 62.2877411,23.4431649 62.0802147,23.6536667 C61.9161773,23.8192821 61.7223843,24.1296175 61.7162806,24.4569788 C61.7086509,24.914356 61.7590066,25.3353596 61.8665846,25.7060595 L61.9398292,25.9622217 C62.245778,27.0425914 62.5616454,27.8637033 63.9845745,27.9356763 C65.0786659,27.9913974 66.1880165,27.5974804 67.2615078,27.5974804 C67.8848499,27.5974804 68.4509697,27.8064344 69.049134,27.7437482 C69.0628674,27.7422004 69.0758378,27.8876943 69.0888082,27.8861465 C68.7134296,28.3179848 68.3342361,28.8202484 67.9550427,29.248991 C66.9952331,30.335552 66.0018531,31.4956337 65.0801918,32.6510721 C61.5163838,37.1180447 59.0047041,41.8481446 56.3450093,46.8367284 L55.9154602,47.6508752 C55.292118,48.8179221 54.7580428,49.8982918 54.320864,50.9655051 C54.1652192,51.0962949 53.9805818,51.2294063 53.737959,51.3772219 C52.4912747,52.1371955 51.8221547,51.8887723 51.7000804,50.4500852 C51.5368059,48.5184214 51.427702,46.2516572 51.5398578,44.3199933 C51.5879246,43.4926902 51.6275987,42.3016523 51.6687988,41.5277485 C51.8450437,38.3191434 52.0395996,35.3016925 52.8071421,32.1813125 C53.2138023,30.5274801 52.1868518,29.1460618 50.4068552,28.5315822 C48.2064651,27.7723826 46.8239732,28.0548575 46.351698,30.785964 C45.748193,34.2832352 45.5643185,37.8253928 45.4895479,41.3621331 C45.7527708,44.1690821 45.8077042,47.009309 46.1395938,49.808519 C46.2837942,51.0235479 46.5737207,52.269533 47.4717302,53.1920263 C48.5673474,54.3180563 49.8414984,55.2181064 51.3102054,55.7691259 C51.771799,55.9417065 52.313504,55.9920102 52.808668,55.9564106 C53.0749427,55.937063 53.3259581,55.8828898 53.566292,55.8016299 C54.169034,57.1157185 55.1685178,58.0467248 56.5380393,58.5667881 C56.7501435,58.6472741 56.9508032,58.6875171 57.1400185,58.6875171 C57.5016637,58.6875171 57.820583,58.5404754 58.0921984,58.245618 C58.4935178,57.8091363 58.9192521,57.3788458 59.331253,56.9624855 L59.6387278,56.6498284 C62.2846892,53.9612867 64.1623453,53.1649397 68.0107391,53.0968361 C68.7378444,53.0867754 69.5694759,53.1339835 70.2446997,53.8962788 C70.4438334,54.1207109 70.6551747,54.4086031 70.8237898,54.6864345 C71.0252125,55.0184392 71.2602056,55.3303225 71.6073546,55.3620525 C71.8515033,55.3852696 72.0864964,55.2637667 72.3291191,54.9913526 C72.7670609,54.4991498 73.4392327,52.7137538 73.4453365,52.695954 C73.7238186,51.9367544 73.3507288,51.0490867 72.4946825,50.4338332 C71.8415847,49.9648475 71.0465755,49.6645729 70.0661659,49.5159833 Z" id="Fill-7" fill="#FA2A53"></path>
            </g>
        </g>
    </g>
</svg>